<?xml version="1.0" standalone="no"?><!DOCTYPE svg PUBLIC "-//W3C//DTD SVG 1.1//EN" "http://www.w3.org/Graphics/SVG/1.1/DTD/svg11.dtd"><svg t="1543307750109" class="icon" style="" viewBox="0 0 1024 1024" version="1.1" xmlns="http://www.w3.org/2000/svg" p-id="529" xmlns:xlink="http://www.w3.org/1999/xlink" width="200" height="200"><defs><style type="text/css"></style></defs><path d="M512 1021.44C230.4 1021.44 2.56 793.6 2.56 512S230.4 2.56 512 2.56 1021.44 230.4 1021.44 512 793.6 1021.44 512 1021.44z m0-940.544c-238.08 0-431.104 193.024-431.104 431.104s193.024 431.104 431.104 431.104 431.104-193.024 431.104-431.104-193.024-431.104-431.104-431.104zM457.216 708.096l-54.784-56.32-164.864-167.936 54.784-56.32 164.864 168.448 274.432-280.576 54.784 56.32-274.432 280.576-54.784 55.808z" p-id="530" fill="#1296db"></path></svg>