<?xml version="1.0" encoding="utf-8"?>
<!-- Generator: Adobe Illustrator 16.0.0, SVG Export Plug-In . SVG Version: 6.00 Build 0)  -->
<!DOCTYPE svg PUBLIC "-//W3C//DTD SVG 1.1//EN" "http://www.w3.org/Graphics/SVG/1.1/DTD/svg11.dtd">
<svg version="1.1"
	 id="svg2" inkscape:version="0.48.0 r9654" sodipodi:docname="2_of_clubs.svg" inkscape:export-xdpi="215.44792" inkscape:export-ydpi="215.44792" xmlns:dc="http://purl.org/dc/elements/1.1/" xmlns:cc="http://creativecommons.org/ns#" xmlns:rdf="http://www.w3.org/1999/02/22-rdf-syntax-ns#" xmlns:svg="http://www.w3.org/2000/svg" xmlns:sodipodi="http://sodipodi.sourceforge.net/DTD/sodipodi-0.dtd" xmlns:inkscape="http://www.inkscape.org/namespaces/inkscape" inkscape:export-filename="/home/byron/art/cards/final/PNGs/2_of_clubs.png"
	 xmlns="http://www.w3.org/2000/svg" xmlns:xlink="http://www.w3.org/1999/xlink" x="0px" y="0px" width="167.086px"
	 height="242.667px" viewBox="0 0 167.086 242.667" enable-background="new 0 0 167.086 242.667" xml:space="preserve">
<sodipodi:namedview  id="namedview39" inkscape:pageopacity="0" inkscape:pageshadow="2" inkscape:window-width="1680" inkscape:window-height="977" inkscape:window-x="0" inkscape:window-y="25" inkscape:current-layer="svg2" inkscape:cy="148.16686" bordercolor="#666666" showgrid="false" borderopacity="1" objecttolerance="10" inkscape:zoom="2.4336873" gridtolerance="10" guidetolerance="10" inkscape:cx="117.62976" pagecolor="#ffffff" inkscape:window-maximized="1">
	</sodipodi:namedview>
<g id="Layer_x0020_1">
	<path id="path5" fill="#FFFFFF" stroke="#000000" stroke-width="0.5" d="M166.836,235.548c0,3.777-3.086,6.869-6.871,6.869H7.111
		c-3.775,0-6.861-3.092-6.861-6.869V7.12c0-3.777,3.086-6.87,6.861-6.87h152.854c3.785,0,6.871,3.093,6.871,6.87V235.548z"/>
	<g id="g7">
		<g id="g9">
		</g>
	</g>
	<g id="g15">
	</g>
	<g id="g19">
	</g>
	<g id="g23">
		<g id="g25">
		</g>
	</g>
	<g id="g31">
		<g id="g33">
		</g>
	</g>
</g>
<text transform="matrix(1.1816 0 0 1 4.5 31.3931)" font-family="'ArialMT'" font-size="38.0433">2</text>
<g id="layer1-1-4" transform="matrix(1.4856506,0,0,1.4856506,-54.024661,10.018072)">
	<path id="cl-9" inkscape:connector-curvature="0" d="M49.521,24.452c0,0,1.683-1.346,1.683-3.212c0-1.093-0.97-2.907-3.212-2.907
		c-2.242,0-3.212,1.815-3.212,2.907c0,1.866,1.683,3.212,1.683,3.212c-1.869-1.456-5.201-0.462-5.201,2.448
		c0,1.457,1.19,3.06,3.06,3.06c2.242,0,3.212-2.448,3.212-2.448s0.285,2.79-1.376,4.283h3.671c-1.661-1.492-1.376-4.283-1.376-4.283
		s0.97,2.448,3.212,2.448c1.87,0,3.06-1.603,3.06-3.06C54.723,23.99,51.39,22.996,49.521,24.452z"/>
</g>
<text transform="matrix(-1.1816 0 0 -1 162.4649 210.8569)" font-family="'ArialMT'" font-size="38.0433">2</text>
<g id="layer1-1-4-1" transform="matrix(-1.4856506,0,0,-1.4856506,221.19916,232.46182)">
	<path id="cl-9-7" inkscape:connector-curvature="0" d="M49.662,24.296c0,0,1.683-1.346,1.683-3.213c0-1.092-0.97-2.905-3.212-2.905
		c-2.243,0-3.213,1.814-3.213,2.905c0,1.867,1.683,3.213,1.683,3.213c-1.869-1.455-5.201-0.461-5.201,2.448
		c0,1.457,1.191,3.059,3.061,3.059c2.241,0,3.212-2.448,3.212-2.448s0.285,2.79-1.376,4.284h3.671
		c-1.661-1.493-1.376-4.284-1.376-4.284s0.97,2.448,3.212,2.448c1.87,0,3.059-1.603,3.059-3.059
		C54.863,23.834,51.531,22.841,49.662,24.296z"/>
</g>
<g id="layer1-1-4-8" transform="matrix(2.5125778,0,0,2.5125778,-36.788386,-1.5311156)">
	<path id="cl-9-8" inkscape:connector-curvature="0" d="M50.291,22.698c0,0,2.375-1.9,2.375-4.534c0-1.542-1.369-4.102-4.534-4.102
		c-3.165,0-4.534,2.561-4.534,4.102c0,2.634,2.375,4.534,2.375,4.534c-2.638-2.055-7.341-0.652-7.341,3.455
		c0,2.056,1.68,4.318,4.318,4.318c3.165,0,4.534-3.455,4.534-3.455s0.402,3.938-1.943,6.046h5.182
		c-2.345-2.107-1.943-6.046-1.943-6.046s1.369,3.455,4.534,3.455c2.639,0,4.318-2.263,4.318-4.318
		C57.633,22.046,52.93,20.643,50.291,22.698z"/>
</g>
<g id="layer1-1-4-8-0" transform="matrix(-2.5125778,0,0,-2.5125778,205.12954,245.27515)">
	<path id="cl-9-8-6" inkscape:connector-curvature="0" d="M50.291,22.698c0,0,2.375-1.9,2.375-4.534
		c0-1.542-1.369-4.102-4.534-4.102c-3.165,0-4.534,2.561-4.534,4.102c0,2.634,2.375,4.534,2.375,4.534
		c-2.638-2.055-7.341-0.652-7.341,3.455c0,2.056,1.68,4.318,4.318,4.318c3.165,0,4.534-3.454,4.534-3.454s0.402,3.938-1.943,6.046
		h5.182c-2.345-2.107-1.943-6.046-1.943-6.046s1.369,3.454,4.534,3.454c2.639,0,4.318-2.263,4.318-4.318
		C57.632,22.046,52.929,20.643,50.291,22.698z"/>
</g>
</svg>
