<?xml version="1.0" encoding="utf-8"?>
<!-- Generator: Adobe Illustrator 16.0.0, SVG Export Plug-In . SVG Version: 6.00 Build 0)  -->
<!DOCTYPE svg PUBLIC "-//W3C//DTD SVG 1.1//EN" "http://www.w3.org/Graphics/SVG/1.1/DTD/svg11.dtd">
<svg version="1.1"
	 id="svg2" inkscape:version="0.48.0 r9654" sodipodi:docname="7_of_clubs.svg" inkscape:export-xdpi="215.44792" inkscape:export-ydpi="215.44792" xmlns:dc="http://purl.org/dc/elements/1.1/" xmlns:cc="http://creativecommons.org/ns#" xmlns:rdf="http://www.w3.org/1999/02/22-rdf-syntax-ns#" xmlns:svg="http://www.w3.org/2000/svg" xmlns:sodipodi="http://sodipodi.sourceforge.net/DTD/sodipodi-0.dtd" xmlns:inkscape="http://www.inkscape.org/namespaces/inkscape" inkscape:export-filename="/home/byron/art/cards/final/PNGs/7_of_clubs.png"
	 xmlns="http://www.w3.org/2000/svg" xmlns:xlink="http://www.w3.org/1999/xlink" x="0px" y="0px" width="167.086px"
	 height="242.667px" viewBox="0 0 167.086 242.667" enable-background="new 0 0 167.086 242.667" xml:space="preserve">
<sodipodi:namedview  id="namedview39" inkscape:pageopacity="0" inkscape:pageshadow="2" inkscape:window-width="1680" inkscape:window-height="977" inkscape:window-x="0" inkscape:window-y="25" inkscape:current-layer="svg2" inkscape:cy="148.16686" bordercolor="#666666" showgrid="false" borderopacity="1" objecttolerance="10" inkscape:zoom="2.4336873" gridtolerance="10" guidetolerance="10" inkscape:cx="117.62976" pagecolor="#ffffff" inkscape:window-maximized="1">
	</sodipodi:namedview>
<g id="Layer_x0020_1">
	<path id="path5" fill="#FFFFFF" stroke="#000000" stroke-width="0.5" d="M166.836,235.548c0,3.777-3.086,6.869-6.871,6.869H7.111
		c-3.775,0-6.861-3.092-6.861-6.869V7.12c0-3.777,3.086-6.87,6.861-6.87h152.854c3.785,0,6.871,3.093,6.871,6.87V235.548z"/>
	<g id="g7">
		<g id="g9">
		</g>
	</g>
	<g id="g15">
	</g>
	<g id="g19">
	</g>
	<g id="g23">
		<g id="g25">
		</g>
	</g>
	<g id="g31">
		<g id="g33">
		</g>
	</g>
</g>
<text transform="matrix(1.1816 0 0 1 4.5 31.1426)" font-family="'ArialMT'" font-size="38.0433">7</text>
<g id="layer1-1-4" transform="matrix(1.4856506,0,0,1.4856506,-54.024661,10.018072)">
	<path id="cl-9" inkscape:connector-curvature="0" d="M49.598,24.253c0,0,1.767-1.415,1.767-3.373c0-1.147-1.019-3.052-3.373-3.052
		c-2.354,0-3.373,1.905-3.373,3.052c0,1.959,1.767,3.373,1.767,3.373c-1.962-1.53-5.461-0.485-5.461,2.57
		c0,1.53,1.25,3.212,3.212,3.212c2.355,0,3.373-2.57,3.373-2.57s0.299,2.93-1.445,4.498h3.855c-1.745-1.567-1.445-4.498-1.445-4.498
		s1.019,2.57,3.373,2.57c1.963,0,3.212-1.683,3.212-3.212C55.059,23.768,51.56,22.724,49.598,24.253z"/>
</g>
<text transform="matrix(-1.1816 0 0 -1 162.4649 210.8569)" font-family="'ArialMT'" font-size="38.0433">7</text>
<g id="layer1-1-4-1" transform="matrix(-1.4856506,0,0,-1.4856506,221.19916,232.46182)">
	<path id="cl-9-7" inkscape:connector-curvature="0" d="M49.739,24.266c0,0,1.766-1.413,1.766-3.372
		c0-1.148-1.018-3.051-3.373-3.051c-2.355,0-3.373,1.906-3.373,3.051c0,1.959,1.767,3.372,1.767,3.372
		c-1.963-1.528-5.462-0.484-5.462,2.571c0,1.53,1.25,3.212,3.213,3.212c2.355,0,3.373-2.57,3.373-2.57s0.299,2.93-1.445,4.499h3.855
		c-1.745-1.567-1.445-4.499-1.445-4.499s1.019,2.57,3.373,2.57c1.963,0,3.212-1.683,3.212-3.212
		C55.2,23.78,51.701,22.737,49.739,24.266z"/>
</g>
<g id="layer1-1-4-8" transform="matrix(2.5125778,0,0,2.5125778,-63.988386,-27.131116)">
	<path id="cl-9-8" inkscape:connector-curvature="0" d="M50.754,32.731c0,0,2.243-1.791,2.243-4.275
		c0-1.454-1.293-3.867-4.283-3.867s-4.283,2.415-4.283,3.867c0,2.483,2.243,4.275,2.243,4.275c-2.492-1.937-6.934-0.615-6.934,3.258
		c0,1.938,1.587,4.071,4.079,4.071c2.99,0,4.283-3.257,4.283-3.257s0.38,3.713-1.835,5.7h4.895c-2.215-1.986-1.835-5.7-1.835-5.7
		s1.293,3.257,4.283,3.257c2.493,0,4.079-2.134,4.079-4.071C57.689,32.116,53.246,30.793,50.754,32.731z"/>
</g>
<g id="layer1-1-4-8-0" transform="matrix(-2.5125778,0,0,-2.5125778,177.92954,269.27515)">
	<path id="cl-9-8-6" inkscape:connector-curvature="0" d="M49.591,29.949c0,0,2.243-1.791,2.243-4.275
		c0-1.454-1.293-3.867-4.283-3.867s-4.283,2.415-4.283,3.867c0,2.484,2.243,4.275,2.243,4.275c-2.492-1.938-6.935-0.615-6.935,3.257
		c0,1.938,1.587,4.071,4.079,4.071c2.99,0,4.283-3.257,4.283-3.257s0.38,3.713-1.835,5.7h4.895c-2.215-1.986-1.835-5.7-1.835-5.7
		s1.293,3.257,4.283,3.257c2.493,0,4.079-2.133,4.079-4.071C56.525,29.334,52.083,28.011,49.591,29.949z"/>
</g>
<g id="layer1-1-4-8-2" transform="matrix(2.5125778,0,0,2.5125778,-63.988386,63.369684)">
	<path id="cl-9-8-0" inkscape:connector-curvature="0" d="M50.754,30.671c0,0,2.243-1.792,2.243-4.275
		c0-1.454-1.293-3.868-4.283-3.868s-4.283,2.414-4.283,3.868c0,2.483,2.243,4.275,2.243,4.275c-2.492-1.938-6.934-0.614-6.934,3.257
		c0,1.939,1.587,4.071,4.079,4.071c2.99,0,4.283-3.258,4.283-3.258s0.38,3.713-1.835,5.701h4.895
		c-2.215-1.986-1.835-5.701-1.835-5.701S50.62,38,53.61,38c2.493,0,4.079-2.133,4.079-4.071
		C57.689,30.057,53.246,28.734,50.754,30.671z"/>
</g>
<g id="layer1-1-4-8-8" transform="matrix(2.5125778,0,0,2.5125778,-11.20333,-27.304844)">
	<path id="cl-9-8-9" inkscape:connector-curvature="0" d="M49.591,32.735c0,0,2.244-1.791,2.244-4.275
		c0-1.454-1.293-3.868-4.283-3.868c-2.99,0-4.283,2.415-4.283,3.868c0,2.483,2.243,4.275,2.243,4.275
		c-2.492-1.938-6.935-0.615-6.935,3.257c0,1.938,1.587,4.071,4.079,4.071c2.99,0,4.283-3.257,4.283-3.257s0.38,3.713-1.835,5.7
		h4.895c-2.215-1.987-1.835-5.7-1.835-5.7s1.293,3.257,4.283,3.257c2.493,0,4.079-2.134,4.079-4.071
		C56.525,32.12,52.083,30.797,49.591,32.735z"/>
</g>
<g id="layer1-1-4-8-0-2" transform="matrix(-2.5125778,0,0,-2.5125778,230.7146,269.10142)">
	<path id="cl-9-8-6-6" inkscape:connector-curvature="0" d="M50.754,29.945c0,0,2.244-1.791,2.244-4.275
		c0-1.454-1.293-3.867-4.283-3.867s-4.283,2.414-4.283,3.867c0,2.484,2.243,4.275,2.243,4.275c-2.492-1.938-6.934-0.615-6.934,3.257
		c0,1.939,1.587,4.071,4.079,4.071c2.99,0,4.283-3.257,4.283-3.257s0.38,3.713-1.835,5.7h4.895c-2.215-1.986-1.836-5.7-1.836-5.7
		s1.293,3.257,4.283,3.257c2.493,0,4.079-2.133,4.079-4.071C57.688,29.33,53.246,28.007,50.754,29.945z"/>
</g>
<g id="layer1-1-4-8-2-6" transform="matrix(2.5125778,0,0,2.5125778,-11.20333,63.195956)">
	<path id="cl-9-8-0-4" inkscape:connector-curvature="0" d="M49.591,30.675c0,0,2.244-1.792,2.244-4.275
		c0-1.454-1.293-3.868-4.283-3.868c-2.99,0-4.283,2.415-4.283,3.868c0,2.483,2.243,4.275,2.243,4.275
		c-2.492-1.938-6.935-0.614-6.935,3.257c0,1.938,1.587,4.071,4.079,4.071c2.99,0,4.283-3.257,4.283-3.257s0.38,3.713-1.835,5.7
		h4.895c-2.215-1.986-1.835-5.7-1.835-5.7s1.293,3.257,4.283,3.257c2.493,0,4.079-2.133,4.079-4.071
		C56.525,30.061,52.083,28.738,49.591,30.675z"/>
</g>
<g id="layer1-1-4-8-6" transform="matrix(2.5125778,0,0,2.5125778,-38.055702,18.622356)">
	<path id="cl-9-8-8" inkscape:connector-curvature="0" d="M50.183,31.689c0,0,2.243-1.791,2.243-4.275
		c0-1.454-1.293-3.867-4.283-3.867s-4.283,2.414-4.283,3.867c0,2.483,2.244,4.275,2.244,4.275c-2.492-1.938-6.935-0.615-6.935,3.257
		c0,1.938,1.587,4.071,4.079,4.071c2.99,0,4.283-3.257,4.283-3.257s0.38,3.713-1.835,5.7h4.895c-2.215-1.986-1.836-5.7-1.836-5.7
		s1.293,3.257,4.283,3.257c2.493,0,4.079-2.134,4.079-4.071C57.117,31.075,52.675,29.752,50.183,31.689z"/>
</g>
</svg>
