<?xml version="1.0" encoding="utf-8"?>
<!-- Generator: Adobe Illustrator 16.0.0, SVG Export Plug-In . SVG Version: 6.00 Build 0)  -->
<!DOCTYPE svg PUBLIC "-//W3C//DTD SVG 1.1//EN" "http://www.w3.org/Graphics/SVG/1.1/DTD/svg11.dtd">
<svg version="1.1"
	 id="svg2" inkscape:version="0.48.0 r9654" sodipodi:docname="7_of_diamonds.svg" inkscape:export-xdpi="215.44792" inkscape:export-ydpi="215.44792" xmlns:dc="http://purl.org/dc/elements/1.1/" xmlns:cc="http://creativecommons.org/ns#" xmlns:rdf="http://www.w3.org/1999/02/22-rdf-syntax-ns#" xmlns:svg="http://www.w3.org/2000/svg" xmlns:sodipodi="http://sodipodi.sourceforge.net/DTD/sodipodi-0.dtd" xmlns:inkscape="http://www.inkscape.org/namespaces/inkscape" inkscape:export-filename="/home/byron/art/cards/final/PNGs/7_of_diamonds.png"
	 xmlns="http://www.w3.org/2000/svg" xmlns:xlink="http://www.w3.org/1999/xlink" x="0px" y="0px" width="167.086px"
	 height="242.667px" viewBox="0 0 167.086 242.667" enable-background="new 0 0 167.086 242.667" xml:space="preserve">
<sodipodi:namedview  id="namedview39" inkscape:pageopacity="0" inkscape:pageshadow="2" inkscape:window-width="1680" inkscape:window-height="977" inkscape:window-x="0" inkscape:window-y="25" inkscape:current-layer="svg2" inkscape:cy="147.27218" bordercolor="#666666" showgrid="false" borderopacity="1" objecttolerance="10" inkscape:zoom="1.7208768" gridtolerance="10" guidetolerance="10" inkscape:cx="72.124594" pagecolor="#ffffff" inkscape:window-maximized="1">
	</sodipodi:namedview>
<g id="Layer_x0020_1">
	<path id="path5" fill="#FFFFFF" stroke="#000000" stroke-width="0.5" d="M166.836,235.548c0,3.777-3.086,6.869-6.871,6.869H7.111
		c-3.775,0-6.861-3.092-6.861-6.869V7.12c0-3.777,3.086-6.87,6.861-6.87h152.854c3.785,0,6.871,3.093,6.871,6.87V235.548z"/>
	<g id="g7">
		<g id="g9">
		</g>
	</g>
	<g id="g15">
	</g>
	<g id="g19">
	</g>
	<g id="g23">
		<g id="g25">
		</g>
	</g>
	<g id="g31">
		<g id="g33">
		</g>
	</g>
</g>
<text transform="matrix(1.1816 0 0 1 4.5 30.9683)" fill="#DF0000" font-family="'ArialMT'" font-size="38.0433">7</text>
<text transform="matrix(-1.1816 0 0 -1 163.0879 213.105)" fill="#DF0000" font-family="'ArialMT'" font-size="38.0433">7</text>
<g id="layer1-2-6" transform="matrix(1.4769065,0,0,1.4769065,16.968095,44.236162)">
	<path id="dl-6" inkscape:connector-curvature="0" sodipodi:nodetypes="ccccccccc" fill="#DF0000" d="M3.055-1.207
		c-1.881-1.939-2.882-3.91-2.882-3.91s-1.001,1.971-2.882,3.91c-1.882,1.939-4.227,3.2-4.227,3.2s2.345,1.26,4.227,3.2
		c1.881,1.938,2.882,3.909,2.882,3.909s1.001-1.971,2.882-3.91c1.882-1.94,4.227-3.2,4.227-3.2S4.937,0.731,3.055-1.207z"/>
</g>
<g id="layer1-2-6-4" transform="matrix(1.4769065,0,0,1.4769065,150.62089,198.50346)">
	<path id="dl-6-9" inkscape:connector-curvature="0" sodipodi:nodetypes="ccccccccc" fill="#DF0000" d="M2.882-4.553
		C1-6.493,0-8.464,0-8.464s-1.001,1.97-2.883,3.91c-1.881,1.939-4.227,3.2-4.227,3.2s2.345,1.26,4.227,3.2
		C-1.001,3.785,0,5.755,0,5.755s1-1.97,2.882-3.909c1.882-1.94,4.227-3.2,4.227-3.2S4.765-2.615,2.882-4.553z"/>
</g>
<g id="layer1-2-6-8" transform="matrix(2.5882908,0,0,2.5882908,111.72873,193.62194)">
	<path id="dl-6-8" inkscape:connector-curvature="0" sodipodi:nodetypes="ccccccccc" fill="#DF0000" d="M2.703-9.015
		c-2.037-2.804-3.121-5.653-3.121-5.653s-1.084,2.849-3.121,5.653C-5.577-6.213-8.116-4.39-8.116-4.39s2.539,1.822,4.577,4.626
		c2.037,2.803,3.121,5.652,3.121,5.652s1.084-2.849,3.121-5.652C4.741-2.568,7.28-4.39,7.28-4.39S4.741-6.213,2.703-9.015z"/>
</g>
<g id="layer1-2-6-8-2" transform="matrix(2.5882908,0,0,2.5882908,111.72873,49.219539)">
	<path id="dl-6-8-6" inkscape:connector-curvature="0" sodipodi:nodetypes="ccccccccc" fill="#DF0000" d="M2.703-2.167
		C0.666-4.97-0.418-7.82-0.418-7.82s-1.084,2.85-3.121,5.653c-2.038,2.803-4.577,4.626-4.577,4.626s2.539,1.822,4.577,4.627
		c2.037,2.803,3.121,5.652,3.121,5.652s1.084-2.849,3.121-5.652C4.741,4.281,7.28,2.459,7.28,2.459S4.741,0.636,2.703-2.167z"/>
</g>
<g id="layer1-2-6-8-2-8" transform="matrix(2.5882908,0,0,2.5882908,111.72873,120.52034)">
	<path id="dl-6-8-6-8" inkscape:connector-curvature="0" sodipodi:nodetypes="ccccccccc" fill="#DF0000" d="M2.703-2.747
		C0.666-5.551-0.418-8.4-0.418-8.4s-1.084,2.849-3.121,5.653c-2.038,2.803-4.577,4.626-4.577,4.626S-5.577,3.7-3.539,6.505
		c2.037,2.803,3.121,5.652,3.121,5.652s1.084-2.849,3.121-5.652C4.741,3.7,7.28,1.879,7.28,1.879S4.741,0.056,2.703-2.747z"/>
</g>
<g id="layer1-2-6-8-8" transform="matrix(2.5882908,0,0,2.5882908,54.413391,193.74005)">
	<path id="dl-6-8-8" inkscape:connector-curvature="0" sodipodi:nodetypes="ccccccccc" fill="#DF0000" d="M3.539-9.017
		C1.502-11.82,0.418-14.67,0.418-14.67s-1.084,2.849-3.121,5.653C-4.741-6.214-7.28-4.391-7.28-4.391s2.539,1.823,4.577,4.627
		c2.037,2.803,3.121,5.652,3.121,5.652s1.084-2.849,3.121-5.652c2.038-2.804,4.577-4.627,4.577-4.627S5.577-6.214,3.539-9.017z"/>
</g>
<g id="layer1-2-6-8-2-4" transform="matrix(2.5882908,0,0,2.5882908,54.413391,49.337663)">
	<path id="dl-6-8-6-3" inkscape:connector-curvature="0" sodipodi:nodetypes="ccccccccc" fill="#DF0000" d="M3.539-2.168
		C1.502-4.971,0.418-7.821,0.418-7.821s-1.084,2.849-3.121,5.653C-4.741,0.635-7.28,2.458-7.28,2.458s2.539,1.822,4.577,4.627
		c2.037,2.803,3.121,5.652,3.121,5.652s1.084-2.849,3.121-5.652C5.577,4.28,8.116,2.458,8.116,2.458S5.577,0.635,3.539-2.168z"/>
</g>
<g id="layer1-2-6-8-2-8-1" transform="matrix(2.5882908,0,0,2.5882908,54.413391,120.63845)">
	<path id="dl-6-8-6-8-4" inkscape:connector-curvature="0" sodipodi:nodetypes="ccccccccc" fill="#DF0000" d="M3.539-2.748
		C1.502-5.552,0.418-8.401,0.418-8.401s-1.084,2.849-3.121,5.653C-4.741,0.055-7.28,1.877-7.28,1.877S-4.741,3.7-2.703,6.504
		c2.037,2.803,3.121,5.652,3.121,5.652s1.084-2.85,3.121-5.652C5.577,3.7,8.116,1.877,8.116,1.877S5.577,0.055,3.539-2.748z"/>
</g>
<g id="layer1-2-6-8-2-4-8" transform="matrix(2.5882908,0,0,2.5882908,83.213393,85.53779)">
	<path id="dl-6-8-6-3-8" inkscape:connector-curvature="0" sodipodi:nodetypes="ccccccccc" fill="#DF0000" d="M3.119-2.463
		C1.082-5.266-0.002-8.115-0.002-8.115s-1.084,2.849-3.121,5.653C-5.161,0.34-7.7,2.163-7.7,2.163s2.539,1.822,4.577,4.627
		c2.037,2.803,3.121,5.652,3.121,5.652S1.082,9.593,3.119,6.79c2.038-2.805,4.577-4.627,4.577-4.627S5.157,0.34,3.119-2.463z"/>
</g>
</svg>
