<?xml version="1.0" encoding="utf-8"?>
<!-- Generator: Adobe Illustrator 16.0.0, SVG Export Plug-In . SVG Version: 6.00 Build 0)  -->
<!DOCTYPE svg PUBLIC "-//W3C//DTD SVG 1.1//EN" "http://www.w3.org/Graphics/SVG/1.1/DTD/svg11.dtd">
<svg version="1.1"
	 id="svg2" inkscape:version="0.48.0 r9654" sodipodi:docname="3_of_spades.svg" inkscape:export-xdpi="215.44792" inkscape:export-ydpi="215.44792" xmlns:dc="http://purl.org/dc/elements/1.1/" xmlns:cc="http://creativecommons.org/ns#" xmlns:rdf="http://www.w3.org/1999/02/22-rdf-syntax-ns#" xmlns:svg="http://www.w3.org/2000/svg" xmlns:sodipodi="http://sodipodi.sourceforge.net/DTD/sodipodi-0.dtd" xmlns:inkscape="http://www.inkscape.org/namespaces/inkscape" inkscape:export-filename="/home/byron/art/cards/final/PNGs/3_of_spades.png"
	 xmlns="http://www.w3.org/2000/svg" xmlns:xlink="http://www.w3.org/1999/xlink" x="0px" y="0px" width="167.086px"
	 height="242.667px" viewBox="0 0 167.086 242.667" enable-background="new 0 0 167.086 242.667" xml:space="preserve">
<sodipodi:namedview  id="namedview39" inkscape:pageopacity="0" inkscape:pageshadow="2" inkscape:window-width="1680" inkscape:window-height="977" inkscape:window-x="0" inkscape:window-y="25" inkscape:current-layer="svg2" inkscape:cy="157.08206" bordercolor="#666666" showgrid="false" borderopacity="1" objecttolerance="10" inkscape:zoom="2.4336873" gridtolerance="10" guidetolerance="10" inkscape:cx="106.02254" pagecolor="#ffffff" inkscape:window-maximized="1">
	</sodipodi:namedview>
<g id="Layer_x0020_1">
	<path id="path5" fill="#FFFFFF" stroke="#000000" stroke-width="0.5" d="M166.836,235.548c0,3.777-3.086,6.869-6.871,6.869H7.111
		c-3.775,0-6.861-3.092-6.861-6.869V7.12c0-3.777,3.086-6.87,6.861-6.87h152.854c3.785,0,6.871,3.093,6.871,6.87V235.548z"/>
	<g id="g7">
		<g id="g9">
		</g>
	</g>
	<g id="g15">
	</g>
	<g id="g19">
	</g>
	<g id="g23">
		<g id="g25">
		</g>
	</g>
	<g id="g31">
		<g id="g33">
		</g>
	</g>
</g>
<text transform="matrix(1.1816 0 0 1 4.5005 31.6436)" font-family="'ArialMT'" font-size="38.0433">3</text>
<g id="layer1-7" transform="matrix(1.5085945,0,0,1.3793253,16.929104,45.065897)">
	<path id="sl" inkscape:connector-curvature="0" sodipodi:nodetypes="cccccccccc" d="M6.656,3.291
		C6.445,0.35-0.085-5.185-0.295-6.571c-0.211,1.384-6.74,6.92-6.951,9.862c-0.147,2.079,1.475,2.941,2.95,2.941
		c1.597-0.016,2.915-2.031,3.369-2.422c0.21,0.519-1.395,4.844-1.896,4.844h5.056c-0.501,0-2.106-4.325-1.896-4.844
		c0.398,0.36,1.564,2.362,3.371,2.422C5.182,6.231,6.803,5.37,6.656,3.291z"/>
</g>
<g id="layer1-7-88" transform="matrix(2.6486789,0,0,2.4217176,83.41089,49.365995)">
	<path id="sl-4" inkscape:connector-curvature="0" sodipodi:nodetypes="cccccccccc" d="M7.989,3.103C7.747-0.954,0.242-8.59,0-10.5
		C-0.242-8.591-7.747-0.955-7.989,3.103C-8.158,5.971-6.294,7.16-4.599,7.16c1.835-0.022,3.351-2.801,3.873-3.341
		c0.242,0.716-1.603,6.682-2.179,6.682h5.811c-0.576,0-2.421-5.966-2.179-6.682C1.184,4.315,2.524,7.077,4.601,7.16
		C6.295,7.159,8.158,5.971,7.989,3.103z"/>
</g>
<text transform="matrix(-1.1816 0 0 -1 162.5762 212.5132)" font-family="'ArialMT'" font-size="38.0433">3</text>
<g id="layer1-7-3" transform="matrix(-1.5085945,0,0,-1.3793253,150.22511,198.04408)">
	<path id="sl-1" inkscape:connector-curvature="0" sodipodi:nodetypes="cccccccccc" d="M6.951,2.975C6.74,0.034,0.21-5.502,0-6.887
		c-0.21,1.384-6.74,6.92-6.951,9.862c-0.146,2.079,1.475,2.942,2.949,2.942C-2.405,5.9-1.086,3.886-0.632,3.494
		c0.21,0.518-1.394,4.843-1.896,4.843h5.056c-0.5,0-2.105-4.325-1.895-4.843c0.397,0.36,1.564,2.362,3.371,2.423
		C5.476,5.915,7.097,5.054,6.951,2.975z"/>
</g>
<g id="layer1-7-88-7" transform="matrix(-2.6486789,0,0,-2.4217176,83.45613,193.77132)">
	<path id="sl-4-5" inkscape:connector-curvature="0" sodipodi:nodetypes="cccccccccc" d="M7.989,3.103
		C7.747-0.954,0.242-8.59,0-10.5C-0.242-8.591-7.747-0.955-7.989,3.103C-8.158,5.971-6.294,7.16-4.599,7.16
		c1.835-0.023,3.351-2.801,3.873-3.341c0.242,0.716-1.603,6.682-2.179,6.682h5.811c-0.576,0-2.421-5.966-2.179-6.682
		C1.184,4.315,2.524,7.077,4.601,7.16C6.295,7.159,8.158,5.971,7.989,3.103z"/>
</g>
<g id="layer1-7-88-6" transform="matrix(2.6486789,0,0,2.4217176,83.494697,119.06732)">
	<path id="sl-4-8" inkscape:connector-curvature="0" sodipodi:nodetypes="cccccccccc" d="M7.989,3.103
		C7.747-0.954,0.242-8.59,0-10.5C-0.242-8.591-7.747-0.955-7.989,3.103C-8.158,5.971-6.294,7.16-4.599,7.16
		c1.835-0.021,3.351-2.801,3.873-3.341c0.242,0.716-1.603,6.682-2.179,6.682h5.811c-0.576,0-2.421-5.966-2.179-6.682
		C1.184,4.315,2.524,7.077,4.601,7.16C6.295,7.159,8.158,5.971,7.989,3.103z"/>
</g>
</svg>
