<?xml version="1.0" encoding="utf-8"?>
<!-- Generator: Adobe Illustrator 16.0.0, SVG Export Plug-In . SVG Version: 6.00 Build 0)  -->
<!DOCTYPE svg PUBLIC "-//W3C//DTD SVG 1.1//EN" "http://www.w3.org/Graphics/SVG/1.1/DTD/svg11.dtd">
<svg version="1.1"
	 id="svg2" inkscape:version="0.48.0 r9654" sodipodi:docname="10_of_spades.svg" inkscape:export-xdpi="215.44792" inkscape:export-ydpi="215.44792" xmlns:dc="http://purl.org/dc/elements/1.1/" xmlns:cc="http://creativecommons.org/ns#" xmlns:rdf="http://www.w3.org/1999/02/22-rdf-syntax-ns#" xmlns:svg="http://www.w3.org/2000/svg" xmlns:sodipodi="http://sodipodi.sourceforge.net/DTD/sodipodi-0.dtd" xmlns:inkscape="http://www.inkscape.org/namespaces/inkscape" inkscape:export-filename="/home/byron/art/cards/final/PNGs/10_of_spades.png"
	 xmlns="http://www.w3.org/2000/svg" xmlns:xlink="http://www.w3.org/1999/xlink" x="0px" y="0px" width="167.086px"
	 height="242.667px" viewBox="0 0 167.086 242.667" enable-background="new 0 0 167.086 242.667" xml:space="preserve">
<sodipodi:namedview  id="namedview39" inkscape:pageopacity="0" inkscape:pageshadow="2" inkscape:window-width="1680" inkscape:window-height="977" inkscape:window-x="0" inkscape:window-y="25" inkscape:current-layer="svg2" inkscape:cy="157.08206" bordercolor="#666666" showgrid="false" borderopacity="1" objecttolerance="10" inkscape:zoom="2.4336873" gridtolerance="10" guidetolerance="10" inkscape:cx="106.02254" pagecolor="#ffffff" inkscape:window-maximized="1">
	</sodipodi:namedview>
<g id="Layer_x0020_1">
	<path id="path5" fill="#FFFFFF" stroke="#000000" stroke-width="0.5" d="M166.836,235.548c0,3.777-3.086,6.869-6.871,6.869H7.111
		c-3.775,0-6.861-3.092-6.861-6.869V7.12c0-3.777,3.086-6.87,6.861-6.87h152.854c3.785,0,6.871,3.093,6.871,6.87V235.548z"/>
	<g id="g7">
		<g id="g9">
		</g>
	</g>
	<g id="g15">
	</g>
	<g id="g19">
	</g>
	<g id="g23">
		<g id="g25">
		</g>
	</g>
	<g id="g31">
		<g id="g33">
		</g>
	</g>
</g>
<text transform="matrix(0.708 0 0 1 4.5 31.3188)" font-family="'ArialMT'" font-size="37.7154">1</text>
<g id="layer1-7" transform="matrix(1.5085945,0,0,1.3793253,16.929041,45.065897)">
	<path id="sl" inkscape:connector-curvature="0" sodipodi:nodetypes="cccccccccc" d="M8.261,3.324
		C8.051,0.383,1.52-5.153,1.311-6.538C1.1-5.154-5.429,0.381-5.64,3.323c-0.147,2.079,1.475,2.941,2.95,2.941
		c1.597-0.016,2.915-2.03,3.369-2.422c0.21,0.519-1.395,4.844-1.896,4.844h5.056c-0.501,0-2.106-4.325-1.896-4.844
		c0.398,0.36,1.564,2.362,3.371,2.422C6.787,6.264,8.409,5.403,8.261,3.324z"/>
</g>
<g id="layer1-7-88" transform="matrix(2.6486789,0,0,2.4217176,53.01089,31.765995)">
	<path id="sl-4" inkscape:connector-curvature="0" sodipodi:nodetypes="cccccccccc" d="M8.36,10.763
		C8.142,7.615,1.359,1.689,1.141,0.207C0.922,1.688-5.86,7.614-6.079,10.763c-0.153,2.226,1.532,3.148,3.064,3.148
		c1.659-0.017,3.028-2.173,3.5-2.593c0.219,0.556-1.448,5.185-1.969,5.185h5.252c-0.521,0-2.188-4.63-1.969-5.185
		c0.413,0.385,1.624,2.528,3.501,2.593C6.83,13.911,8.513,12.989,8.36,10.763z"/>
</g>
<g id="layer1-7-3" transform="matrix(-1.5085945,0,0,-1.3793253,150.22511,198.04408)">
	<path id="sl-1" inkscape:connector-curvature="0" sodipodi:nodetypes="cccccccccc" d="M6.951,3.7C6.74,0.759,0.21-4.777,0-6.162
		C-0.21-4.778-6.74,0.758-6.951,3.7c-0.146,2.079,1.475,2.942,2.949,2.942c1.596-0.016,2.917-2.031,3.369-2.423
		c0.21,0.518-1.394,4.844-1.896,4.844h5.056c-0.5,0-2.105-4.326-1.895-4.844c0.397,0.36,1.564,2.362,3.371,2.423
		C5.476,6.64,7.097,5.779,6.951,3.7z"/>
</g>
<g id="layer1-7-88-8" transform="matrix(2.6486789,0,0,2.4217176,53.339713,94.698498)">
	<path id="sl-4-8" inkscape:connector-curvature="0" sodipodi:nodetypes="cccccccccc" d="M8.348,4.944
		C8.13,1.795,1.347-4.131,1.129-5.613C0.91-4.131-5.872,1.795-6.091,4.944C-6.244,7.17-4.559,8.092-3.028,8.092
		C-1.369,8.075,0,5.918,0.472,5.499c0.219,0.556-1.449,5.185-1.969,5.185h5.251c-0.52,0-2.188-4.63-1.969-5.185
		C2.199,5.885,3.41,8.028,5.287,8.092C6.817,8.092,8.501,7.17,8.348,4.944z"/>
</g>
<g id="layer1-7-88-4" transform="matrix(-2.6486789,0,0,-2.4217176,53.789261,212.66394)">
	<path id="sl-4-3" inkscape:connector-curvature="0" sodipodi:nodetypes="cccccccccc" d="M6.107,10.781
		C5.889,7.632-0.894,1.706-1.112,0.224c-0.219,1.482-7.001,7.407-7.22,10.556c-0.153,2.226,1.532,3.15,3.064,3.15
		c1.658-0.017,3.028-2.174,3.5-2.593c0.219,0.556-1.449,5.186-1.969,5.186h5.252c-0.521,0-2.188-4.63-1.969-5.186
		c0.413,0.386,1.624,2.528,3.501,2.593C4.577,13.928,6.26,13.006,6.107,10.781z"/>
</g>
<g id="layer1-7-88-8-1" transform="matrix(-2.6486789,0,0,-2.4217176,53.460438,151.33144)">
	<path id="sl-4-8-4" inkscape:connector-curvature="0" sodipodi:nodetypes="cccccccccc" d="M6.096,5.109
		C5.877,1.961-0.906-3.965-1.124-5.447C-1.343-3.966-8.125,1.96-8.344,5.109C-8.497,7.335-6.812,8.258-5.28,8.258
		c1.658-0.017,3.028-2.174,3.5-2.593c0.219,0.556-1.449,5.186-1.969,5.186h5.252c-0.521,0-2.188-4.63-1.969-5.186
		c0.413,0.386,1.624,2.528,3.501,2.593C4.564,8.257,6.248,7.335,6.096,5.109z"/>
</g>
<g id="layer1-7-88-9" transform="matrix(2.6486789,0,0,2.4217176,114.97822,31.578035)">
	<path id="sl-4-2" inkscape:connector-curvature="0" sodipodi:nodetypes="cccccccccc" d="M6.108,10.781
		C5.889,7.632-0.893,1.706-1.112,0.224c-0.219,1.482-7.001,7.408-7.219,10.557c-0.153,2.226,1.532,3.148,3.064,3.148
		c1.658-0.017,3.028-2.173,3.5-2.593c0.219,0.556-1.449,5.186-1.969,5.186h5.251c-0.521,0-2.188-4.63-1.969-5.186
		c0.413,0.385,1.624,2.528,3.501,2.593C4.577,13.929,6.26,13.007,6.108,10.781z"/>
</g>
<g id="layer1-7-88-8-0" transform="matrix(2.6486789,0,0,2.4217176,115.30704,94.510535)">
	<path id="sl-4-8-6" inkscape:connector-curvature="0" sodipodi:nodetypes="cccccccccc" d="M6.095,4.961
		C5.877,1.813-0.906-4.113-1.124-5.595c-0.219,1.482-7.001,7.408-7.22,10.557C-8.497,7.187-6.812,8.11-5.28,8.11
		c1.659-0.017,3.028-2.174,3.5-2.593c0.219,0.556-1.449,5.186-1.969,5.186h5.252c-0.521,0-2.188-4.63-1.969-5.186
		c0.413,0.385,1.624,2.528,3.501,2.593C4.565,8.109,6.248,7.187,6.095,4.961z"/>
</g>
<g id="layer1-7-88-4-8" transform="matrix(-2.6486789,0,0,-2.4217176,115.75659,212.47597)">
	<path id="sl-4-3-9" inkscape:connector-curvature="0" sodipodi:nodetypes="cccccccccc" d="M8.36,10.764
		C8.142,7.615,1.359,1.689,1.141,0.207C0.922,1.688-5.86,7.614-6.079,10.764c-0.153,2.226,1.532,3.149,3.064,3.149
		c1.658-0.017,3.028-2.174,3.5-2.593c0.219,0.556-1.448,5.186-1.969,5.186h5.252c-0.521,0-2.188-4.63-1.969-5.186
		c0.413,0.386,1.624,2.529,3.501,2.593C6.83,13.911,8.513,12.99,8.36,10.764z"/>
</g>
<g id="layer1-7-88-8-1-2" transform="matrix(-2.6486789,0,0,-2.4217176,115.42777,151.14347)">
	<path id="sl-4-8-4-6" inkscape:connector-curvature="0" sodipodi:nodetypes="cccccccccc" d="M8.348,5.092
		C8.13,1.943,1.347-3.982,1.128-5.465C0.91-3.984-5.873,1.943-6.091,5.092C-6.244,7.318-4.559,8.24-3.028,8.24
		C-1.37,8.223,0,6.067,0.472,5.647c0.219,0.555-1.449,5.186-1.969,5.186h5.251c-0.52,0-2.188-4.631-1.969-5.186
		C2.199,6.033,3.41,8.176,5.287,8.24C6.817,8.24,8.501,7.318,8.348,5.092z"/>
</g>
<g id="layer1-7-88-6" transform="matrix(2.6486789,0,0,2.4217176,84.152135,64.171198)">
	<path id="sl-4-4" inkscape:connector-curvature="0" sodipodi:nodetypes="cccccccccc" d="M7.228,7.767
		C7.01,4.618,0.227-1.308,0.009-2.79C-0.21-1.308-6.993,4.618-7.211,7.767c-0.153,2.226,1.532,3.149,3.064,3.149
		c1.658-0.017,3.028-2.174,3.5-2.593c0.219,0.556-1.449,5.185-1.969,5.185h5.252c-0.521,0-2.188-4.63-1.969-5.185
		c0.413,0.385,1.624,2.528,3.501,2.593C5.697,10.914,7.381,9.993,7.228,7.767z"/>
</g>
<g id="layer1-7-88-6-6" transform="matrix(-2.6486789,0,0,-2.4217176,84.480868,180.54025)">
	<path id="sl-4-4-8" inkscape:connector-curvature="0" sodipodi:nodetypes="cccccccccc" d="M7.223,7.81
		C7.005,4.661,0.222-1.264,0.004-2.746C-0.215-1.265-6.998,4.661-7.216,7.81c-0.153,2.226,1.532,3.149,3.064,3.149
		c1.658-0.017,3.028-2.174,3.5-2.593c0.219,0.556-1.448,5.186-1.969,5.186H2.63c-0.521,0-2.188-4.63-1.969-5.186
		c0.413,0.386,1.624,2.528,3.501,2.593C5.692,10.958,7.376,10.036,7.223,7.81z"/>
</g>
<text transform="matrix(0.708 0 0 1 14.6493 31.7065)" font-family="'ArialMT'" font-size="37.7154">0</text>
<text transform="matrix(-0.708 0 0 -1 164.3583 211.0894)" font-family="'ArialMT'" font-size="37.7145">1</text>
<text transform="matrix(-0.708 0 0 -1 154.2079 210.6987)" font-family="'ArialMT'" font-size="37.7145">0</text>
</svg>
