<?xml version="1.0" encoding="utf-8"?>
<!-- Generator: Adobe Illustrator 16.0.0, SVG Export Plug-In . SVG Version: 6.00 Build 0)  -->
<!DOCTYPE svg PUBLIC "-//W3C//DTD SVG 1.1//EN" "http://www.w3.org/Graphics/SVG/1.1/DTD/svg11.dtd">
<svg version="1.1"
	 id="svg2" inkscape:export-ydpi="215.44792" inkscape:export-xdpi="215.44792" sodipodi:docname="9_of_clubs.svg" inkscape:version="0.48.0 r9654" xmlns:dc="http://purl.org/dc/elements/1.1/" xmlns:cc="http://creativecommons.org/ns#" xmlns:rdf="http://www.w3.org/1999/02/22-rdf-syntax-ns#" xmlns:svg="http://www.w3.org/2000/svg" xmlns:sodipodi="http://sodipodi.sourceforge.net/DTD/sodipodi-0.dtd" xmlns:inkscape="http://www.inkscape.org/namespaces/inkscape" inkscape:export-filename="/home/byron/art/cards/final/PNGs/9_of_clubs.png"
	 xmlns="http://www.w3.org/2000/svg" xmlns:xlink="http://www.w3.org/1999/xlink" x="0px" y="0px" width="167.086px"
	 height="242.667px" viewBox="0 0 167.086 242.667" enable-background="new 0 0 167.086 242.667" xml:space="preserve">
<sodipodi:namedview  id="namedview39" inkscape:current-layer="svg2" inkscape:window-y="25" inkscape:window-x="0" inkscape:window-height="977" inkscape:window-width="1680" inkscape:pageshadow="2" inkscape:pageopacity="0" inkscape:cy="148.16686" inkscape:cx="117.62976" guidetolerance="10" gridtolerance="10" inkscape:zoom="2.4336873" objecttolerance="10" borderopacity="1" showgrid="false" bordercolor="#666666" pagecolor="#ffffff" inkscape:window-maximized="1">
	</sodipodi:namedview>
<g id="Layer_x0020_1">
	<path id="path5" fill="#FFFFFF" stroke="#000000" stroke-width="0.5" d="M166.836,235.548c0,3.777-3.086,6.869-6.871,6.869H7.111
		c-3.775,0-6.861-3.092-6.861-6.869V7.12c0-3.777,3.086-6.87,6.861-6.87h152.854c3.785,0,6.871,3.093,6.871,6.87V235.548z"/>
	<g id="g7">
		<g id="g9">
		</g>
	</g>
	<g id="g15">
	</g>
	<g id="g19">
	</g>
	<g id="g23">
		<g id="g25">
		</g>
	</g>
	<g id="g31">
		<g id="g33">
		</g>
	</g>
</g>
<text transform="matrix(1.1816 0 0 1 4.5 35.147)" font-family="'ArialMT'" font-size="38.0433">9</text>
<g id="layer1-1-4" transform="matrix(1.4856506,0,0,1.4856506,-54.024661,10.018072)">
	<path id="cl-9" inkscape:connector-curvature="0" d="M49.598,27.616c0,0,1.767-1.415,1.767-3.373c0-1.147-1.019-3.052-3.373-3.052
		c-2.354,0-3.373,1.905-3.373,3.052c0,1.959,1.767,3.373,1.767,3.373c-1.962-1.53-5.461-0.485-5.461,2.57
		c0,1.53,1.25,3.212,3.212,3.212c2.355,0,3.373-2.57,3.373-2.57s0.299,2.93-1.445,4.498h3.855c-1.745-1.567-1.445-4.498-1.445-4.498
		s1.019,2.57,3.373,2.57c1.963,0,3.212-1.683,3.212-3.212C55.059,27.131,51.56,26.087,49.598,27.616z"/>
</g>
<text transform="matrix(-1.1816 0 0 -1 162.5 209.853)" font-family="'ArialMT'" font-size="38.0433">9</text>
<g id="layer1-1-4-1" transform="matrix(-1.4856506,0,0,-1.4856506,221.19916,232.46182)">
	<path id="cl-9-7" inkscape:connector-curvature="0" d="M49.531,25.92c0,0,1.767-1.413,1.767-3.373c0-1.147-1.019-3.051-3.373-3.051
		c-2.355,0-3.373,1.906-3.373,3.051c0,1.96,1.767,3.373,1.767,3.373c-1.963-1.53-5.461-0.485-5.461,2.57
		c0,1.53,1.249,3.212,3.213,3.212c2.355,0,3.372-2.57,3.372-2.57s0.3,2.929-1.445,4.497h3.855c-1.745-1.567-1.445-4.497-1.445-4.497
		s1.019,2.57,3.373,2.57c1.963,0,3.212-1.683,3.212-3.212C54.992,25.435,51.494,24.391,49.531,25.92z"/>
</g>
<path id="cl-9-8" inkscape:connector-curvature="0" d="M61.629,48.102c0,0,5.045-3.634,5.045-8.673c0-2.949-2.908-7.846-9.631-7.846
	s-9.631,4.898-9.631,7.846c0,5.039,5.045,8.673,5.045,8.673c-5.604-3.931-15.594-1.247-15.594,6.608c0,3.933,3.569,8.26,9.172,8.26
	c6.723,0,9.631-6.609,9.631-6.609s0.854,7.533-4.127,11.564h11.007c-4.981-4.03-4.127-11.564-4.127-11.564s2.908,6.609,9.631,6.609
	c5.605,0,9.172-4.329,9.172-8.26C77.223,46.855,67.233,44.171,61.629,48.102L61.629,48.102z"/>
<path id="cl-9-8-0" inkscape:connector-curvature="0" d="M61.239,86.242c0,0,5.045-3.634,5.045-8.673
	c0-2.949-2.908-7.846-9.631-7.846c-6.723,0-9.631,4.899-9.631,7.846c0,5.039,5.045,8.673,5.045,8.673
	c-5.604-3.931-15.594-1.248-15.594,6.608c0,3.933,3.569,8.259,9.172,8.259c6.723,0,9.631-6.609,9.631-6.609
	s0.854,7.533-4.127,11.565h11.007c-4.981-4.03-4.127-11.565-4.127-11.565s2.908,6.609,9.631,6.609c5.605,0,9.172-4.329,9.172-8.259
	C76.833,84.995,66.842,82.312,61.239,86.242z"/>
<path id="cl-9-8-9" inkscape:connector-curvature="0" d="M115.725,47.97c0,0,5.045-3.634,5.045-8.673
	c0-2.949-2.908-7.846-9.631-7.846c-6.724,0-9.633,4.899-9.633,7.846c0,5.039,5.046,8.673,5.046,8.673
	c-5.604-3.931-15.594-1.247-15.594,6.608c0,3.933,3.567,8.259,9.173,8.259c6.723,0,9.631-6.609,9.631-6.609
	s0.854,7.533-4.128,11.565h11.007c-4.979-4.03-4.127-11.565-4.127-11.565s2.909,6.609,9.631,6.609c5.606,0,9.174-4.329,9.174-8.259
	C131.318,46.723,121.328,44.039,115.725,47.97z"/>
<path id="cl-9-8-0-4" inkscape:connector-curvature="0" d="M115.725,86.11c0,0,5.045-3.634,5.045-8.673
	c0-2.949-2.908-7.846-9.631-7.846c-6.724,0-9.633,4.899-9.633,7.846c0,5.039,5.046,8.673,5.046,8.673
	c-5.604-3.931-15.594-1.248-15.594,6.608c0,3.933,3.567,8.259,9.173,8.259c6.723,0,9.631-6.608,9.631-6.608
	s0.854,7.532-4.128,11.564h11.007c-4.979-4.03-4.127-11.564-4.127-11.564s2.909,6.608,9.631,6.608c5.606,0,9.174-4.329,9.174-8.259
	C131.318,84.862,121.328,82.179,115.725,86.11z"/>
<path id="cl-9-8-8" inkscape:connector-curvature="0" d="M88.686,119.038c0,0,5.045-3.634,5.045-8.672
	c0-2.95-2.906-7.846-9.631-7.846c-6.723,0-9.629,4.898-9.629,7.846c0,5.038,5.045,8.672,5.045,8.672
	c-5.604-3.931-15.594-1.247-15.594,6.609c0,3.933,3.568,8.259,9.172,8.259c6.723,0,9.631-6.607,9.631-6.607
	s0.854,7.531-4.128,11.563h11.007c-4.98-4.03-4.129-11.563-4.129-11.563s2.908,6.607,9.633,6.607c5.605,0,9.172-4.328,9.172-8.259
	C104.281,117.791,94.29,115.107,88.686,119.038z"/>
<path id="cl-9-8-4" inkscape:connector-curvature="0" d="M106.006,194.8c0,0-5.046,3.634-5.046,8.673
	c0,2.948,2.909,7.847,9.631,7.847c6.724,0,9.632-4.898,9.632-7.847c0-5.039-5.045-8.673-5.045-8.673
	c5.604,3.931,15.594,1.246,15.594-6.609c0-3.934-3.567-8.259-9.172-8.259c-6.724,0-9.632,6.608-9.632,6.608
	s-0.854-7.533,4.128-11.564h-11.008c4.98,4.031,4.127,11.564,4.127,11.564s-2.908-6.608-9.631-6.608
	c-5.605,0-9.173,4.329-9.173,8.259C90.412,196.046,100.402,198.731,106.006,194.8z"/>
<path id="cl-9-8-0-2" inkscape:connector-curvature="0" d="M106.552,155.898c0,0-5.046,3.635-5.046,8.673
	c0,2.95,2.908,7.847,9.633,7.847c6.723,0,9.631-4.896,9.631-7.847c0-5.038-5.047-8.673-5.047-8.673
	c5.604,3.932,15.596,1.248,15.596-6.607c0-3.933-3.567-8.26-9.174-8.26c-6.723,0-9.631,6.608-9.631,6.608s-0.854-7.532,4.127-11.563
	h-11.007c4.979,4.029,4.128,11.563,4.128,11.563s-2.908-6.608-9.632-6.608c-5.606,0-9.172,4.329-9.172,8.26
	C90.959,157.146,100.949,159.83,106.552,155.898z"/>
<path id="cl-9-8-9-6" inkscape:connector-curvature="0" d="M51.911,194.933c0,0-5.045,3.634-5.045,8.673
	c0,2.948,2.908,7.845,9.631,7.845c6.724,0,9.631-4.898,9.631-7.845c0-5.039-5.045-8.673-5.045-8.673
	c5.604,3.93,15.594,1.247,15.594-6.609c0-3.933-3.569-8.259-9.172-8.259c-6.723,0-9.631,6.608-9.631,6.608
	s-0.854-7.532,4.127-11.564H50.994c4.981,4.03,4.127,11.564,4.127,11.564s-2.908-6.608-9.631-6.608
	c-5.605,0-9.172,4.329-9.172,8.259C36.317,196.18,46.308,198.863,51.911,194.933z"/>
<path id="cl-9-8-0-4-9" inkscape:connector-curvature="0" d="M52.066,156.031c0,0-5.045,3.635-5.045,8.674
	c0,2.949,2.908,7.846,9.631,7.846c6.724,0,9.631-4.897,9.631-7.846c0-5.039-5.045-8.674-5.045-8.674
	c5.604,3.932,15.594,1.247,15.594-6.607c0-3.932-3.569-8.26-9.172-8.26c-6.723,0-9.631,6.608-9.631,6.608s-0.854-7.532,4.127-11.563
	H51.149c4.981,4.029,4.127,11.563,4.127,11.563s-2.908-6.608-9.631-6.608c-5.606,0-9.172,4.328-9.172,8.26
	C36.473,157.278,46.463,159.96,52.066,156.031z"/>
</svg>
