<?xml version="1.0" encoding="utf-8"?>
<!-- Generator: Adobe Illustrator 16.0.0, SVG Export Plug-In . SVG Version: 6.00 Build 0)  -->
<!DOCTYPE svg PUBLIC "-//W3C//DTD SVG 1.1//EN" "http://www.w3.org/Graphics/SVG/1.1/DTD/svg11.dtd">
<svg version="1.1"
	 id="svg2" xmlns:cc="http://creativecommons.org/ns#" xmlns:rdf="http://www.w3.org/1999/02/22-rdf-syntax-ns#" xmlns:svg="http://www.w3.org/2000/svg" xmlns:sodipodi="http://sodipodi.sourceforge.net/DTD/sodipodi-0.dtd" xmlns:inkscape="http://www.inkscape.org/namespaces/inkscape" xmlns:dc="http://purl.org/dc/elements/1.1/" inkscape:export-ydpi="215.44792" inkscape:export-xdpi="215.44792" sodipodi:docname="5_of_clubs.svg" inkscape:version="0.48.0 r9654" inkscape:export-filename="/home/byron/art/cards/final/PNGs/5_of_clubs.png"
	 xmlns="http://www.w3.org/2000/svg" xmlns:xlink="http://www.w3.org/1999/xlink" x="0px" y="0px" width="167.086px"
	 height="242.667px" viewBox="0 0 167.086 242.667" enable-background="new 0 0 167.086 242.667" xml:space="preserve">
<sodipodi:namedview  inkscape:cy="148.16686" inkscape:cx="117.62976" guidetolerance="10" gridtolerance="10" inkscape:zoom="2.4336873" objecttolerance="10" borderopacity="1" showgrid="false" pagecolor="#ffffff" bordercolor="#666666" inkscape:window-maximized="1" id="namedview39" inkscape:current-layer="svg2" inkscape:window-y="25" inkscape:window-x="0" inkscape:window-height="977" inkscape:window-width="1680" inkscape:pageshadow="2" inkscape:pageopacity="0">
	</sodipodi:namedview>
<g id="Layer_x0020_1">
	<path id="path5" fill="#FFFFFF" stroke="#000000" stroke-width="0.5" d="M166.836,235.548c0,3.777-3.086,6.869-6.871,6.869H7.111
		c-3.775,0-6.861-3.092-6.861-6.869V7.12c0-3.777,3.086-6.87,6.861-6.87h152.854c3.785,0,6.871,3.093,6.871,6.87V235.548z"/>
	<g id="g7">
		<g id="g9">
		</g>
	</g>
	<g id="g15">
	</g>
	<g id="g19">
	</g>
	<g id="g23">
		<g id="g25">
		</g>
	</g>
	<g id="g31">
		<g id="g33">
		</g>
	</g>
</g>
<text transform="matrix(1.1816 0 0 1 4.5 35.147)" font-family="'ArialMT'" font-size="38.0433">5</text>
<g id="layer1-1-4" transform="matrix(1.4856506,0,0,1.4856506,-54.024661,10.018072)">
	<path id="cl-9" inkscape:connector-curvature="0" d="M49.413,27.616c0,0,1.767-1.414,1.767-3.373c0-1.147-1.019-3.052-3.373-3.052
		c-2.354,0-3.373,1.905-3.373,3.052c0,1.959,1.767,3.373,1.767,3.373c-1.962-1.529-5.461-0.485-5.461,2.57
		c0,1.53,1.25,3.212,3.212,3.212c2.355,0,3.373-2.57,3.373-2.57s0.299,2.93-1.445,4.498h3.855c-1.745-1.567-1.445-4.498-1.445-4.498
		s1.019,2.57,3.373,2.57c1.963,0,3.212-1.683,3.212-3.212C54.874,27.131,51.375,26.087,49.413,27.616z"/>
</g>
<text transform="matrix(-1.1816 0 0 -1 162.5 209.853)" font-family="'ArialMT'" font-size="38.0433">5</text>
<g id="layer1-1-4-1" transform="matrix(-1.4856506,0,0,-1.4856506,221.19916,232.46182)">
	<path id="cl-9-7" inkscape:connector-curvature="0" d="M49.531,25.917c0,0,1.767-1.413,1.767-3.371
		c0-1.148-1.019-3.051-3.373-3.051c-2.355,0-3.373,1.906-3.373,3.051c0,1.959,1.767,3.371,1.767,3.371
		c-1.963-1.528-5.461-0.484-5.461,2.571c0,1.53,1.249,3.212,3.213,3.212c2.355,0,3.372-2.57,3.372-2.57s0.3,2.93-1.445,4.499h3.855
		c-1.745-1.567-1.445-4.499-1.445-4.499s1.019,2.57,3.373,2.57c1.963,0,3.212-1.683,3.212-3.212
		C54.992,25.432,51.494,24.388,49.531,25.917z"/>
</g>
<g id="layer1-1-4-8" transform="matrix(2.5125778,0,0,2.5125778,-67.188386,-1.5311156)">
	<path id="cl-9-8" inkscape:connector-curvature="0" d="M50.291,22.698c0,0,2.375-1.9,2.375-4.534c0-1.542-1.369-4.102-4.534-4.102
		s-4.534,2.561-4.534,4.102c0,2.634,2.375,4.534,2.375,4.534c-2.638-2.055-7.341-0.652-7.341,3.455c0,2.056,1.68,4.318,4.318,4.318
		c3.165,0,4.534-3.455,4.534-3.455s0.402,3.938-1.943,6.046h5.182c-2.345-2.107-1.943-6.046-1.943-6.046s1.369,3.455,4.534,3.455
		c2.639,0,4.318-2.263,4.318-4.318C57.632,22.046,52.929,20.643,50.291,22.698z"/>
</g>
<g id="layer1-1-4-8-0" transform="matrix(-2.5125778,0,0,-2.5125778,174.72954,245.27515)">
	<path id="cl-9-8-6" inkscape:connector-curvature="0" d="M50.292,22.698c0,0,2.375-1.9,2.375-4.534
		c0-1.542-1.369-4.102-4.534-4.102c-3.165,0-4.534,2.561-4.534,4.102c0,2.634,2.375,4.534,2.375,4.534
		c-2.638-2.055-7.341-0.652-7.341,3.455c0,2.056,1.68,4.318,4.318,4.318c3.165,0,4.534-3.454,4.534-3.454s0.402,3.938-1.943,6.046
		h5.182c-2.345-2.107-1.943-6.046-1.943-6.046s1.369,3.454,4.534,3.454c2.639,0,4.318-2.263,4.318-4.318
		C57.632,22.046,52.929,20.643,50.292,22.698z"/>
</g>
<g id="layer1-1-4-8-2" transform="matrix(2.5125778,0,0,2.5125778,-9.1115857,-1.5311131)">
	<path id="cl-9-8-66" inkscape:connector-curvature="0" d="M50.291,22.698c0,0,2.375-1.9,2.375-4.534
		c0-1.542-1.369-4.102-4.534-4.102c-3.165,0-4.534,2.561-4.534,4.102c0,2.634,2.375,4.534,2.375,4.534
		c-2.638-2.055-7.341-0.652-7.341,3.455c0,2.056,1.68,4.318,4.318,4.318c3.165,0,4.534-3.455,4.534-3.455s0.402,3.938-1.943,6.046
		h5.182c-2.345-2.107-1.943-6.046-1.943-6.046s1.369,3.455,4.534,3.455c2.639,0,4.318-2.263,4.318-4.318
		C57.632,22.046,52.929,20.643,50.291,22.698z"/>
</g>
<g id="layer1-1-4-8-0-4" transform="matrix(-2.5125778,0,0,-2.5125778,232.80634,245.27515)">
	<path id="cl-9-8-6-9" inkscape:connector-curvature="0" d="M50.291,22.698c0,0,2.376-1.9,2.376-4.534
		c0-1.542-1.369-4.102-4.534-4.102c-3.165,0-4.533,2.561-4.533,4.102c0,2.634,2.375,4.534,2.375,4.534
		c-2.638-2.055-7.341-0.652-7.341,3.455c0,2.056,1.68,4.318,4.318,4.318c3.165,0,4.534-3.454,4.534-3.454s0.402,3.938-1.943,6.046
		h5.182c-2.345-2.107-1.943-6.046-1.943-6.046s1.369,3.454,4.534,3.454c2.639,0,4.318-2.263,4.318-4.318
		C57.632,22.046,52.929,20.643,50.291,22.698z"/>
</g>
<g id="layer1-1-4-8-2-6" transform="matrix(2.5125778,0,0,2.5125778,-38.388386,61.769684)">
	<path id="cl-9-8-0" inkscape:connector-curvature="0" d="M50.292,22.698c0,0,2.375-1.9,2.375-4.534
		c0-1.542-1.369-4.102-4.534-4.102c-3.165,0-4.534,2.561-4.534,4.102c0,2.634,2.375,4.534,2.375,4.534
		c-2.638-2.055-7.341-0.652-7.341,3.455c0,2.056,1.68,4.318,4.318,4.318c3.165,0,4.534-3.455,4.534-3.455s0.402,3.938-1.943,6.046
		h5.182c-2.345-2.107-1.943-6.046-1.943-6.046s1.369,3.455,4.534,3.455c2.639,0,4.318-2.263,4.318-4.318
		C57.632,22.046,52.93,20.643,50.292,22.698z"/>
</g>
</svg>
