<?xml version="1.0" encoding="utf-8"?>
<!-- Generator: Adobe Illustrator 16.0.0, SVG Export Plug-In . SVG Version: 6.00 Build 0)  -->
<!DOCTYPE svg PUBLIC "-//W3C//DTD SVG 1.1//EN" "http://www.w3.org/Graphics/SVG/1.1/DTD/svg11.dtd">
<svg version="1.1"
	 id="svg2" inkscape:version="0.48.0 r9654" sodipodi:docname="10_of_hearts.svg" inkscape:export-xdpi="215.44792" inkscape:export-ydpi="215.44792" xmlns:cc="http://creativecommons.org/ns#" xmlns:rdf="http://www.w3.org/1999/02/22-rdf-syntax-ns#" xmlns:svg="http://www.w3.org/2000/svg" xmlns:sodipodi="http://sodipodi.sourceforge.net/DTD/sodipodi-0.dtd" xmlns:inkscape="http://www.inkscape.org/namespaces/inkscape" xmlns:dc="http://purl.org/dc/elements/1.1/" inkscape:export-filename="/home/byron/art/cards/final/PNGs/10_of_hearts.png"
	 xmlns="http://www.w3.org/2000/svg" xmlns:xlink="http://www.w3.org/1999/xlink" x="0px" y="0px" width="167.086px"
	 height="242.667px" viewBox="0 0 167.086 242.667" enable-background="new 0 0 167.086 242.667" xml:space="preserve">
<sodipodi:namedview  id="namedview39" inkscape:pageopacity="0" inkscape:pageshadow="2" inkscape:window-width="1680" inkscape:window-height="977" inkscape:window-x="0" inkscape:window-y="25" inkscape:current-layer="svg2" borderopacity="1" objecttolerance="10" inkscape:zoom="1.7208768" gridtolerance="10" guidetolerance="10" inkscape:cx="-128.9357" bordercolor="#666666" inkscape:cy="147.27218" pagecolor="#ffffff" showgrid="false" inkscape:window-maximized="1">
	</sodipodi:namedview>
<g id="Layer_x0020_1">
	<path id="path5" fill="#FFFFFF" stroke="#000000" stroke-width="0.5" d="M166.836,235.548c0,3.777-3.086,6.869-6.871,6.869H7.111
		c-3.775,0-6.861-3.092-6.861-6.869V7.12c0-3.777,3.086-6.87,6.861-6.87h152.854c3.785,0,6.871,3.093,6.871,6.87V235.548z"/>
	<g id="g7">
		<g id="g9">
		</g>
	</g>
	<g id="g15">
	</g>
	<g id="g19">
	</g>
	<g id="g23">
		<g id="g25">
		</g>
	</g>
	<g id="g31">
		<g id="g33">
		</g>
	</g>
</g>
<text transform="matrix(0.6811 0 0 1 2.501 34.7261)" fill="#DF0000" font-family="'ArialMT'" font-size="37.8015">1</text>
<g id="layer1-9-6" transform="matrix(1.6743072,0,0,1.5669921,17.177511,46.385321)">
	<path id="hl-8" sodipodi:nodetypes="scsscss" inkscape:connector-curvature="0" fill="#DF0000" d="M2.776-3.117
		c-2.542,0-2.881,2.588-2.881,2.588s-0.339-2.589-2.882-2.589c-1.78,0-3.39,1.161-3.39,3.35c0,2.893,5.158,5.803,6.272,10.051
		c1.06-4.244,6.271-7.157,6.271-10.05C6.166-1.956,4.555-3.117,2.776-3.117z"/>
</g>
<g id="layer1-9-6-5" transform="matrix(-1.6743072,0,0,-1.5669921,150.15601,195.14313)">
	<path id="hl-8-1" sodipodi:nodetypes="scsscss" inkscape:connector-curvature="0" fill="#DF0000" d="M2.881-5.333
		C0.34-5.333,0-2.745,0-2.745S-0.34-5.333-2.882-5.333c-1.78,0-3.39,1.16-3.39,3.35c0,2.894,5.157,5.803,6.271,10.051
		C1.06,3.825,6.271,0.912,6.271-1.981C6.271-4.171,4.661-5.333,2.881-5.333z"/>
</g>
<g id="layer1-9-6-8" transform="matrix(2.7790082,0,0,2.600887,54.512268,30.003768)">
	<path id="hl-8-8" sodipodi:nodetypes="scsscss" inkscape:connector-curvature="0" fill="#DF0000" d="M4.13,0.654
		c-3.022,0-3.426,2.719-3.426,2.719S0.301,0.654-2.721,0.654c-2.115,0-4.03,1.219-4.03,3.518c0,3.038,6.131,6.094,7.455,10.555
		c1.26-4.458,7.455-7.517,7.455-10.555C8.159,1.873,6.245,0.654,4.13,0.654z"/>
</g>
<g id="layer1-9-6-8-9" transform="matrix(-2.7790082,0,0,-2.600887,54.512268,212.80617)">
	<path id="hl-8-8-5" sodipodi:nodetypes="scsscss" inkscape:connector-curvature="0" fill="#DF0000" d="M2.721,0.604
		c-3.022,0-3.426,2.718-3.426,2.718S-1.108,0.604-4.13,0.604c-2.115,0-4.029,1.219-4.029,3.518c0,3.038,6.131,6.094,7.455,10.555
		C0.556,10.22,6.751,7.16,6.751,4.122C6.751,1.823,4.837,0.604,2.721,0.604z"/>
</g>
<g id="layer1-9-6-8-8" transform="matrix(2.7790082,0,0,2.600887,54.512268,95.238623)">
	<path id="hl-8-8-8" sodipodi:nodetypes="scsscss" inkscape:connector-curvature="0" fill="#DF0000" d="M4.13-4.817
		c-3.022,0-3.426,2.719-3.426,2.719S0.301-4.817-2.721-4.817c-2.115,0-4.03,1.219-4.03,3.519c0,3.038,6.131,6.094,7.455,10.555
		C1.964,4.799,8.159,1.74,8.159-1.298C8.159-3.598,6.245-4.817,4.13-4.817z"/>
</g>
<g id="layer1-9-6-8-884-8" transform="matrix(-2.7790082,0,0,-2.600887,54.512268,145.35601)">
	<path id="hl-8-8-3-8" sodipodi:nodetypes="scsscss" inkscape:connector-curvature="0" fill="#DF0000" d="M2.721-5.053
		c-3.022,0-3.426,2.718-3.426,2.718S-1.108-5.053-4.13-5.053c-2.115,0-4.029,1.219-4.029,3.517c0,3.039,6.131,6.094,7.455,10.555
		c1.26-4.458,7.455-7.517,7.455-10.555C6.751-3.834,4.837-5.053,2.721-5.053z"/>
</g>
<g id="layer1-9-6-8-7" transform="matrix(2.7790082,0,0,2.600887,111.99088,30.602538)">
	<path id="hl-8-8-1" sodipodi:nodetypes="scsscss" inkscape:connector-curvature="0" fill="#DF0000" d="M2.721,0.604
		c-3.022,0-3.426,2.719-3.426,2.719S-1.108,0.604-4.13,0.604c-2.115,0-4.03,1.219-4.03,3.519c0,3.038,6.131,6.094,7.455,10.555
		C0.555,10.22,6.75,7.161,6.75,4.123C6.751,1.823,4.836,0.604,2.721,0.604z"/>
</g>
<g id="layer1-9-6-8-9-7" transform="matrix(-2.7790082,0,0,-2.600887,111.99088,213.40494)">
	<path id="hl-8-8-5-2" sodipodi:nodetypes="scsscss" inkscape:connector-curvature="0" fill="#DF0000" d="M4.13,0.654
		c-3.022,0-3.426,2.719-3.426,2.719S0.301,0.654-2.721,0.654c-2.115,0-4.03,1.22-4.03,3.519c0,3.038,6.131,6.094,7.455,10.555
		C1.964,10.27,8.16,7.211,8.16,4.172C8.16,1.873,6.245,0.654,4.13,0.654z"/>
</g>
<g id="layer1-9-6-8-8-7" transform="matrix(2.7790082,0,0,2.600887,111.99088,95.837397)">
	<path id="hl-8-8-8-2" sodipodi:nodetypes="scsscss" inkscape:connector-curvature="0" fill="#DF0000" d="M2.721-4.867
		c-3.022,0-3.426,2.719-3.426,2.719S-1.108-4.867-4.13-4.867c-2.115,0-4.03,1.219-4.03,3.518c0,3.038,6.131,6.094,7.455,10.555
		C0.555,4.748,6.75,1.689,6.75-1.349C6.751-3.648,4.836-4.867,2.721-4.867z"/>
</g>
<g id="layer1-9-6-8-884-8-2" transform="matrix(-2.7790082,0,0,-2.600887,111.99088,145.95478)">
	<path id="hl-8-8-3-8-6" sodipodi:nodetypes="scsscss" inkscape:connector-curvature="0" fill="#DF0000" d="M4.13-5.003
		c-3.022,0-3.426,2.718-3.426,2.718S0.301-5.003-2.721-5.003c-2.115,0-4.03,1.219-4.03,3.519c0,3.038,6.131,6.094,7.455,10.555
		C1.964,4.613,8.16,1.554,8.16-1.485C8.16-3.784,6.245-5.003,4.13-5.003z"/>
</g>
<g id="layer1-9-6-8-91" transform="matrix(2.7790082,0,0,2.600887,83.213391,62.704546)">
	<path id="hl-8-8-7" sodipodi:nodetypes="scsscss" inkscape:connector-curvature="0" fill="#DF0000" d="M3.427-2.089
		c-3.022,0-3.426,2.719-3.426,2.719s-0.403-2.719-3.426-2.719c-2.115,0-4.029,1.219-4.029,3.519c0,3.038,6.131,6.094,7.455,10.555
		C1.261,7.527,7.456,4.468,7.456,1.43C7.456-0.87,5.542-2.089,3.427-2.089z"/>
</g>
<g id="layer1-9-6-8-9-6" transform="matrix(-2.7790082,0,0,-2.600887,82.748515,179.70293)">
	<path id="hl-8-8-5-8" sodipodi:nodetypes="scsscss" inkscape:connector-curvature="0" fill="#DF0000" d="M3.413-2.173
		c-3.022,0-3.426,2.718-3.426,2.718s-0.403-2.718-3.426-2.718c-2.115,0-4.03,1.219-4.03,3.519c0,3.038,6.131,6.094,7.455,10.555
		c1.26-4.458,7.455-7.517,7.455-10.555C7.443-0.954,5.529-2.173,3.413-2.173z"/>
</g>
<text transform="matrix(0.6811 0 0 1 13.1807 35.4399)" fill="#DF0000" font-family="'ArialMT'" font-size="37.8015">0</text>
<text transform="matrix(-0.6811 0 0 -1 162.4991 210.4897)" fill="#DF0000" font-family="'ArialMT'" font-size="37.8015">1</text>
<text transform="matrix(-0.6811 0 0 -1 151.8204 210.7769)" fill="#DF0000" font-family="'ArialMT'" font-size="37.8015">0</text>
</svg>
