<?xml version="1.0" encoding="utf-8"?>
<!-- Generator: Adobe Illustrator 16.0.0, SVG Export Plug-In . SVG Version: 6.00 Build 0)  -->
<!DOCTYPE svg PUBLIC "-//W3C//DTD SVG 1.1//EN" "http://www.w3.org/Graphics/SVG/1.1/DTD/svg11.dtd">
<svg version="1.1"
	 id="svg2" inkscape:version="0.48.0 r9654" sodipodi:docname="3_of_hearts.svg" inkscape:export-xdpi="215.44792" inkscape:export-ydpi="215.44792" xmlns:cc="http://creativecommons.org/ns#" xmlns:rdf="http://www.w3.org/1999/02/22-rdf-syntax-ns#" xmlns:svg="http://www.w3.org/2000/svg" xmlns:sodipodi="http://sodipodi.sourceforge.net/DTD/sodipodi-0.dtd" xmlns:inkscape="http://www.inkscape.org/namespaces/inkscape" xmlns:dc="http://purl.org/dc/elements/1.1/" inkscape:export-filename="/home/byron/art/cards/final/PNGs/3_of_hearts.png"
	 xmlns="http://www.w3.org/2000/svg" xmlns:xlink="http://www.w3.org/1999/xlink" x="0px" y="0px" width="167.086px"
	 height="242.667px" viewBox="0 0 167.086 242.667" enable-background="new 0 0 167.086 242.667" xml:space="preserve">
<sodipodi:namedview  id="namedview39" inkscape:pageopacity="0" inkscape:pageshadow="2" inkscape:window-width="1680" inkscape:window-height="977" inkscape:window-x="0" inkscape:window-y="25" inkscape:current-layer="svg2" borderopacity="1" objecttolerance="10" inkscape:zoom="1.7208768" gridtolerance="10" guidetolerance="10" inkscape:cx="-28.405554" bordercolor="#666666" inkscape:cy="147.27218" pagecolor="#ffffff" showgrid="false" inkscape:window-maximized="1">
	</sodipodi:namedview>
<g id="Layer_x0020_1">
	<path id="path5" fill="#FFFFFF" stroke="#000000" stroke-width="0.5" d="M166.836,235.548c0,3.777-3.086,6.869-6.871,6.869H7.111
		c-3.775,0-6.861-3.092-6.861-6.869V7.12c0-3.777,3.086-6.87,6.861-6.87h152.854c3.785,0,6.871,3.093,6.871,6.87V235.548z"/>
	<g id="g7">
		<g id="g9">
		</g>
	</g>
	<g id="g15">
	</g>
	<g id="g19">
	</g>
	<g id="g23">
		<g id="g25">
		</g>
	</g>
	<g id="g31">
		<g id="g33">
		</g>
	</g>
</g>
<text transform="matrix(1.1816 0 0 1 4.5 35.1479)" fill="#DF0000" font-family="'ArialMT'" font-size="38.0433">3</text>
<g id="layer1-9-6" transform="matrix(1.6743072,0,0,1.5669921,17.177511,46.385321)">
	<path id="hl-8" sodipodi:nodetypes="scsscss" inkscape:connector-curvature="0" fill="#DF0000" d="M2.776-3.116
		c-2.542,0-2.881,2.588-2.881,2.588s-0.339-2.589-2.882-2.589c-1.78,0-3.39,1.161-3.39,3.35c0,2.893,5.158,5.803,6.272,10.051
		c1.06-4.244,6.271-7.157,6.271-10.05C6.166-1.955,4.555-3.116,2.776-3.116z"/>
</g>
<text transform="matrix(-1.1816 0 0 -1 162.5 209.853)" fill="#DF0000" font-family="'ArialMT'" font-size="38.0433">3</text>
<g id="layer1-9-6-5" transform="matrix(-1.6743072,0,0,-1.5669921,150.15601,195.14313)">
	<path id="hl-8-1" sodipodi:nodetypes="scsscss" inkscape:connector-curvature="0" fill="#DF0000" d="M2.974-5.333
		c-2.541,0-2.881,2.588-2.881,2.588s-0.339-2.588-2.881-2.588c-1.78,0-3.39,1.16-3.39,3.35c0,2.894,5.157,5.803,6.271,10.051
		C1.153,3.823,6.364,0.91,6.364-1.983C6.364-4.173,4.755-5.333,2.974-5.333z"/>
</g>
<g id="layer1-9-6-8" transform="matrix(2.7790082,0,0,2.600887,83.312268,47.603768)">
	<path id="hl-8-8" sodipodi:nodetypes="scsscss" inkscape:connector-curvature="0" fill="#DF0000" d="M3.676-9
		C0.433-9,0-5.523,0-5.523S-0.433-9-3.676-9C-5.946-9-8-7.441-8-4.5C-8-0.614-1.421,3.294,0,9C1.352,3.299,8-0.614,8-4.5
		C8-7.441,5.946-9,3.676-9z"/>
</g>
<g id="layer1-9-6-8-9" transform="matrix(-2.7790082,0,0,-2.600887,83.312268,192.00617)">
	<path id="hl-8-8-5" sodipodi:nodetypes="scsscss" inkscape:connector-curvature="0" fill="#DF0000" d="M3.676-9
		C0.433-9,0-5.523,0-5.523S-0.433-9-3.676-9C-5.946-9-8-7.441-8-4.5C-8-0.614-1.421,3.294,0,9C1.352,3.298,8-0.614,8-4.5
		C8-7.441,5.946-9,3.676-9z"/>
</g>
<g id="layer1-9-6-8-8" transform="matrix(2.7790082,0,0,2.600887,83.312268,118.90457)">
	<path id="hl-8-8-8" sodipodi:nodetypes="scsscss" inkscape:connector-curvature="0" fill="#DF0000" d="M3.676-9
		C0.433-9,0-5.523,0-5.523S-0.433-9-3.676-9C-5.946-9-8-7.441-8-4.5C-8-0.614-1.421,3.294,0,9C1.352,3.299,8-0.614,8-4.5
		C8-7.441,5.946-9,3.676-9z"/>
</g>
</svg>
