<?xml version="1.0" encoding="utf-8"?>
<!-- Generator: Adobe Illustrator 16.0.0, SVG Export Plug-In . SVG Version: 6.00 Build 0)  -->
<!DOCTYPE svg PUBLIC "-//W3C//DTD SVG 1.1//EN" "http://www.w3.org/Graphics/SVG/1.1/DTD/svg11.dtd">
<svg version="1.1"
	 id="svg2" inkscape:version="0.48.0 r9654" sodipodi:docname="8_of_clubs.svg" inkscape:export-xdpi="215.44792" inkscape:export-ydpi="215.44792" xmlns:dc="http://purl.org/dc/elements/1.1/" xmlns:cc="http://creativecommons.org/ns#" xmlns:rdf="http://www.w3.org/1999/02/22-rdf-syntax-ns#" xmlns:svg="http://www.w3.org/2000/svg" xmlns:sodipodi="http://sodipodi.sourceforge.net/DTD/sodipodi-0.dtd" xmlns:inkscape="http://www.inkscape.org/namespaces/inkscape" inkscape:export-filename="/home/byron/art/cards/final/PNGs/8_of_clubs.png"
	 xmlns="http://www.w3.org/2000/svg" xmlns:xlink="http://www.w3.org/1999/xlink" x="0px" y="0px" width="167.086px"
	 height="242.667px" viewBox="0 0 167.086 242.667" enable-background="new 0 0 167.086 242.667" xml:space="preserve">
<sodipodi:namedview  id="namedview39" inkscape:pageopacity="0" inkscape:pageshadow="2" inkscape:window-width="1680" inkscape:window-height="977" inkscape:window-x="0" inkscape:window-y="25" inkscape:current-layer="svg2" inkscape:cy="148.16686" bordercolor="#666666" showgrid="false" borderopacity="1" objecttolerance="10" inkscape:zoom="2.4336873" gridtolerance="10" guidetolerance="10" inkscape:cx="117.62976" pagecolor="#ffffff" inkscape:window-maximized="1">
	</sodipodi:namedview>
<g id="Layer_x0020_1">
	<path id="path5" fill="#FFFFFF" stroke="#000000" stroke-width="0.5" d="M166.836,235.548c0,3.777-3.086,6.869-6.871,6.869H7.111
		c-3.775,0-6.861-3.092-6.861-6.869V7.12c0-3.777,3.086-6.87,6.861-6.87h152.854c3.785,0,6.871,3.093,6.871,6.87V235.548z"/>
	<g id="g7">
		<g id="g9">
		</g>
	</g>
	<g id="g15">
	</g>
	<g id="g19">
	</g>
	<g id="g23">
		<g id="g25">
		</g>
	</g>
	<g id="g31">
		<g id="g33">
		</g>
	</g>
</g>
<text transform="matrix(1.1816 0 0 1 4.5 31.1426)" font-family="'ArialMT'" font-size="38.0433">8</text>
<g id="layer1-1-4" transform="matrix(1.4856506,0,0,1.4856506,-54.024661,10.018072)">
	<path id="cl-9" inkscape:connector-curvature="0" d="M49.598,24.253c0,0,1.767-1.414,1.767-3.373c0-1.147-1.019-3.052-3.373-3.052
		c-2.354,0-3.373,1.905-3.373,3.052c0,1.959,1.767,3.373,1.767,3.373c-1.962-1.529-5.461-0.485-5.461,2.57
		c0,1.53,1.25,3.212,3.212,3.212c2.355,0,3.373-2.57,3.373-2.57s0.299,2.93-1.445,4.498h3.855c-1.745-1.567-1.445-4.498-1.445-4.498
		s1.019,2.57,3.373,2.57c1.963,0,3.212-1.683,3.212-3.212C55.059,23.768,51.56,22.724,49.598,24.253z"/>
</g>
<text transform="matrix(-1.1816 0 0 -1 162.4649 210.8569)" font-family="'ArialMT'" font-size="38.0433">8</text>
<g id="layer1-1-4-1" transform="matrix(-1.4856506,0,0,-1.4856506,221.19916,232.46182)">
	<path id="cl-9-7" inkscape:connector-curvature="0" d="M49.739,24.266c0,0,1.766-1.413,1.766-3.372
		c0-1.148-1.018-3.051-3.373-3.051c-2.355,0-3.373,1.906-3.373,3.051c0,1.959,1.767,3.372,1.767,3.372
		c-1.963-1.528-5.462-0.484-5.462,2.571c0,1.53,1.25,3.212,3.213,3.212c2.355,0,3.373-2.57,3.373-2.57s0.299,2.93-1.445,4.499h3.855
		c-1.745-1.567-1.445-4.499-1.445-4.499s1.019,2.57,3.373,2.57c1.963,0,3.212-1.683,3.212-3.212
		C55.2,23.78,51.701,22.737,49.739,24.266z"/>
</g>
<g id="layer1-1-4-8" transform="matrix(2.5125778,0,0,2.5125778,-63.988386,-27.131116)">
	<path id="cl-9-8" inkscape:connector-curvature="0" d="M50.754,30.066c0,0,2.244-1.514,2.244-3.612
		c0-1.228-1.293-3.268-4.283-3.268c-2.99,0-4.283,2.041-4.283,3.268c0,2.099,2.243,3.612,2.243,3.612
		c-2.492-1.637-6.934-0.519-6.934,2.753c0,1.638,1.587,3.44,4.079,3.44c2.99,0,4.283-2.753,4.283-2.753s0.38,3.138-1.835,4.817
		h4.895c-2.215-1.679-1.836-4.817-1.836-4.817s1.293,2.753,4.283,2.753c2.493,0,4.079-1.803,4.079-3.44
		C57.689,29.547,53.246,28.429,50.754,30.066z"/>
</g>
<g id="layer1-1-4-8-0" transform="matrix(-2.5125778,0,0,-2.5125778,177.92954,269.27515)">
	<path id="cl-9-8-6" inkscape:connector-curvature="0" d="M49.591,30.08c0,0,2.243-1.514,2.243-3.613
		c0-1.229-1.293-3.268-4.283-3.268s-4.283,2.041-4.283,3.268c0,2.098,2.243,3.613,2.243,3.613c-2.492-1.638-6.934-0.52-6.934,2.753
		c0,1.638,1.587,3.44,4.079,3.44c2.99,0,4.283-2.752,4.283-2.752s0.38,3.137-1.835,4.817h4.895
		c-2.215-1.679-1.835-4.817-1.835-4.817s1.293,2.752,4.283,2.752c2.493,0,4.079-1.803,4.079-3.44
		C56.526,29.561,52.083,28.443,49.591,30.08z"/>
</g>
<g id="layer1-1-4-8-2" transform="matrix(2.5125778,0,0,2.5125778,-63.988386,63.369684)">
	<path id="cl-9-8-0" inkscape:connector-curvature="0" d="M50.754,22.746c0,0,2.244-1.514,2.244-3.612
		c0-1.229-1.293-3.268-4.283-3.268c-2.99,0-4.283,2.041-4.283,3.268c0,2.099,2.243,3.612,2.243,3.612
		c-2.492-1.637-6.934-0.519-6.934,2.753c0,1.638,1.587,3.441,4.079,3.441c2.99,0,4.283-2.753,4.283-2.753s0.38,3.138-1.835,4.817
		h4.895c-2.215-1.679-1.836-4.817-1.836-4.817s1.293,2.753,4.283,2.753c2.493,0,4.079-1.803,4.079-3.441
		C57.689,22.226,53.246,21.108,50.754,22.746z"/>
</g>
<g id="layer1-1-4-8-8" transform="matrix(2.5125778,0,0,2.5125778,-11.20333,-27.304844)">
	<path id="cl-9-8-9" inkscape:connector-curvature="0" d="M49.591,30.08c0,0,2.243-1.514,2.243-3.613
		c0-1.228-1.292-3.268-4.283-3.268c-2.99,0-4.283,2.041-4.283,3.268c0,2.099,2.244,3.613,2.244,3.613
		c-2.493-1.637-6.935-0.52-6.935,2.753c0,1.638,1.587,3.44,4.078,3.44c2.99,0,4.283-2.753,4.283-2.753s0.38,3.138-1.835,4.817h4.895
		c-2.215-1.679-1.835-4.817-1.835-4.817s1.293,2.753,4.283,2.753c2.493,0,4.078-1.803,4.078-3.44
		C56.525,29.561,52.082,28.443,49.591,30.08z"/>
</g>
<g id="layer1-1-4-8-0-2" transform="matrix(-2.5125778,0,0,-2.5125778,230.7146,269.10142)">
	<path id="cl-9-8-6-6" inkscape:connector-curvature="0" d="M50.754,30.066c0,0,2.243-1.514,2.243-3.613
		c0-1.229-1.293-3.268-4.283-3.268c-2.99,0-4.283,2.04-4.283,3.268c0,2.098,2.244,3.613,2.244,3.613
		c-2.492-1.638-6.934-0.52-6.934,2.752c0,1.638,1.587,3.441,4.079,3.441c2.989,0,4.283-2.753,4.283-2.753s0.379,3.137-1.835,4.817
		h4.895c-2.215-1.678-1.835-4.817-1.835-4.817s1.293,2.753,4.283,2.753c2.493,0,4.079-1.803,4.079-3.441
		C57.689,29.547,53.246,28.429,50.754,30.066z"/>
</g>
<g id="layer1-1-4-8-2-6" transform="matrix(2.5125778,0,0,2.5125778,-11.20333,63.195956)">
	<path id="cl-9-8-0-4" inkscape:connector-curvature="0" d="M49.591,22.76c0,0,2.243-1.514,2.243-3.613
		c0-1.229-1.292-3.268-4.283-3.268c-2.99,0-4.283,2.041-4.283,3.268c0,2.099,2.244,3.613,2.244,3.613
		c-2.493-1.637-6.935-0.52-6.935,2.753c0,1.638,1.587,3.441,4.078,3.441c2.99,0,4.283-2.753,4.283-2.753s0.38,3.138-1.835,4.817
		h4.895c-2.215-1.677-1.835-4.817-1.835-4.817s1.293,2.753,4.283,2.753c2.493,0,4.078-1.803,4.078-3.441
		C56.525,22.24,52.082,21.122,49.591,22.76z"/>
</g>
<g id="layer1-1-4-8-6" transform="matrix(2.5125778,0,0,2.5125778,-38.055702,18.622356)">
	<path id="cl-9-8-8" inkscape:connector-curvature="0" d="M50.182,26.365c0,0,2.244-1.514,2.244-3.612
		c0-1.229-1.293-3.268-4.283-3.268s-4.283,2.04-4.283,3.268c0,2.099,2.243,3.612,2.243,3.612c-2.492-1.637-6.934-0.519-6.934,2.753
		c0,1.638,1.587,3.441,4.079,3.441c2.99,0,4.283-2.753,4.283-2.753s0.38,3.138-1.835,4.817h4.895
		c-2.215-1.679-1.835-4.817-1.835-4.817s1.293,2.753,4.283,2.753c2.493,0,4.078-1.803,4.078-3.441
		C57.117,25.846,52.675,24.728,50.182,26.365z"/>
</g>
<g id="layer1-1-4-8-6-8" transform="matrix(-2.5125778,0,0,-2.5125778,204.43127,226.5922)">
	<path id="cl-9-8-8-8" inkscape:connector-curvature="0" d="M50.175,26.628c0,0,2.243-1.514,2.243-3.613
		c0-1.229-1.293-3.268-4.283-3.268s-4.283,2.04-4.283,3.268c0,2.098,2.243,3.613,2.243,3.613c-2.492-1.637-6.934-0.52-6.934,2.753
		c0,1.638,1.587,3.441,4.079,3.441c2.99,0,4.282-2.753,4.282-2.753s0.38,3.138-1.835,4.817h4.895
		c-2.215-1.679-1.835-4.817-1.835-4.817s1.293,2.753,4.283,2.753c2.493,0,4.079-1.803,4.079-3.441
		C57.109,26.108,52.667,24.99,50.175,26.628z"/>
</g>
</svg>
