<?xml version="1.0" encoding="utf-8"?>
<!-- Generator: Adobe Illustrator 16.0.0, SVG Export Plug-In . SVG Version: 6.00 Build 0)  -->
<!DOCTYPE svg PUBLIC "-//W3C//DTD SVG 1.1//EN" "http://www.w3.org/Graphics/SVG/1.1/DTD/svg11.dtd">
<svg version="1.1"
	 id="svg2" inkscape:version="0.48.0 r9654" sodipodi:docname="A_of_clubs.svg" inkscape:export-xdpi="215.44792" inkscape:export-ydpi="215.44792" xmlns:dc="http://purl.org/dc/elements/1.1/" xmlns:cc="http://creativecommons.org/ns#" xmlns:rdf="http://www.w3.org/1999/02/22-rdf-syntax-ns#" xmlns:svg="http://www.w3.org/2000/svg" xmlns:sodipodi="http://sodipodi.sourceforge.net/DTD/sodipodi-0.dtd" xmlns:inkscape="http://www.inkscape.org/namespaces/inkscape" inkscape:export-filename="/home/byron/art/cards/final/PNGs/A_of_clubs.png"
	 xmlns="http://www.w3.org/2000/svg" xmlns:xlink="http://www.w3.org/1999/xlink" x="0px" y="0px" width="167.086px"
	 height="242.667px" viewBox="0 0 167.086 242.667" enable-background="new 0 0 167.086 242.667" xml:space="preserve">
<filter  x="-0.13934441" y="-0.16242018" height="1.3248404" id="filter3834-7" width="1.2786888" inkscape:collect="always" color-interpolation-filters="sRGB">
	<feGaussianBlur  id="feGaussianBlur3836-0" stdDeviation="9.5105772" inkscape:collect="always"></feGaussianBlur>
</filter>
<filter  x="-0.13934441" y="-0.16242018" height="1.3248404" id="filter3834-6" width="1.2786888" inkscape:collect="always" color-interpolation-filters="sRGB">
	<feGaussianBlur  id="feGaussianBlur3836-6" stdDeviation="9.5105772" inkscape:collect="always"></feGaussianBlur>
</filter>
<filter  x="-0.13934441" y="-0.16242018" height="1.3248404" id="filter3834" width="1.2786888" inkscape:collect="always" color-interpolation-filters="sRGB">
	<feGaussianBlur  id="feGaussianBlur3836" stdDeviation="9.5105772" inkscape:collect="always"></feGaussianBlur>
</filter>
<sodipodi:namedview  id="namedview39" inkscape:pageopacity="0" inkscape:pageshadow="2" inkscape:window-width="1680" inkscape:window-height="977" inkscape:window-x="0" inkscape:window-y="25" inkscape:current-layer="svg2" inkscape:cy="148.16686" bordercolor="#666666" showgrid="false" borderopacity="1" objecttolerance="10" inkscape:zoom="2.4336873" gridtolerance="10" guidetolerance="10" inkscape:cx="188.71531" pagecolor="#ffffff" inkscape:window-maximized="1">
	</sodipodi:namedview>
<g id="Layer_x0020_1">
	<path id="path5" fill="#FFFFFF" stroke="#000000" stroke-width="0.5" d="M166.836,235.548c0,3.777-3.086,6.869-6.871,6.869H7.111
		c-3.775,0-6.861-3.092-6.861-6.869V7.12c0-3.777,3.086-6.87,6.861-6.87h152.854c3.785,0,6.871,3.093,6.871,6.87V235.548z"/>
	<g id="g7">
		<g id="g9">
		</g>
	</g>
	<g id="g15">
	</g>
	<g id="g19">
	</g>
	<g id="g23">
		<g id="g25">
		</g>
	</g>
	<g id="g31">
		<g id="g33">
		</g>
	</g>
</g>
<text transform="matrix(0.9802 0 0 1 4.5571 32.6436)" font-family="'ArialMT'" font-size="38.0433">A</text>
<g id="g3804" transform="matrix(0.20614599,0,0,0.20614599,8.8705463,16.512759)">
	<g id="layer1-1" transform="matrix(28.969925,0,0,28.969925,-1031.5368,-187.37665)">
		
			<radialGradient id="cl_1_" cx="-3.4657" cy="74.5459" r="9.4966" gradientTransform="matrix(-55.6564 0.6521 -0.9573 -81.707 -73.2955 6111.3022)" gradientUnits="userSpaceOnUse">
			<stop  offset="0" style="stop-color:#000000"/>
			<stop  offset="1" style="stop-color:#000000;stop-opacity:0.6565"/>
		</radialGradient>
		<path id="cl" inkscape:connector-curvature="0" fill="url(#cl_1_)" d="M50.292,22.698c0,0,2.375-1.9,2.375-4.534
			c0-1.542-1.369-4.102-4.534-4.102c-3.165,0-4.534,2.561-4.534,4.102c0,2.634,2.375,4.534,2.375,4.534
			c-2.638-2.055-7.341-0.652-7.341,3.455c0,2.056,1.68,4.318,4.318,4.318c3.165,0,4.534-3.455,4.534-3.455s0.402,3.938-1.943,6.046
			h5.182c-2.345-2.107-1.943-6.046-1.943-6.046s1.369,3.455,4.534,3.455c2.639,0,4.318-2.263,4.318-4.318
			C57.633,22.046,52.929,20.643,50.292,22.698z"/>
	</g>
	<g id="path3762" inkscape:connector-curvature="0" sodipodi:nodetypes="cscsc" filter="url(#filter3834)">
		
			<radialGradient id="SVGID_1_" cx="4530.4688" cy="93441.9844" r="81.9018" gradientTransform="matrix(0.0543 -0.0346 0.0186 0.0347 -1838.6641 -2588.978)" gradientUnits="userSpaceOnUse">
			<stop  offset="0" style="stop-color:#FFFFFF;stop-opacity:0.5344"/>
			<stop  offset="1" style="stop-color:#000000;stop-opacity:0"/>
		</radialGradient>
		<path fill="url(#SVGID_1_)" d="M92.753,618.107c0,0-8.949-114.62,25.351-148.309c38.554-37.867,155.277-13.795,155.277-13.795
			s-79.346,29.982-110.913,58.633C132.29,542.027,92.753,618.107,92.753,618.107z"/>
	</g>
	<g id="path3762-6" inkscape:connector-curvature="0" sodipodi:nodetypes="cscsc" filter="url(#filter3834-6)">
		
			<radialGradient id="SVGID_2_" cx="4530.4546" cy="93441.9922" r="81.9031" gradientTransform="matrix(0.0543 -0.0346 0.0186 0.0347 -1684.0642 -2809.9038)" gradientUnits="userSpaceOnUse">
			<stop  offset="0" style="stop-color:#FFFFFF;stop-opacity:0.5191"/>
			<stop  offset="1" style="stop-color:#000000;stop-opacity:0"/>
		</radialGradient>
		<path fill="url(#SVGID_2_)" d="M247.355,397.186c0,0-8.949-114.62,25.351-148.311c38.554-37.867,155.277-13.795,155.277-13.795
			s-79.349,29.982-110.913,58.633C286.892,321.106,247.355,397.186,247.355,397.186z"/>
	</g>
	<g id="path3762-7" inkscape:connector-curvature="0" sodipodi:nodetypes="cscsc" filter="url(#filter3834-7)">
		
			<radialGradient id="SVGID_3_" cx="27334.6328" cy="61086.0859" r="81.9026" gradientTransform="matrix(0.0801 -0.0047 -0.005 0.0511 -1359.8805 -2554.3796)" gradientUnits="userSpaceOnUse">
			<stop  offset="0" style="stop-color:#FFFFFF;stop-opacity:0.7023"/>
			<stop  offset="1" style="stop-color:#000000;stop-opacity:0"/>
		</radialGradient>
		<path fill="url(#SVGID_3_)" d="M354.611,603.914c0,0,70.72-135.547,129.537-151.982c66.103-18.473,169.508,82.776,169.508,82.776
			s-102.618-16.31-155.097-3.851C448.382,542.766,354.611,603.914,354.611,603.914z"/>
	</g>
	<path id="rect3015" inkscape:connector-curvature="0" fill="#FFFEFF" d="M28.355,122.026v734.279h667.159V122.026H28.355z
		 M362.636,219.651c91.687,0,131.375,74.171,131.375,118.843c0,76.307-68.813,131.345-68.813,131.345
		c76.421-59.535,212.655-18.887,212.655,100.091c0,59.538-48.642,125.096-125.087,125.096
		c-91.694,0-131.349-100.093-131.349-100.093s-11.654,114.115,56.278,175.155H287.574c67.934-61.068,56.312-175.155,56.312-175.155
		s-39.653,100.093-131.342,100.093c-76.423,0-125.094-65.53-125.094-125.096c0-118.978,136.233-159.626,212.657-100.091
		c0,0-68.813-55.037-68.813-131.345C231.293,293.85,270.947,219.651,362.636,219.651z"/>
</g>
<g id="layer1-1-4" transform="matrix(1.4856506,0,0,1.4856506,-54.024661,10.018072)">
	<path id="cl-9" inkscape:connector-curvature="0" d="M49.478,23.243c0,0,1.767-1.414,1.767-3.373c0-1.147-1.019-3.052-3.373-3.052
		c-2.355,0-3.373,1.905-3.373,3.052c0,1.959,1.767,3.373,1.767,3.373c-1.962-1.529-5.461-0.485-5.461,2.57
		c0,1.53,1.25,3.212,3.212,3.212c2.355,0,3.373-2.57,3.373-2.57s0.299,2.93-1.445,4.497H49.8c-1.745-1.567-1.445-4.497-1.445-4.497
		s1.02,2.57,3.373,2.57c1.963,0,3.212-1.683,3.212-3.212C54.939,22.758,51.44,21.714,49.478,23.243z"/>
</g>
<text transform="matrix(-0.9802 0 0 -1 162.2285 212.8568)" font-family="'ArialMT'" font-size="38.0433">A</text>
<g id="layer1-1-4-1" transform="matrix(-1.4856506,0,0,-1.4856506,221.19916,232.46182)">
	<path id="cl-9-7" inkscape:connector-curvature="0" d="M49.739,22.919c0,0,1.766-1.413,1.766-3.373
		c0-1.147-1.018-3.051-3.373-3.051c-2.355,0-3.373,1.906-3.373,3.051c0,1.96,1.767,3.373,1.767,3.373
		c-1.963-1.528-5.462-0.485-5.462,2.57c0,1.53,1.25,3.212,3.213,3.212c2.355,0,3.373-2.569,3.373-2.569s0.299,2.93-1.445,4.497
		h3.855c-1.745-1.567-1.445-4.497-1.445-4.497s1.019,2.569,3.373,2.569c1.963,0,3.212-1.683,3.212-3.212
		C55.2,22.434,51.701,21.391,49.739,22.919z"/>
</g>
</svg>
