<?xml version="1.0" encoding="utf-8"?>
<!-- Generator: Adobe Illustrator 16.0.0, SVG Export Plug-In . SVG Version: 6.00 Build 0)  -->
<!DOCTYPE svg PUBLIC "-//W3C//DTD SVG 1.1//EN" "http://www.w3.org/Graphics/SVG/1.1/DTD/svg11.dtd">
<svg version="1.1"
	 id="svg2" inkscape:version="0.48.0 r9654" sodipodi:docname="10_of_clubs.svg" inkscape:export-xdpi="215.44792" inkscape:export-ydpi="215.44792" xmlns:dc="http://purl.org/dc/elements/1.1/" xmlns:cc="http://creativecommons.org/ns#" xmlns:rdf="http://www.w3.org/1999/02/22-rdf-syntax-ns#" xmlns:svg="http://www.w3.org/2000/svg" xmlns:sodipodi="http://sodipodi.sourceforge.net/DTD/sodipodi-0.dtd" xmlns:inkscape="http://www.inkscape.org/namespaces/inkscape" inkscape:export-filename="/home/byron/art/cards/final/PNGs/10_of_clubs.png"
	 xmlns="http://www.w3.org/2000/svg" xmlns:xlink="http://www.w3.org/1999/xlink" x="0px" y="0px" width="167.086px"
	 height="242.667px" viewBox="0 0 167.086 242.667" enable-background="new 0 0 167.086 242.667" xml:space="preserve">
<sodipodi:namedview  id="namedview39" inkscape:pageopacity="0" inkscape:pageshadow="2" inkscape:window-width="1680" inkscape:window-height="977" inkscape:window-x="0" inkscape:window-y="25" inkscape:current-layer="svg2" inkscape:cy="148.16686" bordercolor="#666666" showgrid="false" borderopacity="1" objecttolerance="10" inkscape:zoom="2.4336873" gridtolerance="10" guidetolerance="10" inkscape:cx="117.62976" pagecolor="#ffffff" inkscape:window-maximized="1">
	</sodipodi:namedview>
<g id="Layer_x0020_1">
	<path id="path5" fill="#FFFFFF" stroke="#000000" stroke-width="0.5" d="M166.836,235.548c0,3.777-3.086,6.869-6.871,6.869H7.111
		c-3.775,0-6.861-3.092-6.861-6.869V7.12c0-3.777,3.086-6.87,6.861-6.87h152.854c3.785,0,6.871,3.093,6.871,6.87V235.548z"/>
	<g id="g7">
		<g id="g9">
		</g>
	</g>
	<g id="g15">
	</g>
	<g id="g19">
	</g>
	<g id="g23">
		<g id="g25">
		</g>
	</g>
	<g id="g31">
		<g id="g33">
		</g>
	</g>
</g>
<g id="layer1-1-4" transform="matrix(1.4856506,0,0,1.4856506,-54.024661,10.018072)">
	<path id="cl-9" inkscape:connector-curvature="0" d="M51.32,24.266c0,0,1.767-1.414,1.767-3.373c0-1.147-1.019-3.052-3.373-3.052
		c-2.354,0-3.373,1.905-3.373,3.052c0,1.959,1.767,3.373,1.767,3.373c-1.962-1.529-5.461-0.485-5.461,2.57
		c0,1.53,1.25,3.212,3.212,3.212c2.355,0,3.373-2.57,3.373-2.57s0.299,2.93-1.445,4.498h3.855c-1.745-1.567-1.445-4.498-1.445-4.498
		s1.019,2.57,3.373,2.57c1.963,0,3.212-1.683,3.212-3.212C56.781,23.781,53.282,22.737,51.32,24.266z"/>
</g>
<g id="layer1-1-4-1" transform="matrix(-1.4856506,0,0,-1.4856506,221.19916,232.46182)">
	<path id="cl-9-7" inkscape:connector-curvature="0" d="M49.739,22.919c0,0,1.766-1.413,1.766-3.373
		c0-1.147-1.018-3.051-3.373-3.051c-2.355,0-3.373,1.906-3.373,3.051c0,1.96,1.767,3.373,1.767,3.373
		c-1.963-1.528-5.462-0.485-5.462,2.57c0,1.53,1.25,3.212,3.213,3.212c2.355,0,3.373-2.569,3.373-2.569s0.299,2.93-1.445,4.497
		h3.855c-1.745-1.567-1.445-4.497-1.445-4.497s1.019,2.569,3.373,2.569c1.963,0,3.212-1.683,3.212-3.212
		C55.2,22.434,51.701,21.391,49.739,22.919z"/>
</g>
<path id="cl-9-8" inkscape:connector-curvature="0" d="M61.629,48.102c0,0,5.045-3.634,5.045-8.673c0-2.949-2.908-7.846-9.631-7.846
	s-9.631,4.898-9.631,7.846c0,5.039,5.045,8.673,5.045,8.673c-5.604-3.931-15.594-1.247-15.594,6.608c0,3.933,3.569,8.26,9.172,8.26
	c6.723,0,9.631-6.609,9.631-6.609s0.854,7.533-4.127,11.564h11.007c-4.981-4.03-4.127-11.564-4.127-11.564s2.908,6.609,9.631,6.609
	c5.605,0,9.172-4.329,9.172-8.26C77.223,46.855,67.233,44.171,61.629,48.102L61.629,48.102z"/>
<path id="cl-9-8-0" inkscape:connector-curvature="0" d="M61.239,99.945c0,0,5.045-3.634,5.045-8.672
	c0-2.949-2.908-7.846-9.631-7.846c-6.723,0-9.631,4.899-9.631,7.846c0,5.038,5.045,8.672,5.045,8.672
	c-5.604-3.931-15.594-1.247-15.594,6.609c0,3.932,3.569,8.259,9.172,8.259c6.723,0,9.631-6.608,9.631-6.608
	s0.854,7.532-4.127,11.564h11.007c-4.981-4.03-4.127-11.564-4.127-11.564s2.908,6.608,9.631,6.608c5.605,0,9.172-4.329,9.172-8.259
	C76.833,98.698,66.842,96.014,61.239,99.945z"/>
<path id="cl-9-8-9" inkscape:connector-curvature="0" d="M115.725,47.97c0,0,5.045-3.634,5.045-8.673
	c0-2.949-2.908-7.846-9.631-7.846c-6.724,0-9.633,4.899-9.633,7.846c0,5.039,5.046,8.673,5.046,8.673
	c-5.604-3.931-15.594-1.247-15.594,6.608c0,3.933,3.567,8.259,9.173,8.259c6.723,0,9.631-6.609,9.631-6.609
	s0.854,7.533-4.128,11.565h11.007c-4.979-4.03-4.127-11.565-4.127-11.565s2.909,6.609,9.631,6.609c5.606,0,9.174-4.329,9.174-8.259
	C131.318,46.723,121.328,44.039,115.725,47.97z"/>
<path id="cl-9-8-0-4" inkscape:connector-curvature="0" d="M115.725,99.813c0,0,5.045-3.634,5.045-8.672
	c0-2.949-2.908-7.846-9.631-7.846c-6.724,0-9.633,4.899-9.633,7.846c0,5.038,5.046,8.672,5.046,8.672
	c-5.604-3.931-15.594-1.247-15.594,6.609c0,3.933,3.567,8.259,9.173,8.259c6.723,0,9.631-6.608,9.631-6.608
	s0.854,7.533-4.128,11.564h11.007c-4.979-4.03-4.127-11.564-4.127-11.564s2.909,6.608,9.631,6.608c5.606,0,9.174-4.329,9.174-8.259
	C131.318,98.565,121.328,95.882,115.725,99.813z"/>
<path id="cl-9-8-8" inkscape:connector-curvature="0" d="M88.686,74.123c0,0,5.045-3.634,5.045-8.672
	c0-2.95-2.907-7.846-9.629-7.846c-6.725,0-9.633,4.898-9.633,7.846c0,5.038,5.045,8.672,5.045,8.672
	c-5.604-3.931-15.594-1.247-15.594,6.608c0,3.933,3.569,8.259,9.172,8.259c6.723,0,9.631-6.608,9.631-6.608
	s0.854,7.532-4.127,11.564h11.007c-4.981-4.03-4.129-11.564-4.129-11.564s2.909,6.608,9.633,6.608c5.605,0,9.172-4.329,9.172-8.259
	C104.281,72.876,94.291,70.192,88.686,74.123z"/>
<path id="cl-9-8-4" inkscape:connector-curvature="0" d="M106.006,194.8c0,0-5.046,3.634-5.046,8.673
	c0,2.948,2.909,7.847,9.631,7.847c6.724,0,9.632-4.898,9.632-7.847c0-5.039-5.045-8.673-5.045-8.673
	c5.604,3.931,15.594,1.246,15.594-6.609c0-3.934-3.568-8.259-9.172-8.259c-6.724,0-9.632,6.608-9.632,6.608
	s-0.854-7.533,4.128-11.564h-11.008c4.98,4.031,4.127,11.564,4.127,11.564s-2.908-6.608-9.631-6.608
	c-5.605,0-9.173,4.329-9.173,8.259C90.412,196.046,100.402,198.731,106.006,194.8z"/>
<path id="cl-9-8-0-2" inkscape:connector-curvature="0" d="M106.552,142.957c0,0-5.046,3.635-5.046,8.674
	c0,2.949,2.908,7.847,9.633,7.847c6.723,0,9.631-4.897,9.631-7.847c0-5.039-5.047-8.674-5.047-8.674
	c5.604,3.933,15.596,1.248,15.596-6.606c0-3.933-3.568-8.261-9.174-8.261c-6.723,0-9.631,6.609-9.631,6.609
	s-0.854-7.533,4.127-11.564h-11.007c4.979,4.029,4.127,11.564,4.127,11.564s-2.907-6.609-9.631-6.609
	c-5.606,0-9.172,4.328-9.172,8.261C90.959,144.205,100.949,146.888,106.552,142.957z"/>
<path id="cl-9-8-9-6" inkscape:connector-curvature="0" d="M51.911,194.933c0,0-5.045,3.634-5.045,8.672
	c0,2.949,2.908,7.846,9.631,7.846s9.631-4.898,9.631-7.846c0-5.038-5.045-8.672-5.045-8.672c5.604,3.93,15.594,1.246,15.594-6.609
	c0-3.933-3.568-8.26-9.172-8.26c-6.723,0-9.631,6.609-9.631,6.609s-0.854-7.532,4.127-11.564H50.994
	c4.981,4.03,4.127,11.564,4.127,11.564s-2.908-6.609-9.631-6.609c-5.605,0-9.172,4.329-9.172,8.26
	C36.317,196.179,46.308,198.863,51.911,194.933z"/>
<path id="cl-9-8-0-4-9" inkscape:connector-curvature="0" d="M52.066,143.089c0,0-5.045,3.634-5.045,8.673
	c0,2.948,2.908,7.846,9.631,7.846c6.724,0,9.631-4.897,9.631-7.846c0-5.039-5.045-8.673-5.045-8.673
	c5.604,3.931,15.594,1.246,15.594-6.608c0-3.933-3.569-8.259-9.172-8.259c-6.723,0-9.631,6.607-9.631,6.607
	s-0.854-7.533,4.127-11.563H51.149c4.981,4.028,4.127,11.563,4.127,11.563s-2.908-6.607-9.631-6.607
	c-5.606,0-9.172,4.328-9.172,8.259C36.473,144.335,46.463,147.02,52.066,143.089z"/>
<text transform="matrix(0.708 0 0 1 3.6666 31.6694)" font-family="'ArialMT'" font-size="37.7164">1</text>
<text transform="matrix(0.708 0 0 1 13.816 32.0571)" font-family="'ArialMT'" font-size="37.7164">0</text>
<path id="cl-9-8-8-8" inkscape:connector-curvature="0" d="M78.959,169.02c0,0-5.045,3.636-5.045,8.673
	c0,2.949,2.908,7.846,9.631,7.846c6.723,0,9.632-4.897,9.632-7.846c0-5.037-5.046-8.673-5.046-8.673
	c5.604,3.931,15.594,1.247,15.594-6.606c0-3.935-3.567-8.261-9.173-8.261c-6.722,0-9.631,6.608-9.631,6.608
	s-0.854-7.532,4.128-11.564H78.041c4.981,4.029,4.127,11.564,4.127,11.564s-2.908-6.608-9.631-6.608
	c-5.605,0-9.172,4.328-9.172,8.261C63.365,170.267,73.355,172.951,78.959,169.02z"/>
<text transform="matrix(-0.708 0 0 -1 166.3292 214.7319)" font-family="'ArialMT'" font-size="37.7164">1</text>
<text transform="matrix(-0.708 0 0 -1 156.1807 214.3452)" font-family="'ArialMT'" font-size="37.7164">0</text>
</svg>
