<?xml version="1.0" encoding="utf-8"?>
<!-- Generator: Adobe Illustrator 16.0.0, SVG Export Plug-In . SVG Version: 6.00 Build 0)  -->
<!DOCTYPE svg PUBLIC "-//W3C//DTD SVG 1.1//EN" "http://www.w3.org/Graphics/SVG/1.1/DTD/svg11.dtd">
<svg version="1.1"
	 id="svg2" inkscape:version="0.48.0 r9654" sodipodi:docname="2_of_diamonds.svg" inkscape:export-xdpi="215.44792" inkscape:export-ydpi="215.44792" xmlns:dc="http://purl.org/dc/elements/1.1/" xmlns:cc="http://creativecommons.org/ns#" xmlns:rdf="http://www.w3.org/1999/02/22-rdf-syntax-ns#" xmlns:svg="http://www.w3.org/2000/svg" xmlns:sodipodi="http://sodipodi.sourceforge.net/DTD/sodipodi-0.dtd" xmlns:inkscape="http://www.inkscape.org/namespaces/inkscape" inkscape:export-filename="/home/byron/art/cards/final/PNGs/2_of_diamonds.png"
	 xmlns="http://www.w3.org/2000/svg" xmlns:xlink="http://www.w3.org/1999/xlink" x="0px" y="0px" width="167.086px"
	 height="242.667px" viewBox="0 0 167.086 242.667" enable-background="new 0 0 167.086 242.667" xml:space="preserve">
<sodipodi:namedview  id="namedview39" inkscape:pageopacity="0" inkscape:pageshadow="2" inkscape:window-width="1680" inkscape:window-height="977" inkscape:window-x="0" inkscape:window-y="25" inkscape:current-layer="svg2" inkscape:cy="147.27218" bordercolor="#666666" showgrid="false" borderopacity="1" objecttolerance="10" inkscape:zoom="1.7208768" gridtolerance="10" guidetolerance="10" inkscape:cx="72.124594" pagecolor="#ffffff" inkscape:window-maximized="1">
	</sodipodi:namedview>
<g id="Layer_x0020_1">
	<path id="path5" fill="#FFFFFF" stroke="#000000" stroke-width="0.5" d="M166.836,235.548c0,3.777-3.086,6.869-6.871,6.869H7.111
		c-3.775,0-6.861-3.092-6.861-6.869V7.12c0-3.777,3.086-6.87,6.861-6.87h152.854c3.785,0,6.871,3.093,6.871,6.87V235.548z"/>
	<g id="g7">
		<g id="g9">
		</g>
	</g>
	<g id="g15">
	</g>
	<g id="g19">
	</g>
	<g id="g23">
		<g id="g25">
		</g>
	</g>
	<g id="g31">
		<g id="g33">
		</g>
	</g>
</g>
<text transform="matrix(1.1816 0 0 1 4.5 31.2188)" fill="#DF0000" font-family="'ArialMT'" font-size="38.0433">2</text>
<text transform="matrix(-1.1816 0 0 -1 163.0879 212.105)" fill="#DF0000" font-family="'ArialMT'" font-size="38.0433">2</text>
<g id="layer1-2-6" transform="matrix(1.4769065,0,0,1.4769065,16.968095,44.236162)">
	<path id="dl-6" inkscape:connector-curvature="0" sodipodi:nodetypes="ccccccccc" fill="#DF0000" d="M2.917-0.886
		C1.126-2.732,0.173-4.61,0.173-4.61S-0.78-2.732-2.572-0.886c-1.793,1.846-4.026,3.047-4.026,3.047s2.233,1.2,4.026,3.048
		c1.792,1.846,2.745,3.723,2.745,3.723S1.126,7.056,2.917,5.21c1.793-1.847,4.026-3.048,4.026-3.048S4.711,0.961,2.917-0.886z"/>
</g>
<g id="layer1-2-6-4" transform="matrix(1.4769065,0,0,1.4769065,150.62089,198.50346)">
	<path id="dl-6-9" inkscape:connector-curvature="0" sodipodi:nodetypes="ccccccccc" fill="#DF0000" d="M2.745-5.078
		C0.953-6.925,0-8.802,0-8.802s-0.953,1.877-2.745,3.724c-1.793,1.846-4.026,3.047-4.026,3.047s2.234,1.201,4.026,3.048
		C-0.953,2.862,0,4.74,0,4.74s0.952-1.877,2.744-3.723C4.537-0.83,6.77-2.031,6.77-2.031S4.538-3.232,2.745-5.078z"/>
</g>
<g id="layer1-2-6-8" transform="matrix(2.5882908,0,0,2.5882908,82.928726,184.02194)">
	<path id="dl-6-8" inkscape:connector-curvature="0" sodipodi:nodetypes="ccccccccc" fill="#DF0000" d="M3.243-4.725
		C1.126-7.589,0-10.5,0-10.5s-1.126,2.91-3.243,5.775C-5.361-1.862-8,0-8,0s2.639,1.861,4.757,4.726C-1.126,7.589,0,10.5,0,10.5
		s1.126-2.91,3.243-5.773C5.361,1.861,8,0,8,0S5.361-1.862,3.243-4.725z"/>
</g>
<g id="layer1-2-6-8-2" transform="matrix(2.5882908,0,0,2.5882908,82.928726,55.619539)">
	<path id="dl-6-8-6" inkscape:connector-curvature="0" sodipodi:nodetypes="ccccccccc" fill="#DF0000" d="M3.243-4.725
		C1.126-7.589,0-10.5,0-10.5s-1.126,2.911-3.243,5.775C-5.361-1.862-8,0-8,0s2.639,1.861,4.757,4.726C-1.126,7.589,0,10.5,0,10.5
		s1.126-2.911,3.243-5.774C5.361,1.861,8,0,8,0S5.361-1.862,3.243-4.725z"/>
</g>
</svg>
