<?xml version="1.0" encoding="utf-8"?>
<!-- Generator: Adobe Illustrator 16.0.0, SVG Export Plug-In . SVG Version: 6.00 Build 0)  -->
<!DOCTYPE svg PUBLIC "-//W3C//DTD SVG 1.1//EN" "http://www.w3.org/Graphics/SVG/1.1/DTD/svg11.dtd">
<svg version="1.1"
	 id="svg2" inkscape:version="0.48.0 r9654" sodipodi:docname="8_of_diamonds.svg" inkscape:export-xdpi="215.44792" inkscape:export-ydpi="215.44792" xmlns:dc="http://purl.org/dc/elements/1.1/" xmlns:cc="http://creativecommons.org/ns#" xmlns:rdf="http://www.w3.org/1999/02/22-rdf-syntax-ns#" xmlns:svg="http://www.w3.org/2000/svg" xmlns:sodipodi="http://sodipodi.sourceforge.net/DTD/sodipodi-0.dtd" xmlns:inkscape="http://www.inkscape.org/namespaces/inkscape" inkscape:export-filename="/home/byron/art/cards/final/PNGs/8_of_diamonds.png"
	 xmlns="http://www.w3.org/2000/svg" xmlns:xlink="http://www.w3.org/1999/xlink" x="0px" y="0px" width="167.086px"
	 height="242.667px" viewBox="0 0 167.086 242.667" enable-background="new 0 0 167.086 242.667" xml:space="preserve">
<sodipodi:namedview  id="namedview39" inkscape:pageopacity="0" inkscape:pageshadow="2" inkscape:window-width="1680" inkscape:window-height="977" inkscape:window-x="0" inkscape:window-y="25" inkscape:current-layer="svg2" inkscape:cy="147.27218" bordercolor="#666666" showgrid="false" borderopacity="1" objecttolerance="10" inkscape:zoom="1.7208768" gridtolerance="10" guidetolerance="10" inkscape:cx="72.124594" pagecolor="#ffffff" inkscape:window-maximized="1">
	</sodipodi:namedview>
<g id="Layer_x0020_1">
	<path id="path5" fill="#FFFFFF" stroke="#000000" stroke-width="0.5" d="M166.836,235.548c0,3.777-3.086,6.869-6.871,6.869H7.111
		c-3.775,0-6.861-3.092-6.861-6.869V7.12c0-3.777,3.086-6.87,6.861-6.87h152.854c3.785,0,6.871,3.093,6.871,6.87V235.548z"/>
	<g id="g7">
		<g id="g9">
		</g>
	</g>
	<g id="g15">
	</g>
	<g id="g19">
	</g>
	<g id="g23">
		<g id="g25">
		</g>
	</g>
	<g id="g31">
		<g id="g33">
		</g>
	</g>
</g>
<text transform="matrix(1.1816 0 0 1 4.5 30.9683)" fill="#DF0000" font-family="'ArialMT'" font-size="38.0433">8</text>
<text transform="matrix(-1.1816 0 0 -1 163.0879 213.105)" fill="#DF0000" font-family="'ArialMT'" font-size="38.0433">8</text>
<g id="layer1-2-6" transform="matrix(1.4769065,0,0,1.4769065,16.968095,44.236162)">
	<path id="dl-6" inkscape:connector-curvature="0" sodipodi:nodetypes="ccccccccc" fill="#DF0000" d="M3.055-1.207
		c-1.881-1.939-2.882-3.91-2.882-3.91s-1.001,1.971-2.882,3.91c-1.882,1.939-4.227,3.2-4.227,3.2s2.345,1.26,4.227,3.2
		c1.881,1.938,2.882,3.909,2.882,3.909s1.001-1.971,2.882-3.909c1.882-1.94,4.227-3.2,4.227-3.2S4.937,0.732,3.055-1.207z"/>
</g>
<g id="layer1-2-6-4" transform="matrix(1.4769065,0,0,1.4769065,150.62089,198.50346)">
	<path id="dl-6-9" inkscape:connector-curvature="0" sodipodi:nodetypes="ccccccccc" fill="#DF0000" d="M2.882-4.553
		C1-6.493,0-8.464,0-8.464s-1.001,1.97-2.883,3.91c-1.881,1.939-4.227,3.2-4.227,3.2s2.345,1.26,4.227,3.2
		C-1.001,3.785,0,5.755,0,5.755s1-1.97,2.882-3.909c1.882-1.94,4.227-3.2,4.227-3.2S4.765-2.615,2.882-4.553z"/>
</g>
<g id="layer1-2-6-8" transform="matrix(2.5882908,0,0,2.5882908,111.72873,193.62194)">
	<path id="dl-6-8" inkscape:connector-curvature="0" sodipodi:nodetypes="ccccccccc" fill="#DF0000" d="M2.703-6.922
		c-2.037-2.592-3.121-5.227-3.121-5.227s-1.084,2.634-3.121,5.227c-2.038,2.591-4.577,4.277-4.577,4.277s2.539,1.684,4.577,4.277
		c2.037,2.591,3.121,5.226,3.121,5.226s1.084-2.634,3.121-5.226C4.741-0.961,7.28-2.645,7.28-2.645S4.741-4.331,2.703-6.922z"/>
</g>
<g id="layer1-2-6-8-2" transform="matrix(2.5882908,0,0,2.5882908,111.72873,49.219539)">
	<path id="dl-6-8-6" inkscape:connector-curvature="0" sodipodi:nodetypes="ccccccccc" fill="#DF0000" d="M2.703-1.627
		C0.666-4.219-0.418-6.854-0.418-6.854S-1.502-4.22-3.539-1.627C-5.577,0.964-8.116,2.65-8.116,2.65s2.539,1.685,4.577,4.278
		c2.037,2.591,3.121,5.226,3.121,5.226S0.666,9.52,2.703,6.928C4.741,4.334,7.28,2.65,7.28,2.65S4.741,0.964,2.703-1.627z"/>
</g>
<g id="layer1-2-6-8-2-8" transform="matrix(2.5882908,0,0,2.5882908,111.72873,120.52034)">
	<path id="dl-6-8-6-8" inkscape:connector-curvature="0" sodipodi:nodetypes="ccccccccc" fill="#DF0000" d="M2.703-4.242
		C0.666-6.834-0.418-9.468-0.418-9.468s-1.084,2.634-3.121,5.227C-5.577-1.65-8.116,0.035-8.116,0.035s2.539,1.684,4.577,4.277
		c2.037,2.591,3.121,5.226,3.121,5.226s1.084-2.634,3.121-5.226C4.741,1.72,7.28,0.035,7.28,0.035S4.741-1.65,2.703-4.242z"/>
</g>
<g id="layer1-2-6-8-8" transform="matrix(2.5882908,0,0,2.5882908,54.413391,193.74005)">
	<path id="dl-6-8-8" inkscape:connector-curvature="0" sodipodi:nodetypes="ccccccccc" fill="#DF0000" d="M3.539-6.927
		c-2.037-2.592-3.121-5.226-3.121-5.226s-1.084,2.634-3.121,5.226C-4.741-4.335-7.28-2.65-7.28-2.65s2.539,1.685,4.577,4.278
		c2.037,2.591,3.121,5.226,3.121,5.226s1.084-2.635,3.121-5.226C5.577-0.965,8.116-2.65,8.116-2.65S5.577-4.335,3.539-6.927z"/>
</g>
<g id="layer1-2-6-8-2-4" transform="matrix(2.5882908,0,0,2.5882908,54.413391,49.337663)">
	<path id="dl-6-8-6-3" inkscape:connector-curvature="0" sodipodi:nodetypes="ccccccccc" fill="#DF0000" d="M3.539-1.632
		C1.502-4.224,0.418-6.858,0.418-6.858s-1.084,2.634-3.121,5.227C-4.741,0.96-7.28,2.646-7.28,2.646s2.539,1.684,4.577,4.278
		c2.037,2.591,3.121,5.226,3.121,5.226s1.084-2.634,3.121-5.226C5.577,4.33,8.116,2.646,8.116,2.646S5.577,0.96,3.539-1.632z"/>
</g>
<g id="layer1-2-6-8-2-8-1" transform="matrix(2.5882908,0,0,2.5882908,54.413391,120.63845)">
	<path id="dl-6-8-6-8-4" inkscape:connector-curvature="0" sodipodi:nodetypes="ccccccccc" fill="#DF0000" d="M3.539-4.246
		C1.502-6.838,0.418-9.473,0.418-9.473s-1.084,2.634-3.121,5.227C-4.741-1.655-7.28,0.031-7.28,0.031s2.539,1.685,4.577,4.278
		C-0.666,6.9,0.418,9.534,0.418,9.534S1.502,6.9,3.539,4.309c2.038-2.593,4.577-4.278,4.577-4.278S5.577-1.655,3.539-4.246z"/>
</g>
<g id="layer1-2-6-8-2-4-8" transform="matrix(2.5882908,0,0,2.5882908,83.213393,85.53779)">
	<path id="dl-6-8-6-3-8" inkscape:connector-curvature="0" sodipodi:nodetypes="ccccccccc" fill="#DF0000" d="M3.119-2.959
		C1.082-5.551-0.002-8.185-0.002-8.185s-1.084,2.634-3.121,5.227C-5.161-0.368-7.7,1.318-7.7,1.318s2.539,1.685,4.577,4.278
		c2.037,2.591,3.121,5.226,3.121,5.226s1.084-2.634,3.121-5.226c2.038-2.593,4.577-4.278,4.577-4.278S5.157-0.368,3.119-2.959z"/>
</g>
<g id="layer1-2-6-8-8-6" transform="matrix(2.5882908,0,0,2.5882908,83.21339,156.92384)">
	<path id="dl-6-8-8-8" inkscape:connector-curvature="0" sodipodi:nodetypes="ccccccccc" fill="#DF0000" d="M3.119-5.577
		c-2.037-2.592-3.121-5.226-3.121-5.226s-1.084,2.634-3.121,5.226C-5.161-2.985-7.7-1.3-7.7-1.3s2.539,1.685,4.577,4.278
		c2.037,2.592,3.121,5.226,3.121,5.226S1.082,5.57,3.119,2.978C5.157,0.385,7.696-1.3,7.696-1.3S5.157-2.985,3.119-5.577z"/>
</g>
</svg>
