<?xml version="1.0" encoding="utf-8"?>
<!-- Generator: Adobe Illustrator 16.0.0, SVG Export Plug-In . SVG Version: 6.00 Build 0)  -->
<!DOCTYPE svg PUBLIC "-//W3C//DTD SVG 1.1//EN" "http://www.w3.org/Graphics/SVG/1.1/DTD/svg11.dtd">
<svg version="1.1"
	 id="svg2" inkscape:version="0.48.0 r9654" sodipodi:docname="9_of_diamonds.svg" inkscape:export-xdpi="215.44792" inkscape:export-ydpi="215.44792" xmlns:cc="http://creativecommons.org/ns#" xmlns:rdf="http://www.w3.org/1999/02/22-rdf-syntax-ns#" xmlns:svg="http://www.w3.org/2000/svg" xmlns:sodipodi="http://sodipodi.sourceforge.net/DTD/sodipodi-0.dtd" xmlns:inkscape="http://www.inkscape.org/namespaces/inkscape" xmlns:dc="http://purl.org/dc/elements/1.1/" inkscape:export-filename="/home/byron/art/cards/final/PNGs/9_of_diamonds.png"
	 xmlns="http://www.w3.org/2000/svg" xmlns:xlink="http://www.w3.org/1999/xlink" x="0px" y="0px" width="167.086px"
	 height="242.667px" viewBox="0 0 167.086 242.667" enable-background="new 0 0 167.086 242.667" xml:space="preserve">
<sodipodi:namedview  id="namedview39" inkscape:pageopacity="0" inkscape:pageshadow="2" inkscape:window-width="1680" inkscape:window-height="977" inkscape:window-x="0" inkscape:window-y="25" inkscape:current-layer="svg2" borderopacity="1" objecttolerance="10" inkscape:zoom="1.7208768" gridtolerance="10" guidetolerance="10" inkscape:cx="72.124594" bordercolor="#666666" inkscape:cy="147.27218" pagecolor="#ffffff" showgrid="false" inkscape:window-maximized="1">
	</sodipodi:namedview>
<g id="Layer_x0020_1">
	<path id="path5" fill="#FFFFFF" stroke="#000000" stroke-width="0.5" d="M166.836,235.548c0,3.777-3.086,6.869-6.871,6.869H7.111
		c-3.775,0-6.861-3.092-6.861-6.869V7.12c0-3.777,3.086-6.87,6.861-6.87h152.854c3.785,0,6.871,3.093,6.871,6.87V235.548z"/>
	<g id="g7">
		<g id="g9">
		</g>
	</g>
	<g id="g15">
	</g>
	<g id="g19">
	</g>
	<g id="g23">
		<g id="g25">
		</g>
	</g>
	<g id="g31">
		<g id="g33">
		</g>
	</g>
</g>
<text transform="matrix(1.1816 0 0 1 4.5 35.1479)" fill="#DF0000" font-family="'ArialMT'" font-size="38.0433">9</text>
<text transform="matrix(-1.1816 0 0 -1 163.0879 209.853)" fill="#DF0000" font-family="'ArialMT'" font-size="38.0433">9</text>
<g id="layer1-2-6" transform="matrix(1.4769065,0,0,1.4769065,16.968095,44.236162)">
	<path id="dl-6" sodipodi:nodetypes="ccccccccc" inkscape:connector-curvature="0" fill="#DF0000" d="M2.904,2.057
		c-1.881-1.939-2.882-3.91-2.882-3.91s-1.001,1.971-2.882,3.91c-1.882,1.939-4.227,3.2-4.227,3.2s2.345,1.26,4.227,3.2
		c1.881,1.938,2.882,3.909,2.882,3.909s1.001-1.971,2.882-3.91c1.882-1.94,4.227-3.2,4.227-3.2S4.786,3.995,2.904,2.057z"/>
</g>
<g id="layer1-2-6-4" transform="matrix(1.4769065,0,0,1.4769065,150.62089,198.50346)">
	<path id="dl-6-9" sodipodi:nodetypes="ccccccccc" inkscape:connector-curvature="0" fill="#DF0000" d="M2.882-6.926
		C1-8.866,0-10.836,0-10.836s-1.001,1.97-2.883,3.91C-4.764-4.987-7.11-3.727-7.11-3.727s2.345,1.26,4.227,3.2
		C-1.001,1.412,0,3.383,0,3.383s1-1.97,2.882-3.909c1.882-1.94,4.227-3.2,4.227-3.2S4.765-4.987,2.882-6.926z"/>
</g>
<g id="layer1-2-6-8-8" transform="matrix(2.5882908,0,0,2.5882908,54.128726,210.91474)">
	<path id="dl-6-8-8" sodipodi:nodetypes="ccccccccc" inkscape:connector-curvature="0" fill="#DF0000" d="M3.663-11.593
		c-2.008-2.206-3.076-4.448-3.076-4.448s-1.068,2.242-3.076,4.448S-7-7.952-7-7.952s2.502,1.434,4.511,3.641
		c2.008,2.206,3.076,4.448,3.076,4.448s1.068-2.242,3.076-4.448c2.008-2.207,4.511-3.641,4.511-3.641S5.671-9.387,3.663-11.593z"/>
</g>
<g id="layer1-2-6-8-2-4" transform="matrix(2.5882908,0,0,2.5882908,54.128726,31.619539)">
	<path id="dl-6-8-6-3" sodipodi:nodetypes="ccccccccc" inkscape:connector-curvature="0" fill="#DF0000" d="M3.663,4.313
		C1.655,2.106,0.587-0.136,0.587-0.136s-1.068,2.242-3.076,4.449C-4.497,6.519-7,7.953-7,7.953s2.502,1.434,4.511,3.641
		c2.008,2.206,3.076,4.448,3.076,4.448s1.068-2.242,3.076-4.448c2.008-2.207,4.511-3.641,4.511-3.641S5.671,6.518,3.663,4.313z"/>
</g>
<g id="layer1-2-6-8-2-8-1" transform="matrix(2.5882908,0,0,2.5882908,54.128726,151.18274)">
	<path id="dl-6-8-6-8-4" sodipodi:nodetypes="ccccccccc" inkscape:connector-curvature="0" fill="#DF0000" d="M3.663-6.294
		C1.655-8.5,0.587-10.743,0.587-10.743S-0.481-8.5-2.489-6.294C-4.497-4.089-7-2.654-7-2.654s2.502,1.434,4.511,3.641
		c2.008,2.206,3.076,4.448,3.076,4.448s1.068-2.242,3.076-4.448c2.008-2.207,4.51-3.641,4.51-3.641S5.671-4.089,3.663-6.294z"/>
</g>
<g id="layer1-2-6-8-2-8-1-4" transform="matrix(2.5882908,0,0,2.5882908,54.128726,91.351539)">
	<path id="dl-6-8-6-8-4-9" sodipodi:nodetypes="ccccccccc" inkscape:connector-curvature="0" fill="#DF0000" d="M3.663-0.986
		C1.655-3.193,0.587-5.435,0.587-5.435s-1.068,2.242-3.076,4.449C-4.497,1.22-7,2.654-7,2.654s2.502,1.434,4.511,3.641
		c2.008,2.206,3.076,4.448,3.076,4.448s1.068-2.242,3.076-4.448c2.008-2.207,4.511-3.641,4.511-3.641S5.671,1.219,3.663-0.986z"/>
</g>
<g id="layer1-2-6-8-8-9" transform="matrix(2.5882908,0,0,2.5882908,112.89593,210.91474)">
	<path id="dl-6-8-8-4" sodipodi:nodetypes="ccccccccc" inkscape:connector-curvature="0" fill="#DF0000" d="M2.489-11.593
		c-2.008-2.206-3.076-4.448-3.076-4.448s-1.068,2.242-3.075,4.448c-2.009,2.206-4.511,3.641-4.511,3.641s2.502,1.434,4.511,3.641
		c2.008,2.206,3.075,4.448,3.075,4.448s1.068-2.242,3.076-4.448C4.497-6.518,7-7.952,7-7.952S4.497-9.387,2.489-11.593z"/>
</g>
<g id="layer1-2-6-8-2-4-9" transform="matrix(2.5882908,0,0,2.5882908,112.89593,31.619552)">
	<path id="dl-6-8-6-3-0" sodipodi:nodetypes="ccccccccc" inkscape:connector-curvature="0" fill="#DF0000" d="M2.489,4.313
		C0.481,2.106-0.587-0.136-0.587-0.136s-1.068,2.242-3.075,4.449c-2.009,2.206-4.511,3.64-4.511,3.64s2.502,1.434,4.511,3.641
		c2.008,2.206,3.075,4.448,3.075,4.448s1.068-2.242,3.076-4.448C4.497,9.387,7,7.953,7,7.953S4.497,6.518,2.489,4.313z"/>
</g>
<g id="layer1-2-6-8-2-8-1-9" transform="matrix(2.5882908,0,0,2.5882908,112.89593,151.18274)">
	<path id="dl-6-8-6-8-4-1" sodipodi:nodetypes="ccccccccc" inkscape:connector-curvature="0" fill="#DF0000" d="M2.489-6.294
		C0.481-8.5-0.587-10.743-0.587-10.743S-1.655-8.5-3.662-6.294c-2.009,2.205-4.511,3.64-4.511,3.64s2.502,1.434,4.511,3.641
		c2.008,2.206,3.075,4.448,3.075,4.448s1.068-2.242,3.076-4.448c2.008-2.207,4.51-3.641,4.51-3.641S4.497-4.089,2.489-6.294z"/>
</g>
<g id="layer1-2-6-8-2-8-1-4-7" transform="matrix(2.5882908,0,0,2.5882908,112.89593,91.351542)">
	<path id="dl-6-8-6-8-4-9-7" sodipodi:nodetypes="ccccccccc" inkscape:connector-curvature="0" fill="#DF0000" d="M2.489-0.986
		C0.481-3.193-0.587-5.435-0.587-5.435s-1.068,2.242-3.075,4.449c-2.009,2.206-4.511,3.64-4.511,3.64s2.502,1.434,4.511,3.641
		c2.008,2.206,3.075,4.448,3.075,4.448s1.068-2.242,3.076-4.448C4.497,4.088,7,2.654,7,2.654S4.497,1.219,2.489-0.986z"/>
</g>
<g id="layer1-2-6-8-2-4-8" transform="matrix(2.5882908,0,0,2.5882908,83.213394,61.828949)">
	<path id="dl-6-8-6-3-5" sodipodi:nodetypes="ccccccccc" inkscape:connector-curvature="0" fill="#DF0000" d="M3.081,19.194
		c-2.008-2.206-3.075-4.449-3.075-4.449s-1.068,2.242-3.076,4.449c-2.009,2.206-4.511,3.64-4.511,3.64s2.502,1.434,4.511,3.641
		c2.007,2.205,3.076,4.448,3.076,4.448s1.068-2.242,3.075-4.448c2.009-2.208,4.511-3.641,4.511-3.641S5.09,21.399,3.081,19.194z"/>
</g>
</svg>
