<?xml version="1.0" encoding="utf-8"?>
<!-- Generator: Adobe Illustrator 16.0.0, SVG Export Plug-In . SVG Version: 6.00 Build 0)  -->
<!DOCTYPE svg PUBLIC "-//W3C//DTD SVG 1.1//EN" "http://www.w3.org/Graphics/SVG/1.1/DTD/svg11.dtd">
<svg version="1.1"
	 id="svg2" inkscape:version="0.48.0 r9654" sodipodi:docname="8_of_hearts.svg" inkscape:export-xdpi="215.44792" inkscape:export-ydpi="215.44792" xmlns:dc="http://purl.org/dc/elements/1.1/" xmlns:cc="http://creativecommons.org/ns#" xmlns:rdf="http://www.w3.org/1999/02/22-rdf-syntax-ns#" xmlns:svg="http://www.w3.org/2000/svg" xmlns:sodipodi="http://sodipodi.sourceforge.net/DTD/sodipodi-0.dtd" xmlns:inkscape="http://www.inkscape.org/namespaces/inkscape" inkscape:export-filename="/home/byron/art/cards/final/PNGs/8_of_hearts.png"
	 xmlns="http://www.w3.org/2000/svg" xmlns:xlink="http://www.w3.org/1999/xlink" x="0px" y="0px" width="167.086px"
	 height="242.667px" viewBox="0 0 167.086 242.667" enable-background="new 0 0 167.086 242.667" xml:space="preserve">
<sodipodi:namedview  id="namedview39" inkscape:pageopacity="0" inkscape:pageshadow="2" inkscape:window-width="1680" inkscape:window-height="977" inkscape:window-x="0" inkscape:window-y="25" inkscape:current-layer="svg2" inkscape:cy="147.27218" bordercolor="#666666" showgrid="false" borderopacity="1" objecttolerance="10" inkscape:zoom="1.7208768" gridtolerance="10" guidetolerance="10" inkscape:cx="-28.405554" pagecolor="#ffffff" inkscape:window-maximized="1">
	</sodipodi:namedview>
<g id="Layer_x0020_1">
	<path id="path5" fill="#FFFFFF" stroke="#000000" stroke-width="0.5" d="M166.836,235.548c0,3.777-3.086,6.869-6.871,6.869H7.111
		c-3.775,0-6.861-3.092-6.861-6.869V7.12c0-3.777,3.086-6.87,6.861-6.87h152.854c3.785,0,6.871,3.093,6.871,6.87V235.548z"/>
	<g id="g7">
		<g id="g9">
		</g>
	</g>
	<g id="g15">
	</g>
	<g id="g19">
	</g>
	<g id="g23">
		<g id="g25">
		</g>
	</g>
	<g id="g31">
		<g id="g33">
		</g>
	</g>
</g>
<text transform="matrix(1.1816 0 0 1 4.5 30.6953)" fill="#DF0000" font-family="'ArialMT'" font-size="38.0433">8</text>
<g id="layer1-9-6" transform="matrix(1.6743072,0,0,1.5669921,17.177511,46.385321)">
	<path id="hl-8" inkscape:connector-curvature="0" sodipodi:nodetypes="scsscss" fill="#DF0000" d="M2.478-6.019
		c-2.542,0-2.881,2.588-2.881,2.588S-0.742-6.02-3.285-6.02c-1.78,0-3.39,1.161-3.39,3.35c0,2.893,5.158,5.803,6.272,10.051
		c1.06-4.244,6.271-7.157,6.271-10.05C5.868-4.858,4.258-6.019,2.478-6.019z"/>
</g>
<text transform="matrix(-1.1816 0 0 -1 162.418 211.9038)" fill="#DF0000" font-family="'ArialMT'" font-size="38.0433">8</text>
<g id="layer1-9-6-5" transform="matrix(-1.6743072,0,0,-1.5669921,150.15601,195.14313)">
	<path id="hl-8-1" inkscape:connector-curvature="0" sodipodi:nodetypes="scsscss" fill="#DF0000" d="M2.881-6.701
		C0.34-6.701,0-4.113,0-4.113S-0.34-6.701-2.882-6.701c-1.78,0-3.39,1.16-3.39,3.35c0,2.894,5.157,5.803,6.271,10.051
		C1.06,2.456,6.271-0.457,6.271-3.35C6.271-5.54,4.661-6.701,2.881-6.701z"/>
</g>
<g id="layer1-9-6-8" transform="matrix(2.7790082,0,0,2.600887,54.512268,31.603768)">
	<path id="hl-8-8" inkscape:connector-curvature="0" sodipodi:nodetypes="scsscss" fill="#DF0000" d="M4.149-0.409
		c-3.014,0-3.417,2.784-3.417,2.784S0.33-0.409-2.685-0.409c-2.11,0-4.019,1.248-4.019,3.603c0,3.111,6.115,6.24,7.436,10.809
		c1.257-4.566,7.436-7.698,7.436-10.81C8.168,0.839,6.259-0.409,4.149-0.409z"/>
</g>
<g id="layer1-9-6-8-9" transform="matrix(-2.7790082,0,0,-2.600887,54.512268,208.00617)">
	<path id="hl-8-8-5" inkscape:connector-curvature="0" sodipodi:nodetypes="scsscss" fill="#DF0000" d="M2.685-0.481
		c-3.014,0-3.417,2.784-3.417,2.784s-0.403-2.784-3.417-2.784c-2.11,0-4.019,1.248-4.019,3.603c0,3.111,6.115,6.24,7.436,10.809
		C0.525,9.365,6.704,6.233,6.704,3.122C6.704,0.767,4.795-0.481,2.685-0.481z"/>
</g>
<g id="layer1-9-6-8-8" transform="matrix(2.7790082,0,0,2.600887,54.512268,125.30457)">
	<path id="hl-8-8-8" inkscape:connector-curvature="0" sodipodi:nodetypes="scsscss" fill="#DF0000" d="M4.149-7.591
		c-3.014,0-3.417,2.784-3.417,2.784S0.33-7.591-2.685-7.591c-2.11,0-4.019,1.248-4.019,3.603c0,3.111,6.115,6.24,7.436,10.809
		C1.989,2.256,8.168-0.877,8.168-3.988C8.168-6.343,6.259-7.591,4.149-7.591z"/>
</g>
<g id="layer1-9-6-8-88" transform="matrix(2.7790082,0,0,2.600887,112.2504,31.272778)">
	<path id="hl-8-8-4" inkscape:connector-curvature="0" sodipodi:nodetypes="scsscss" fill="#DF0000" d="M2.685-0.384
		C-0.33-0.384-0.732,2.4-0.732,2.4s-0.403-2.784-3.417-2.784c-2.11,0-4.019,1.248-4.019,3.603c0,3.111,6.116,6.24,7.436,10.809
		C0.525,9.463,6.704,6.33,6.704,3.219C6.704,0.864,4.795-0.384,2.685-0.384z"/>
</g>
<g id="layer1-9-6-8-9-3" transform="matrix(-2.7790082,0,0,-2.600887,112.2504,209.27518)">
	<path id="hl-8-8-5-1" inkscape:connector-curvature="0" sodipodi:nodetypes="scsscss" fill="#DF0000" d="M4.149-0.384
		C1.135-0.384,0.732,2.4,0.732,2.4S0.33-0.384-2.685-0.384c-2.11,0-4.019,1.248-4.019,3.603c0,3.111,6.116,6.24,7.436,10.809
		C1.989,9.463,8.168,6.33,8.168,3.219C8.168,0.864,6.259-0.384,4.149-0.384z"/>
</g>
<g id="layer1-9-6-8-8-4" transform="matrix(2.7790082,0,0,2.600887,112.2504,124.97358)">
	<path id="hl-8-8-8-9" inkscape:connector-curvature="0" sodipodi:nodetypes="scsscss" fill="#DF0000" d="M2.685-7.566
		c-3.014,0-3.417,2.784-3.417,2.784s-0.403-2.784-3.417-2.784c-2.11,0-4.019,1.248-4.019,3.603c0,3.111,6.116,6.24,7.436,10.809
		C0.525,2.28,6.704-0.852,6.704-3.963C6.704-6.318,4.795-7.566,2.685-7.566z"/>
</g>
<g id="layer1-9-6-8-884" transform="matrix(2.7790082,0,0,2.600887,83.678269,76.705082)">
	<path id="hl-8-8-3" inkscape:connector-curvature="0" sodipodi:nodetypes="scsscss" fill="#DF0000" d="M3.409-3.866
		c-3.014,0-3.417,2.784-3.417,2.784S-0.41-3.866-3.424-3.866c-2.11,0-4.019,1.248-4.019,3.603c0,3.111,6.115,6.24,7.436,10.809
		C1.249,5.98,7.429,2.848,7.429-0.263C7.429-2.618,5.519-3.866,3.409-3.866z"/>
</g>
<g id="layer1-9-6-8-884-8" transform="matrix(-2.7790082,0,0,-2.600887,83.213395,162.70775)">
	<path id="hl-8-8-3-8" inkscape:connector-curvature="0" sodipodi:nodetypes="scsscss" fill="#DF0000" d="M3.413-3.953
		c-3.015,0-3.417,2.785-3.417,2.785s-0.402-2.785-3.417-2.785c-2.11,0-4.019,1.248-4.019,3.603c0,3.111,6.116,6.24,7.436,10.808
		C1.252,5.894,7.432,2.761,7.432-0.35C7.432-2.705,5.523-3.953,3.413-3.953z"/>
</g>
</svg>
