<?xml version="1.0" encoding="utf-8"?>
<!-- Generator: Adobe Illustrator 16.0.0, SVG Export Plug-In . SVG Version: 6.00 Build 0)  -->
<!DOCTYPE svg PUBLIC "-//W3C//DTD SVG 1.1//EN" "http://www.w3.org/Graphics/SVG/1.1/DTD/svg11.dtd">
<svg version="1.1"
	 id="svg2" inkscape:export-ydpi="215.44792" inkscape:export-xdpi="215.44792" sodipodi:docname="A_of_hearts.svg" inkscape:version="0.48.0 r9654" xmlns:dc="http://purl.org/dc/elements/1.1/" xmlns:cc="http://creativecommons.org/ns#" xmlns:rdf="http://www.w3.org/1999/02/22-rdf-syntax-ns#" xmlns:svg="http://www.w3.org/2000/svg" xmlns:sodipodi="http://sodipodi.sourceforge.net/DTD/sodipodi-0.dtd" xmlns:inkscape="http://www.inkscape.org/namespaces/inkscape" inkscape:export-filename="/home/byron/art/cards/final/PNGs/A_of_hearts.png"
	 xmlns="http://www.w3.org/2000/svg" xmlns:xlink="http://www.w3.org/1999/xlink" x="0px" y="0px" width="167.086px"
	 height="242.667px" viewBox="0 0 167.086 242.667" enable-background="new 0 0 167.086 242.667" xml:space="preserve">
<filter  id="filter3834-6-3" width="1.2786888" inkscape:collect="always" color-interpolation-filters="sRGB" height="1.3248404" x="-0.13934441" y="-0.16242018">
	<feGaussianBlur  id="feGaussianBlur3836-6-3" inkscape:collect="always" stdDeviation="9.5105772"></feGaussianBlur>
</filter>
<filter  id="filter3834-6" width="1.2786888" inkscape:collect="always" color-interpolation-filters="sRGB" height="1.3248404" x="-0.13934441" y="-0.16242018">
	<feGaussianBlur  id="feGaussianBlur3836-6" inkscape:collect="always" stdDeviation="9.5105772"></feGaussianBlur>
</filter>
<sodipodi:namedview  id="namedview39" inkscape:current-layer="svg2" inkscape:window-y="25" inkscape:window-x="0" inkscape:window-height="977" inkscape:window-width="1680" inkscape:pageshadow="2" inkscape:pageopacity="0" inkscape:cy="147.27218" inkscape:cx="72.124594" guidetolerance="10" gridtolerance="10" inkscape:zoom="1.7208768" objecttolerance="10" borderopacity="1" showgrid="false" bordercolor="#666666" pagecolor="#ffffff" inkscape:window-maximized="1">
	</sodipodi:namedview>
<g id="Layer_x0020_1">
	<path id="path5" fill="#FFFFFF" stroke="#000000" stroke-width="0.5" d="M166.836,235.548c0,3.777-3.086,6.869-6.871,6.869H7.111
		c-3.775,0-6.861-3.092-6.861-6.869V7.12c0-3.777,3.086-6.87,6.861-6.87h152.854c3.785,0,6.871,3.093,6.871,6.87V235.548z"/>
	<g id="g7">
		<g id="g9">
		</g>
	</g>
	<g id="g15">
	</g>
	<g id="g19">
	</g>
	<g id="g23">
		<g id="g25">
		</g>
	</g>
	<g id="g31">
		<g id="g33">
		</g>
	</g>
</g>
<text transform="matrix(0.9802 0 0 1 4.5557 35.147)" fill="#DF0000" font-family="'ArialMT'" font-size="38.0433">A</text>
<g id="g3036" transform="matrix(0.19686979,0,0,0.19686979,11.54991,16.869674)">
	<g id="layer1-9" transform="matrix(34.670635,0,0,32.448413,363.65075,535.3979)">
		
			<radialGradient id="hl_1_" cx="-52.5032" cy="54.0764" r="7.9765" gradientTransform="matrix(-317.9965 0 0 448.4263 -16696.0645 -24254.3457)" gradientUnits="userSpaceOnUse">
			<stop  offset="0" style="stop-color:#DF0000"/>
			<stop  offset="1" style="stop-color:#DF0000;stop-opacity:0.6718"/>
		</radialGradient>
		<path id="hl" inkscape:connector-curvature="0" sodipodi:nodetypes="scsscss" fill="url(#hl_1_)" d="M3.676-9
			C0.433-9,0-5.523,0-5.523S-0.433-9-3.676-9C-5.946-9-8-7.441-8-4.5C-8-0.614-1.421,3.294,0,9C1.352,3.299,8-0.614,8-4.5
			C8-7.441,5.946-9,3.676-9z"/>
	</g>
	<g id="path3762-6-4" inkscape:connector-curvature="0" sodipodi:nodetypes="cscsc" filter="url(#filter3834-6)">
		
			<radialGradient id="SVGID_1_" cx="23587.9297" cy="-626123.75" r="81.9027" gradientTransform="matrix(0.0131 -0.0079 -0.0045 -0.0079 -2941.7681 -4454.1553)" gradientUnits="userSpaceOnUse">
			<stop  offset="0" style="stop-color:#FFFFFF;stop-opacity:0.313"/>
			<stop  offset="1" style="stop-color:#000000;stop-opacity:0"/>
		</radialGradient>
		<path fill="url(#SVGID_1_)" d="M93.414,478.226c0,0-11.975-145.949,33.927-188.844c51.591-48.218,207.793-17.567,207.793-17.567
			s-106.183,38.178-148.424,74.66C146.323,381.354,93.414,478.226,93.414,478.226z"/>
	</g>
	<g id="path3762-6-2-3" inkscape:connector-curvature="0" sodipodi:nodetypes="cscsc" filter="url(#filter3834-6-3)">
		
			<radialGradient id="SVGID_2_" cx="138772.3125" cy="-659482.875" r="81.9028" gradientTransform="matrix(0.0114 -0.0048 -0.0023 -0.0082 -2654.032 -4416.5894)" gradientUnits="userSpaceOnUse">
			<stop  offset="0" style="stop-color:#FFFFFF;stop-opacity:0.2901"/>
			<stop  offset="1" style="stop-color:#000000;stop-opacity:0"/>
		</radialGradient>
		<path fill="url(#SVGID_2_)" d="M359.245,434.688c0,0,21.96-135.812,66.812-164.481c50.418-32.228,165.222,31.276,165.222,31.276
			s-84.962,30.646-125.608,54.299C426.821,378.395,359.245,434.688,359.245,434.688z"/>
	</g>
</g>
<g id="layer1-9-6" transform="matrix(1.6743072,0,0,1.5669921,17.177511,46.385321)">
	<path id="hl-8" inkscape:connector-curvature="0" sodipodi:nodetypes="scsscss" fill="#DF0000" d="M2.926-3.117
		c-2.542,0-2.881,2.589-2.881,2.589s-0.339-2.589-2.882-2.589c-1.78,0-3.39,1.161-3.39,3.35c0,2.893,5.158,5.803,6.272,10.051
		c1.06-4.244,6.271-7.157,6.271-10.05C6.317-1.956,4.706-3.117,2.926-3.117z"/>
</g>
<text transform="matrix(-0.9802 0 0 -1 162.8535 209.853)" fill="#DF0000" font-family="'ArialMT'" font-size="38.0433">A</text>
<g id="layer1-9-6-5" transform="matrix(-1.6743072,0,0,-1.5669921,150.15601,195.14313)">
	<path id="hl-8-1" inkscape:connector-curvature="0" sodipodi:nodetypes="scsscss" fill="#DF0000" d="M2.881-5.333
		C0.34-5.333,0-2.745,0-2.745S-0.34-5.333-2.882-5.333c-1.78,0-3.39,1.16-3.39,3.35c0,2.894,5.157,5.803,6.271,10.051
		C1.06,3.825,6.271,0.912,6.271-1.981C6.271-4.171,4.661-5.333,2.881-5.333z"/>
</g>
</svg>
