<?xml version="1.0" encoding="utf-8"?>
<!-- Generator: Adobe Illustrator 16.0.0, SVG Export Plug-In . SVG Version: 6.00 Build 0)  -->
<!DOCTYPE svg PUBLIC "-//W3C//DTD SVG 1.1//EN" "http://www.w3.org/Graphics/SVG/1.1/DTD/svg11.dtd">
<svg version="1.1"
	 id="svg2" xmlns:cc="http://creativecommons.org/ns#" xmlns:rdf="http://www.w3.org/1999/02/22-rdf-syntax-ns#" xmlns:svg="http://www.w3.org/2000/svg" xmlns:sodipodi="http://sodipodi.sourceforge.net/DTD/sodipodi-0.dtd" xmlns:inkscape="http://www.inkscape.org/namespaces/inkscape" xmlns:dc="http://purl.org/dc/elements/1.1/" inkscape:export-ydpi="215.44792" inkscape:export-xdpi="215.44792" sodipodi:docname="7_of_spades.svg" inkscape:version="0.48.0 r9654" inkscape:export-filename="/home/byron/art/cards/final/PNGs/7_of_spades.png"
	 xmlns="http://www.w3.org/2000/svg" xmlns:xlink="http://www.w3.org/1999/xlink" x="0px" y="0px" width="167.086px"
	 height="242.667px" viewBox="0 0 167.086 242.667" enable-background="new 0 0 167.086 242.667" xml:space="preserve">
<sodipodi:namedview  inkscape:cy="157.08206" inkscape:cx="106.02254" guidetolerance="10" gridtolerance="10" inkscape:zoom="2.4336873" objecttolerance="10" borderopacity="1" showgrid="false" pagecolor="#ffffff" bordercolor="#666666" inkscape:window-maximized="1" id="namedview39" inkscape:current-layer="svg2" inkscape:window-y="25" inkscape:window-x="0" inkscape:window-height="977" inkscape:window-width="1680" inkscape:pageshadow="2" inkscape:pageopacity="0">
	</sodipodi:namedview>
<g id="Layer_x0020_1">
	<path id="path5" fill="#FFFFFF" stroke="#000000" stroke-width="0.5" d="M166.836,235.548c0,3.777-3.086,6.869-6.871,6.869H7.111
		c-3.775,0-6.861-3.092-6.861-6.869V7.12c0-3.777,3.086-6.87,6.861-6.87h152.854c3.785,0,6.871,3.093,6.871,6.87V235.548z"/>
	<g id="g7">
		<g id="g9">
		</g>
	</g>
	<g id="g15">
	</g>
	<g id="g19">
	</g>
	<g id="g23">
		<g id="g25">
		</g>
	</g>
	<g id="g31">
		<g id="g33">
		</g>
	</g>
</g>
<text transform="matrix(1.1816 0 0 1 4.5 35.147)" font-family="'ArialMT'" font-size="38.0433">7</text>
<g id="layer1-7" transform="matrix(1.5085945,0,0,1.3793253,16.929104,45.065897)">
	<path id="sl" inkscape:connector-curvature="0" sodipodi:nodetypes="cccccccccc" d="M6.998,7.278
		C6.787,4.337,0.257-1.199,0.047-2.585c-0.211,1.384-6.74,6.92-6.951,9.862c-0.147,2.079,1.475,2.941,2.95,2.941
		c1.597-0.016,2.915-2.031,3.369-2.422c0.21,0.519-1.395,4.844-1.896,4.844h5.056c-0.501,0-2.106-4.325-1.896-4.844
		c0.398,0.36,1.564,2.362,3.371,2.422C5.524,10.217,7.145,9.356,6.998,7.278z"/>
</g>
<g id="layer1-7-88" transform="matrix(2.6486789,0,0,2.4217176,54.61089,44.565995)">
	<path id="sl-4" inkscape:connector-curvature="0" sodipodi:nodetypes="cccccccccc" d="M8.146,6.001
		C7.917,1.946,0.812-5.687,0.583-7.597C0.354-5.689-6.751,1.945-6.98,6.001c-0.16,2.867,1.605,4.056,3.209,4.056
		c1.737-0.022,3.172-2.8,3.667-3.34c0.229,0.716-1.518,6.68-2.063,6.68h5.501c-0.545,0-2.292-5.964-2.063-6.68
		c0.433,0.496,1.701,3.257,3.667,3.34C6.543,10.056,8.306,8.868,8.146,6.001z"/>
</g>
<text transform="matrix(-1.1816 0 0 -1 162.5 209.853)" font-family="'ArialMT'" font-size="38.0433">7</text>
<g id="layer1-7-3" transform="matrix(-1.5085945,0,0,-1.3793253,150.22511,198.04408)">
	<path id="sl-1" inkscape:connector-curvature="0" sodipodi:nodetypes="cccccccccc" d="M7.1,5.906
		C6.889,2.965,0.359-2.571,0.149-3.956c-0.21,1.384-6.74,6.92-6.951,9.862c-0.146,2.079,1.475,2.942,2.949,2.942
		c1.596-0.016,2.918-2.031,3.369-2.423c0.21,0.518-1.394,4.844-1.897,4.844h5.056c-0.5,0-2.104-4.327-1.895-4.844
		c0.397,0.36,1.564,2.362,3.371,2.423C5.625,8.846,7.246,7.985,7.1,5.906z"/>
</g>
<g id="layer1-7-88-7" transform="matrix(-2.6486789,0,0,-2.4217176,54.65613,198.57132)">
	<path id="sl-4-5" inkscape:connector-curvature="0" sodipodi:nodetypes="cccccccccc" d="M6.981,10.544
		C6.752,6.488-0.353-1.146-0.582-3.055c-0.229,1.908-7.334,9.542-7.563,13.599c-0.16,2.867,1.605,4.055,3.209,4.055
		c1.737-0.022,3.172-2.799,3.667-3.34c0.229,0.715-1.517,6.68-2.063,6.68h5.501c-0.545,0-2.292-5.964-2.063-6.68
		c0.433,0.496,1.701,3.257,3.667,3.34C5.377,14.598,7.141,13.411,6.981,10.544z"/>
</g>
<g id="layer1-7-88-6" transform="matrix(2.6486789,0,0,2.4217176,54.694697,119.06732)">
	<path id="sl-4-8" inkscape:connector-curvature="0" sodipodi:nodetypes="cccccccccc" d="M8.145,5.991
		C7.916,1.935,0.81-5.698,0.581-7.607C0.352-5.699-6.753,1.934-6.982,5.991c-0.16,2.867,1.605,4.056,3.209,4.056
		c1.737-0.021,3.172-2.8,3.667-3.34c0.229,0.716-1.518,6.68-2.063,6.68h5.501c-0.545,0-2.292-5.964-2.063-6.68
		c0.433,0.496,1.702,3.257,3.668,3.34C6.541,10.046,8.305,8.858,8.145,5.991z"/>
</g>
<g id="layer1-7-88-68" transform="matrix(2.6486789,0,0,2.4217176,112.49781,44.366905)">
	<path id="sl-4-84" inkscape:connector-curvature="0" sodipodi:nodetypes="cccccccccc" d="M6.982,6.001
		C6.753,1.946-0.352-5.688-0.581-7.597c-0.23,1.908-7.334,9.542-7.564,13.598c-0.16,2.867,1.605,4.056,3.21,4.056
		c1.737-0.022,3.172-2.8,3.666-3.34c0.229,0.716-1.518,6.68-2.063,6.68H2.17c-0.545,0-2.292-5.964-2.063-6.68
		c0.433,0.496,1.702,3.257,3.667,3.34C5.378,10.056,7.142,8.869,6.982,6.001z"/>
</g>
<g id="layer1-7-88-7-3" transform="matrix(-2.6486789,0,0,-2.4217176,112.54305,198.37223)">
	<path id="sl-4-5-1" inkscape:connector-curvature="0" sodipodi:nodetypes="cccccccccc" d="M8.146,10.544
		C7.917,6.488,0.812-1.146,0.582-3.055C0.353-1.147-6.752,6.487-6.981,10.544c-0.16,2.867,1.605,4.055,3.21,4.055
		c1.737-0.022,3.172-2.8,3.667-3.34c0.229,0.715-1.518,6.679-2.063,6.679h5.501c-0.545,0-2.292-5.964-2.063-6.679
		c0.433,0.496,1.701,3.257,3.668,3.34C6.542,14.598,8.306,13.411,8.146,10.544z"/>
</g>
<g id="layer1-7-88-6-4" transform="matrix(2.6486789,0,0,2.4217176,112.58162,118.86823)">
	<path id="sl-4-8-9" inkscape:connector-curvature="0" sodipodi:nodetypes="cccccccccc" d="M6.98,5.991
		C6.751,1.936-0.354-5.698-0.583-7.607c-0.23,1.908-7.334,9.542-7.563,13.598c-0.16,2.867,1.605,4.056,3.21,4.056
		c1.737-0.021,3.172-2.8,3.666-3.34c0.229,0.716-1.518,6.68-2.063,6.68h5.501c-0.546,0-2.292-5.964-2.063-6.68
		c0.433,0.496,1.701,3.257,3.667,3.34C5.376,10.046,7.14,8.858,6.98,5.991z"/>
</g>
<g id="layer1-7-88-688" transform="matrix(2.6486789,0,0,2.4217176,83.494697,83.937953)">
	<path id="sl-4-4" inkscape:connector-curvature="0" sodipodi:nodetypes="cccccccccc" d="M7.565,5.996
		C7.336,1.94,0.231-5.693,0.002-7.602C-0.227-5.694-7.332,1.939-7.561,5.996c-0.16,2.867,1.605,4.056,3.209,4.056
		c1.737-0.022,3.172-2.8,3.667-3.34c0.229,0.716-1.518,6.68-2.063,6.68h5.501c-0.545,0-2.292-5.964-2.063-6.68
		c0.433,0.496,1.702,3.257,3.668,3.34C5.962,10.05,7.725,8.863,7.565,5.996z"/>
</g>
</svg>
