<?xml version="1.0" encoding="utf-8"?>
<!-- Generator: Adobe Illustrator 16.0.0, SVG Export Plug-In . SVG Version: 6.00 Build 0)  -->
<!DOCTYPE svg PUBLIC "-//W3C//DTD SVG 1.1//EN" "http://www.w3.org/Graphics/SVG/1.1/DTD/svg11.dtd">
<svg version="1.1"
	 id="svg2" xmlns:cc="http://creativecommons.org/ns#" xmlns:rdf="http://www.w3.org/1999/02/22-rdf-syntax-ns#" xmlns:svg="http://www.w3.org/2000/svg" xmlns:sodipodi="http://sodipodi.sourceforge.net/DTD/sodipodi-0.dtd" xmlns:inkscape="http://www.inkscape.org/namespaces/inkscape" xmlns:dc="http://purl.org/dc/elements/1.1/" inkscape:export-ydpi="215.44792" inkscape:export-xdpi="215.44792" sodipodi:docname="8_of_spades.svg" inkscape:version="0.48.0 r9654" inkscape:export-filename="/home/byron/art/cards/final/PNGs/8_of_spades.png"
	 xmlns="http://www.w3.org/2000/svg" xmlns:xlink="http://www.w3.org/1999/xlink" x="0px" y="0px" width="167.086px"
	 height="242.667px" viewBox="0 0 167.086 242.667" enable-background="new 0 0 167.086 242.667" xml:space="preserve">
<sodipodi:namedview  inkscape:cy="157.08206" inkscape:cx="106.02254" guidetolerance="10" gridtolerance="10" inkscape:zoom="2.4336873" objecttolerance="10" borderopacity="1" showgrid="false" pagecolor="#ffffff" bordercolor="#666666" inkscape:window-maximized="1" id="namedview39" inkscape:current-layer="svg2" inkscape:window-y="25" inkscape:window-x="0" inkscape:window-height="977" inkscape:window-width="1680" inkscape:pageshadow="2" inkscape:pageopacity="0">
	</sodipodi:namedview>
<g id="Layer_x0020_1">
	<path id="path5" fill="#FFFFFF" stroke="#000000" stroke-width="0.5" d="M166.836,235.548c0,3.777-3.086,6.869-6.871,6.869H7.111
		c-3.775,0-6.861-3.092-6.861-6.869V7.12c0-3.777,3.086-6.87,6.861-6.87h152.854c3.785,0,6.871,3.093,6.871,6.87V235.548z"/>
	<g id="g7">
		<g id="g9">
		</g>
	</g>
	<g id="g15">
	</g>
	<g id="g19">
	</g>
	<g id="g23">
		<g id="g25">
		</g>
	</g>
	<g id="g31">
		<g id="g33">
		</g>
	</g>
</g>
<text transform="matrix(1.1816 0 0 1 4.5 35.147)" font-family="'ArialMT'" font-size="38.0433">8</text>
<g id="layer1-7" transform="matrix(1.5085945,0,0,1.3793253,16.929104,45.065897)">
	<path id="sl" inkscape:connector-curvature="0" sodipodi:nodetypes="cccccccccc" d="M6.998,7.278
		C6.787,4.337,0.257-1.199,0.047-2.585c-0.211,1.384-6.74,6.92-6.951,9.862c-0.147,2.079,1.475,2.941,2.95,2.941
		c1.597-0.016,2.915-2.031,3.369-2.422c0.21,0.519-1.395,4.844-1.896,4.844h5.056c-0.501,0-2.106-4.325-1.896-4.844
		c0.398,0.36,1.564,2.362,3.371,2.422C5.524,10.217,7.145,9.356,6.998,7.278z"/>
</g>
<g id="layer1-7-88" transform="matrix(2.6486789,0,0,2.4217176,54.61089,44.565995)">
	<path id="sl-4" inkscape:connector-curvature="0" sodipodi:nodetypes="cccccccccc" d="M8.146,6.605
		C7.917,3.044,0.812-3.659,0.583-5.336C0.354-3.66-6.751,3.043-6.98,6.605c-0.16,2.518,1.605,3.561,3.209,3.561
		c1.737-0.019,3.172-2.458,3.667-2.933c0.229,0.628-1.518,5.866-2.063,5.866h5.501c-0.545,0-2.292-5.237-2.063-5.866
		c0.433,0.436,1.701,2.86,3.667,2.933C6.543,10.165,8.306,9.122,8.146,6.605z"/>
</g>
<text transform="matrix(-1.1816 0 0 -1 162.5 209.853)" font-family="'ArialMT'" font-size="38.0433">8</text>
<g id="layer1-7-3" transform="matrix(-1.5085945,0,0,-1.3793253,150.22511,198.04408)">
	<path id="sl-1" inkscape:connector-curvature="0" sodipodi:nodetypes="cccccccccc" d="M7.1,5.907
		C6.889,2.966,0.359-2.57,0.149-3.955c-0.21,1.384-6.74,6.92-6.951,9.862c-0.146,2.079,1.475,2.942,2.949,2.942
		c1.597-0.017,2.916-2.031,3.37-2.423c0.21,0.518-1.394,4.843-1.896,4.843h5.056c-0.5,0-2.104-4.325-1.894-4.843
		c0.396,0.36,1.564,2.362,3.371,2.423C5.625,8.847,7.246,7.986,7.1,5.907z"/>
</g>
<g id="layer1-7-88-7" transform="matrix(-2.6486789,0,0,-2.4217176,54.65613,198.57132)">
	<path id="sl-4-5" inkscape:connector-curvature="0" sodipodi:nodetypes="cccccccccc" d="M6.981,6.615
		C6.752,3.053-0.353-3.65-0.582-5.326C-0.811-3.65-7.916,3.052-8.145,6.615c-0.16,2.518,1.605,3.562,3.209,3.562
		c1.737-0.019,3.172-2.458,3.667-2.933c0.229,0.628-1.517,5.866-2.063,5.866h5.501c-0.545,0-2.292-5.237-2.063-5.866
		c0.433,0.436,1.701,2.86,3.667,2.933C5.377,10.175,7.141,9.132,6.981,6.615z"/>
</g>
<g id="layer1-7-88-6" transform="matrix(2.6486789,0,0,2.4217176,54.694697,119.06732)">
	<path id="sl-4-8" inkscape:connector-curvature="0" sodipodi:nodetypes="cccccccccc" d="M8.145,2.845
		C7.916-0.716,0.81-7.419,0.581-9.096C0.352-7.42-6.753-0.717-6.982,2.845c-0.16,2.518,1.605,3.562,3.209,3.562
		c1.738-0.02,3.173-2.459,3.667-2.934c0.229,0.629-1.518,5.865-2.063,5.865h5.501c-0.545,0-2.292-5.237-2.063-5.865
		c0.433,0.436,1.702,2.86,3.668,2.933C6.541,6.405,8.305,5.362,8.145,2.845z"/>
</g>
<g id="layer1-7-88-68" transform="matrix(2.6486789,0,0,2.4217176,112.49781,44.366905)">
	<path id="sl-4-84" inkscape:connector-curvature="0" sodipodi:nodetypes="cccccccccc" d="M6.982,6.615
		C6.753,3.054-0.352-3.649-0.581-5.326C-0.811-3.65-7.915,3.053-8.145,6.615c-0.16,2.518,1.605,3.561,3.21,3.561
		c1.737-0.019,3.172-2.459,3.666-2.933c0.229,0.629-1.518,5.866-2.063,5.866H2.17c-0.545,0-2.292-5.237-2.063-5.866
		c0.433,0.436,1.702,2.86,3.667,2.933C5.378,10.175,7.142,9.132,6.982,6.615z"/>
</g>
<g id="layer1-7-88-7-3" transform="matrix(-2.6486789,0,0,-2.4217176,112.54305,198.37223)">
	<path id="sl-4-5-1" inkscape:connector-curvature="0" sodipodi:nodetypes="cccccccccc" d="M8.146,6.605
		C7.917,3.043,0.812-3.66,0.582-5.336C0.353-3.66-6.752,3.042-6.981,6.605c-0.16,2.518,1.605,3.561,3.21,3.561
		c1.737-0.019,3.172-2.459,3.667-2.932c0.229,0.628-1.518,5.865-2.063,5.865h5.501c-0.545,0-2.292-5.237-2.063-5.865
		c0.433,0.436,1.701,2.859,3.668,2.932C6.542,10.165,8.306,9.122,8.146,6.605z"/>
</g>
<g id="layer1-7-88-6-4" transform="matrix(2.6486789,0,0,2.4217176,112.58162,118.86823)">
	<path id="sl-4-8-9" inkscape:connector-curvature="0" sodipodi:nodetypes="cccccccccc" d="M6.98,2.855
		C6.751-0.706-0.354-7.409-0.583-9.085c-0.23,1.675-7.334,8.378-7.563,11.94c-0.16,2.518,1.605,3.562,3.21,3.562
		c1.736-0.02,3.171-2.459,3.665-2.934c0.229,0.629-1.518,5.865-2.063,5.865h5.501c-0.546,0-2.292-5.237-2.063-5.865
		c0.433,0.436,1.701,2.86,3.667,2.933C5.376,6.415,7.14,5.372,6.98,2.855z"/>
</g>
<g id="layer1-7-88-688" transform="matrix(2.6486789,0,0,2.4217176,83.494697,83.937953)">
	<path id="sl-4-4" inkscape:connector-curvature="0" sodipodi:nodetypes="cccccccccc" d="M7.565,4.618
		C7.336,1.057,0.231-5.646,0.002-7.323C-0.227-5.647-7.332,1.056-7.561,4.618c-0.16,2.517,1.605,3.561,3.209,3.561
		C-2.614,8.16-1.18,5.721-0.685,5.246c0.229,0.628-1.518,5.865-2.063,5.865h5.501c-0.545,0-2.292-5.237-2.063-5.865
		c0.433,0.436,1.702,2.86,3.668,2.933C5.962,8.178,7.725,7.135,7.565,4.618z"/>
</g>
<g id="layer1-7-88-688-6" transform="matrix(-2.6486789,0,0,-2.4217176,83.165993,161.80325)">
	<path id="sl-4-4-8" inkscape:connector-curvature="0" sodipodi:nodetypes="cccccccccc" d="M7.555,4.759
		C7.325,1.198,0.221-5.505-0.009-7.182C-0.238-5.506-7.343,1.197-7.572,4.759c-0.16,2.518,1.605,3.562,3.21,3.562
		c1.737-0.019,3.173-2.458,3.667-2.932c0.229,0.628-1.518,5.865-2.063,5.865h5.501c-0.545,0-2.292-5.237-2.063-5.865
		C1.112,5.823,2.381,8.247,4.347,8.32C5.951,8.319,7.715,7.277,7.555,4.759z"/>
</g>
</svg>
