<?xml version="1.0" encoding="utf-8"?>
<!-- Generator: Adobe Illustrator 16.0.0, SVG Export Plug-In . SVG Version: 6.00 Build 0)  -->
<!DOCTYPE svg PUBLIC "-//W3C//DTD SVG 1.1//EN" "http://www.w3.org/Graphics/SVG/1.1/DTD/svg11.dtd">
<svg version="1.1"
	 id="svg2" inkscape:export-ydpi="215.44792" inkscape:export-xdpi="215.44792" sodipodi:docname="9_of_spades.svg" inkscape:version="0.48.0 r9654" xmlns:dc="http://purl.org/dc/elements/1.1/" xmlns:cc="http://creativecommons.org/ns#" xmlns:rdf="http://www.w3.org/1999/02/22-rdf-syntax-ns#" xmlns:svg="http://www.w3.org/2000/svg" xmlns:sodipodi="http://sodipodi.sourceforge.net/DTD/sodipodi-0.dtd" xmlns:inkscape="http://www.inkscape.org/namespaces/inkscape" inkscape:export-filename="/home/byron/art/cards/final/PNGs/9_of_spades.png"
	 xmlns="http://www.w3.org/2000/svg" xmlns:xlink="http://www.w3.org/1999/xlink" x="0px" y="0px" width="167.086px"
	 height="242.667px" viewBox="0 0 167.086 242.667" enable-background="new 0 0 167.086 242.667" xml:space="preserve">
<sodipodi:namedview  id="namedview39" inkscape:current-layer="svg2" inkscape:window-y="25" inkscape:window-x="0" inkscape:window-height="977" inkscape:window-width="1680" inkscape:pageshadow="2" inkscape:pageopacity="0" inkscape:cy="157.08206" inkscape:cx="106.02254" guidetolerance="10" gridtolerance="10" inkscape:zoom="2.4336873" objecttolerance="10" borderopacity="1" showgrid="false" bordercolor="#666666" pagecolor="#ffffff" inkscape:window-maximized="1">
	</sodipodi:namedview>
<g id="Layer_x0020_1">
	<path id="path5" fill="#FFFFFF" stroke="#000000" stroke-width="0.5" d="M166.836,235.548c0,3.777-3.086,6.869-6.871,6.869H7.111
		c-3.775,0-6.861-3.092-6.861-6.869V7.12c0-3.777,3.086-6.87,6.861-6.87h152.854c3.785,0,6.871,3.093,6.871,6.87V235.548z"/>
	<g id="g7">
		<g id="g9">
		</g>
	</g>
	<g id="g15">
	</g>
	<g id="g19">
	</g>
	<g id="g23">
		<g id="g25">
		</g>
	</g>
	<g id="g31">
		<g id="g33">
		</g>
	</g>
</g>
<text transform="matrix(1.1816 0 0 1 4.5 35.147)" font-family="'ArialMT'" font-size="38.0433">9</text>
<g id="layer1-7" transform="matrix(1.5085945,0,0,1.3793253,16.929041,45.065897)">
	<path id="sl" inkscape:connector-curvature="0" sodipodi:nodetypes="cccccccccc" d="M6.998,7.278
		C6.787,4.337,0.257-1.199,0.047-2.585c-0.211,1.384-6.74,6.92-6.951,9.862c-0.147,2.079,1.475,2.941,2.95,2.941
		c1.597-0.016,2.915-2.031,3.369-2.422c0.21,0.519-1.395,4.844-1.896,4.844h5.056c-0.501,0-2.106-4.325-1.896-4.844
		c0.398,0.36,1.564,2.362,3.371,2.422C5.524,10.217,7.145,9.356,6.998,7.278z"/>
</g>
<g id="layer1-7-88" transform="matrix(2.6486789,0,0,2.4217176,53.01089,31.765995)">
	<path id="sl-4" inkscape:connector-curvature="0" sodipodi:nodetypes="cccccccccc" d="M8.36,10.763
		C8.142,7.615,1.359,1.689,1.141,0.207C0.922,1.688-5.86,7.614-6.079,10.763c-0.153,2.226,1.532,3.148,3.064,3.148
		c1.659-0.017,3.028-2.173,3.5-2.593c0.219,0.556-1.448,5.185-1.969,5.185h5.252c-0.521,0-2.188-4.63-1.969-5.185
		c0.413,0.385,1.624,2.528,3.501,2.593C6.83,13.911,8.513,12.989,8.36,10.763z"/>
</g>
<text transform="matrix(-1.1816 0 0 -1 162.5762 209.853)" font-family="'ArialMT'" font-size="38.0433">9</text>
<g id="layer1-7-3" transform="matrix(-1.5085945,0,0,-1.3793253,150.22511,198.04408)">
	<path id="sl-1" inkscape:connector-curvature="0" sodipodi:nodetypes="cccccccccc" d="M6.951,5.906C6.74,2.965,0.21-2.57,0-3.955
		c-0.21,1.383-6.74,6.92-6.951,9.861c-0.146,2.08,1.475,2.942,2.949,2.942c1.596-0.016,2.918-2.032,3.369-2.423
		c0.21,0.518-1.394,4.844-1.897,4.844h5.056c-0.5,0-2.104-4.326-1.895-4.844c0.397,0.36,1.564,2.362,3.371,2.423
		C5.476,8.847,7.097,7.986,6.951,5.906z"/>
</g>
<g id="layer1-7-88-8" transform="matrix(2.6486789,0,0,2.4217176,53.339713,94.698498)">
	<path id="sl-4-8" inkscape:connector-curvature="0" sodipodi:nodetypes="cccccccccc" d="M8.348,2.701
		C8.13-0.448,1.347-6.374,1.129-7.856C0.91-6.375-5.872-0.449-6.091,2.701C-6.244,4.927-4.559,5.85-3.027,5.85
		c1.659-0.017,3.028-2.174,3.5-2.593c0.219,0.556-1.449,5.186-1.969,5.186h5.251c-0.52,0-2.188-4.63-1.969-5.186
		C2.199,3.641,3.41,5.785,5.287,5.849C6.817,5.848,8.501,4.926,8.348,2.701z"/>
</g>
<g id="layer1-7-88-4" transform="matrix(-2.6486789,0,0,-2.4217176,53.789261,212.66394)">
	<path id="sl-4-3" inkscape:connector-curvature="0" sodipodi:nodetypes="cccccccccc" d="M6.107,10.781
		C5.889,7.632-0.894,1.706-1.112,0.224c-0.219,1.482-7.001,7.407-7.22,10.556c-0.153,2.226,1.532,3.15,3.064,3.15
		c1.658-0.017,3.028-2.174,3.5-2.593c0.219,0.556-1.449,5.186-1.969,5.186h5.252c-0.521,0-2.188-4.63-1.969-5.186
		c0.413,0.386,1.624,2.528,3.501,2.593C4.577,13.928,6.26,13.006,6.107,10.781z"/>
</g>
<g id="layer1-7-88-8-1" transform="matrix(-2.6486789,0,0,-2.4217176,53.460438,151.33144)">
	<path id="sl-4-8-4" inkscape:connector-curvature="0" sodipodi:nodetypes="cccccccccc" d="M6.096,3.507
		C5.877,0.358-0.906-5.567-1.124-7.05c-0.219,1.482-7.001,7.407-7.22,10.557C-8.497,5.733-6.812,6.656-5.28,6.656
		c1.658-0.017,3.028-2.174,3.5-2.593c0.219,0.556-1.449,5.186-1.969,5.186h5.252c-0.521,0-2.188-4.63-1.969-5.186
		c0.413,0.386,1.624,2.529,3.501,2.593C4.564,6.655,6.248,5.733,6.096,3.507z"/>
</g>
<g id="layer1-7-88-9" transform="matrix(2.6486789,0,0,2.4217176,114.97822,31.578035)">
	<path id="sl-4-2" inkscape:connector-curvature="0" sodipodi:nodetypes="cccccccccc" d="M6.108,10.781
		C5.889,7.632-0.893,1.706-1.112,0.224c-0.219,1.482-7.001,7.408-7.219,10.557c-0.153,2.226,1.532,3.148,3.064,3.148
		c1.658-0.017,3.028-2.173,3.5-2.593c0.219,0.556-1.449,5.186-1.969,5.186h5.251c-0.521,0-2.188-4.63-1.969-5.186
		c0.413,0.385,1.624,2.528,3.501,2.593C4.577,13.929,6.26,13.007,6.108,10.781z"/>
</g>
<g id="layer1-7-88-8-0" transform="matrix(2.6486789,0,0,2.4217176,115.30704,94.510535)">
	<path id="sl-4-8-6" inkscape:connector-curvature="0" sodipodi:nodetypes="cccccccccc" d="M6.095,2.718
		C5.877-0.43-0.906-6.356-1.124-7.839c-0.219,1.482-7.001,7.408-7.22,10.557C-8.497,4.944-6.812,5.867-5.28,5.867
		c1.659-0.017,3.028-2.174,3.5-2.593c0.219,0.555-1.449,5.185-1.969,5.185h5.252c-0.521,0-2.188-4.63-1.969-5.185
		c0.413,0.385,1.624,2.528,3.501,2.593C4.565,5.866,6.248,4.944,6.095,2.718z"/>
</g>
<g id="layer1-7-88-4-8" transform="matrix(-2.6486789,0,0,-2.4217176,115.75659,212.47597)">
	<path id="sl-4-3-9" inkscape:connector-curvature="0" sodipodi:nodetypes="cccccccccc" d="M8.36,10.764
		C8.142,7.615,1.359,1.689,1.141,0.207C0.922,1.688-5.86,7.614-6.079,10.764c-0.153,2.226,1.532,3.149,3.064,3.149
		c1.658-0.017,3.028-2.174,3.5-2.593c0.219,0.556-1.448,5.186-1.969,5.186h5.252c-0.521,0-2.188-4.63-1.969-5.186
		c0.413,0.386,1.624,2.529,3.501,2.593C6.83,13.911,8.513,12.99,8.36,10.764z"/>
</g>
<g id="layer1-7-88-8-1-2" transform="matrix(-2.6486789,0,0,-2.4217176,115.42777,151.14347)">
	<path id="sl-4-8-4-6" inkscape:connector-curvature="0" sodipodi:nodetypes="cccccccccc" d="M8.348,3.49
		C8.13,0.341,1.347-5.585,1.128-7.067C0.91-5.586-5.873,0.34-6.091,3.49c-0.153,2.226,1.532,3.148,3.064,3.148
		c1.658-0.017,3.028-2.174,3.5-2.593c0.219,0.556-1.449,5.186-1.969,5.186h5.251c-0.52,0-2.188-4.63-1.969-5.186
		C2.199,4.431,3.41,6.574,5.287,6.638C6.817,6.637,8.501,5.715,8.348,3.49z"/>
</g>
<g id="layer1-7-88-6" transform="matrix(2.6486789,0,0,2.4217176,84.152135,64.171198)">
	<path id="sl-4-4" inkscape:connector-curvature="0" sodipodi:nodetypes="cccccccccc" d="M7.228,24.43
		c-0.219-3.148-7.001-9.074-7.219-10.556c-0.219,1.481-7.001,7.407-7.22,10.556c-0.153,2.226,1.532,3.149,3.064,3.149
		c1.658-0.017,3.028-2.174,3.5-2.593c0.219,0.556-1.449,5.185-1.969,5.185h5.252c-0.521,0-2.188-4.63-1.969-5.185
		c0.413,0.385,1.624,2.528,3.501,2.593C5.697,27.578,7.381,26.656,7.228,24.43z"/>
</g>
</svg>
