<?xml version="1.0" encoding="utf-8"?>
<!-- Generator: Adobe Illustrator 16.0.0, SVG Export Plug-In . SVG Version: 6.00 Build 0)  -->
<!DOCTYPE svg PUBLIC "-//W3C//DTD SVG 1.1//EN" "http://www.w3.org/Graphics/SVG/1.1/DTD/svg11.dtd">
<svg version="1.1"
	 id="svg2" inkscape:export-ydpi="215.44792" inkscape:export-xdpi="215.44792" sodipodi:docname="2_of_clubs.svg" inkscape:version="0.48.0 r9654" xmlns:dc="http://purl.org/dc/elements/1.1/" xmlns:cc="http://creativecommons.org/ns#" xmlns:rdf="http://www.w3.org/1999/02/22-rdf-syntax-ns#" xmlns:svg="http://www.w3.org/2000/svg" xmlns:sodipodi="http://sodipodi.sourceforge.net/DTD/sodipodi-0.dtd" xmlns:inkscape="http://www.inkscape.org/namespaces/inkscape" inkscape:export-filename="/home/byron/art/cards/final/PNGs/2_of_clubs.png"
	 xmlns="http://www.w3.org/2000/svg" xmlns:xlink="http://www.w3.org/1999/xlink" x="0px" y="0px" width="167.086px"
	 height="242.667px" viewBox="0 0 167.086 242.667" enable-background="new 0 0 167.086 242.667" xml:space="preserve">
<sodipodi:namedview  id="namedview39" inkscape:current-layer="svg2" inkscape:window-y="25" inkscape:window-x="0" inkscape:window-height="977" inkscape:window-width="1680" inkscape:pageshadow="2" inkscape:pageopacity="0" inkscape:cy="148.16686" inkscape:cx="117.62976" guidetolerance="10" gridtolerance="10" inkscape:zoom="2.4336873" objecttolerance="10" borderopacity="1" showgrid="false" bordercolor="#666666" pagecolor="#ffffff" inkscape:window-maximized="1">
	</sodipodi:namedview>
<g id="Layer_x0020_1">
	<path id="path5" fill="#FFFFFF" stroke="#000000" stroke-width="0.5" d="M166.836,235.548c0,3.777-3.086,6.869-6.871,6.869H7.111
		c-3.775,0-6.861-3.092-6.861-6.869V7.12c0-3.777,3.086-6.87,6.861-6.87h152.854c3.785,0,6.871,3.093,6.871,6.87V235.548z"/>
	<g id="g7">
		<g id="g9">
		</g>
	</g>
	<g id="g15">
	</g>
	<g id="g19">
	</g>
	<g id="g23">
		<g id="g25">
		</g>
	</g>
	<g id="g31">
		<g id="g33">
		</g>
	</g>
</g>
<text transform="matrix(1 0 0 1 9.7319 35.4551)" font-family="'ArialMT'" font-size="41.2128">2</text>
<g id="layer1-1-4" transform="matrix(1.4856506,0,0,1.4856506,-54.024661,10.018072)">
	<path id="cl-9" inkscape:connector-curvature="0" d="M53.648,31.157c0,0,3.059-2.447,3.059-5.839c0-1.986-1.763-5.283-5.839-5.283
		c-4.076,0-5.839,3.298-5.839,5.283c0,3.392,3.059,5.839,3.059,5.839c-3.397-2.647-9.455-0.84-9.455,4.449
		c0,2.648,2.164,5.561,5.561,5.561c4.076,0,5.839-4.449,5.839-4.449s0.518,5.072-2.502,7.786h6.674
		c-3.02-2.713-2.502-7.786-2.502-7.786s1.763,4.449,5.839,4.449c3.399,0,5.561-2.914,5.561-5.561
		C63.103,30.317,57.046,28.51,53.648,31.157z"/>
</g>
<text transform="matrix(-1 0 0 -1 158.7271 207.6675)" font-family="'ArialMT'" font-size="39.9253">2</text>
<g id="layer1-1-4-1" transform="matrix(-1.4856506,0,0,-1.4856506,221.19916,232.46182)">
	<path id="cl-9-7" inkscape:connector-curvature="0" d="M52.449,29.898c0,0,2.962-2.371,2.962-5.657
		c0-1.924-1.707-5.118-5.656-5.118s-5.657,3.195-5.657,5.118c0,3.286,2.963,5.657,2.963,5.657c-3.291-2.564-9.159-0.813-9.159,4.311
		c0,2.566,2.096,5.387,5.388,5.387c3.949,0,5.657-4.311,5.657-4.311s0.501,4.914-2.424,7.544h6.465
		c-2.925-2.629-2.424-7.544-2.424-7.544s1.709,4.311,5.658,4.311c3.293,0,5.387-2.823,5.387-5.387
		C61.607,29.085,55.739,27.335,52.449,29.898z"/>
</g>
</svg>
