<?xml version="1.0" encoding="utf-8"?>
<!-- Generator: Adobe Illustrator 16.0.0, SVG Export Plug-In . SVG Version: 6.00 Build 0)  -->
<!DOCTYPE svg PUBLIC "-//W3C//DTD SVG 1.1//EN" "http://www.w3.org/Graphics/SVG/1.1/DTD/svg11.dtd">
<svg version="1.1"
	 id="svg2" xmlns:cc="http://creativecommons.org/ns#" xmlns:rdf="http://www.w3.org/1999/02/22-rdf-syntax-ns#" xmlns:svg="http://www.w3.org/2000/svg" xmlns:sodipodi="http://sodipodi.sourceforge.net/DTD/sodipodi-0.dtd" xmlns:inkscape="http://www.inkscape.org/namespaces/inkscape" xmlns:dc="http://purl.org/dc/elements/1.1/" inkscape:export-ydpi="215.44792" inkscape:export-xdpi="215.44792" sodipodi:docname="5_of_spades.svg" inkscape:version="0.48.0 r9654" inkscape:export-filename="/home/byron/art/cards/final/PNGs/5_of_spades.png"
	 xmlns="http://www.w3.org/2000/svg" xmlns:xlink="http://www.w3.org/1999/xlink" x="0px" y="0px" width="167.086px"
	 height="242.667px" viewBox="0 0 167.086 242.667" enable-background="new 0 0 167.086 242.667" xml:space="preserve">
<sodipodi:namedview  inkscape:cy="157.08206" inkscape:cx="106.02254" guidetolerance="10" gridtolerance="10" inkscape:zoom="2.4336873" objecttolerance="10" borderopacity="1" showgrid="false" pagecolor="#ffffff" bordercolor="#666666" inkscape:window-maximized="1" id="namedview39" inkscape:current-layer="svg2" inkscape:window-y="25" inkscape:window-x="0" inkscape:window-height="977" inkscape:window-width="1680" inkscape:pageshadow="2" inkscape:pageopacity="0">
	</sodipodi:namedview>
<g id="Layer_x0020_1">
	<path id="path5" fill="#FFFFFF" stroke="#000000" stroke-width="0.5" d="M166.836,235.548c0,3.777-3.086,6.869-6.871,6.869H7.111
		c-3.775,0-6.861-3.092-6.861-6.869V7.12c0-3.777,3.086-6.87,6.861-6.87h152.854c3.785,0,6.871,3.093,6.871,6.87V235.548z"/>
	<g id="g7">
		<g id="g9">
		</g>
	</g>
	<g id="g15">
	</g>
	<g id="g19">
	</g>
	<g id="g23">
		<g id="g25">
		</g>
	</g>
	<g id="g31">
		<g id="g33">
		</g>
	</g>
</g>
<text transform="matrix(1.1816 0 0 1 4.5 35.147)" font-family="'ArialMT'" font-size="38.0433">5</text>
<g id="layer1-7" transform="matrix(1.5085945,0,0,1.3793253,16.929104,45.065897)">
	<path id="sl" inkscape:connector-curvature="0" sodipodi:nodetypes="cccccccccc" d="M6.998,7.278
		C6.787,4.337,0.257-1.2,0.047-2.585c-0.211,1.384-6.74,6.919-6.951,9.861c-0.147,2.079,1.475,2.941,2.95,2.941
		c1.597-0.016,2.915-2.03,3.369-2.422c0.21,0.519-1.395,4.844-1.896,4.844h5.056c-0.501,0-2.106-4.325-1.896-4.844
		c0.398,0.36,1.564,2.362,3.371,2.422C5.524,10.217,7.145,9.356,6.998,7.278z"/>
</g>
<g id="layer1-7-88" transform="matrix(2.6486789,0,0,2.4217176,56.21089,49.365995)">
	<path id="sl-4" inkscape:connector-curvature="0" sodipodi:nodetypes="cccccccccc" d="M7.989,3.103C7.747-0.954,0.242-8.59,0-10.5
		C-0.242-8.591-7.747-0.955-7.989,3.103C-8.158,5.971-6.294,7.16-4.599,7.16c1.835-0.022,3.351-2.801,3.873-3.341
		c0.242,0.716-1.603,6.682-2.179,6.682h5.811c-0.576,0-2.421-5.966-2.179-6.682C1.184,4.315,2.524,7.077,4.601,7.16
		C6.295,7.159,8.158,5.971,7.989,3.103z"/>
</g>
<text transform="matrix(-1.1816 0 0 -1 162.5 209.853)" font-family="'ArialMT'" font-size="38.0433">5</text>
<g id="layer1-7-3" transform="matrix(-1.5085945,0,0,-1.3793253,150.22511,198.04408)">
	<path id="sl-1" inkscape:connector-curvature="0" sodipodi:nodetypes="cccccccccc" d="M7.1,5.907
		C6.889,2.966,0.359-2.57,0.149-3.955c-0.21,1.385-6.74,6.92-6.951,9.862C-6.948,7.986-5.327,8.85-3.853,8.85
		c1.597-0.017,2.916-2.032,3.37-2.423c0.21,0.517-1.394,4.843-1.896,4.843h5.056c-0.5,0-2.104-4.326-1.894-4.843
		c0.396,0.36,1.564,2.362,3.371,2.423C5.625,8.847,7.246,7.986,7.1,5.907z"/>
</g>
<g id="layer1-7-88-7" transform="matrix(-2.6486789,0,0,-2.4217176,56.25613,193.77132)">
	<path id="sl-4-5" inkscape:connector-curvature="0" sodipodi:nodetypes="cccccccccc" d="M7.989,3.103
		C7.747-0.954,0.242-8.59,0-10.5C-0.242-8.591-7.747-0.955-7.989,3.103C-8.158,5.971-6.294,7.16-4.599,7.16
		c1.835-0.023,3.351-2.801,3.873-3.341c0.242,0.716-1.603,6.682-2.179,6.682h5.811c-0.576,0-2.421-5.966-2.179-6.682
		C1.184,4.315,2.524,7.077,4.601,7.16C6.295,7.159,8.158,5.971,7.989,3.103z"/>
</g>
<g id="layer1-7-88-6" transform="matrix(2.6486789,0,0,2.4217176,83.494697,119.06732)">
	<path id="sl-4-8" inkscape:connector-curvature="0" sodipodi:nodetypes="cccccccccc" d="M7.989,3.103
		C7.747-0.954,0.242-8.59,0-10.5C-0.242-8.591-7.747-0.955-7.989,3.103C-8.158,5.971-6.294,7.16-4.599,7.16
		c1.835-0.021,3.351-2.801,3.873-3.341c0.242,0.716-1.603,6.682-2.179,6.682h5.811c-0.576,0-2.421-5.966-2.179-6.682
		C1.184,4.315,2.524,7.077,4.601,7.16C6.295,7.159,8.158,5.971,7.989,3.103z"/>
</g>
<g id="layer1-7-88-8" transform="matrix(2.6486789,0,0,2.4217176,109.93095,49.495625)">
	<path id="sl-4-9" inkscape:connector-curvature="0" sodipodi:nodetypes="cccccccccc" d="M7.989,3.103
		C7.747-0.954,0.242-8.59,0-10.5C-0.242-8.591-7.747-0.955-7.989,3.103C-8.158,5.971-6.294,7.16-4.599,7.16
		c1.835-0.022,3.351-2.801,3.873-3.341c0.242,0.716-1.603,6.682-2.179,6.682h5.811c-0.576,0-2.421-5.966-2.179-6.682
		C1.184,4.315,2.524,7.077,4.601,7.16C6.295,7.159,8.158,5.971,7.989,3.103z"/>
</g>
<g id="layer1-7-88-7-2" transform="matrix(-2.6486789,0,0,-2.4217176,109.97619,193.90095)">
	<path id="sl-4-5-6" inkscape:connector-curvature="0" sodipodi:nodetypes="cccccccccc" d="M7.989,3.103
		C7.747-0.954,0.242-8.59,0-10.5C-0.242-8.591-7.747-0.955-7.989,3.103C-8.158,5.971-6.294,7.16-4.599,7.16
		c1.835-0.021,3.351-2.8,3.873-3.341c0.242,0.716-1.603,6.682-2.179,6.682h5.811c-0.576,0-2.421-5.966-2.179-6.682
		C1.184,4.315,2.524,7.077,4.601,7.16C6.295,7.159,8.158,5.971,7.989,3.103z"/>
</g>
</svg>
