<?xml version="1.0" encoding="utf-8"?>
<!-- Generator: Adobe Illustrator 16.0.0, SVG Export Plug-In . SVG Version: 6.00 Build 0)  -->
<!DOCTYPE svg PUBLIC "-//W3C//DTD SVG 1.1//EN" "http://www.w3.org/Graphics/SVG/1.1/DTD/svg11.dtd">
<svg version="1.1"
	 id="svg2" xmlns:cc="http://creativecommons.org/ns#" xmlns:rdf="http://www.w3.org/1999/02/22-rdf-syntax-ns#" xmlns:svg="http://www.w3.org/2000/svg" xmlns:sodipodi="http://sodipodi.sourceforge.net/DTD/sodipodi-0.dtd" xmlns:inkscape="http://www.inkscape.org/namespaces/inkscape" xmlns:dc="http://purl.org/dc/elements/1.1/" inkscape:export-ydpi="215.44792" inkscape:export-xdpi="215.44792" sodipodi:docname="6_of_diamonds.svg" inkscape:version="0.48.0 r9654" inkscape:export-filename="/home/byron/art/cards/final/PNGs/6_of_diamonds.png"
	 xmlns="http://www.w3.org/2000/svg" xmlns:xlink="http://www.w3.org/1999/xlink" x="0px" y="0px" width="167.086px"
	 height="242.667px" viewBox="0 0 167.086 242.667" enable-background="new 0 0 167.086 242.667" xml:space="preserve">
<sodipodi:namedview  inkscape:cy="147.27218" inkscape:cx="72.124594" guidetolerance="10" gridtolerance="10" inkscape:zoom="1.7208768" objecttolerance="10" borderopacity="1" showgrid="false" pagecolor="#ffffff" bordercolor="#666666" inkscape:window-maximized="1" id="namedview39" inkscape:current-layer="svg2" inkscape:window-y="25" inkscape:window-x="0" inkscape:window-height="977" inkscape:window-width="1680" inkscape:pageshadow="2" inkscape:pageopacity="0">
	</sodipodi:namedview>
<g id="Layer_x0020_1">
	<path id="path5" fill="#FFFFFF" stroke="#000000" stroke-width="0.5" d="M166.836,235.548c0,3.777-3.086,6.869-6.871,6.869H7.111
		c-3.775,0-6.861-3.092-6.861-6.869V7.12c0-3.777,3.086-6.87,6.861-6.87h152.854c3.785,0,6.871,3.093,6.871,6.87V235.548z"/>
	<g id="g7">
		<g id="g9">
		</g>
	</g>
	<g id="g15">
	</g>
	<g id="g19">
	</g>
	<g id="g23">
		<g id="g25">
		</g>
	</g>
	<g id="g31">
		<g id="g33">
		</g>
	</g>
</g>
<text transform="matrix(1.1816 0 0 1 4.5 35.147)" fill="#DF0000" font-family="'ArialMT'" font-size="38.0433">6</text>
<text transform="matrix(-1.1816 0 0 -1 162.5 209.853)" fill="#DF0000" font-family="'ArialMT'" font-size="38.0433">6</text>
<g id="layer1-2-6" transform="matrix(1.4769065,0,0,1.4769065,16.968095,44.236162)">
	<path id="dl-6" inkscape:connector-curvature="0" sodipodi:nodetypes="ccccccccc" fill="#DF0000" d="M2.904,2.058
		c-1.881-1.939-2.882-3.91-2.882-3.91s-1.001,1.971-2.882,3.91c-1.882,1.939-4.227,3.2-4.227,3.2s2.345,1.26,4.227,3.2
		c1.881,1.938,2.882,3.909,2.882,3.909s1.001-1.971,2.882-3.91c1.882-1.94,4.227-3.2,4.227-3.2S4.786,3.996,2.904,2.058z"/>
</g>
<g id="layer1-2-6-4" transform="matrix(1.4769065,0,0,1.4769065,150.62089,198.50346)">
	<path id="dl-6-9" inkscape:connector-curvature="0" sodipodi:nodetypes="ccccccccc" fill="#DF0000" d="M2.462-6.926
		c-1.882-1.94-2.882-3.91-2.882-3.91s-1.001,1.97-2.883,3.91C-5.184-4.987-7.53-3.727-7.53-3.727s2.345,1.26,4.227,3.2
		C-1.421,1.412-0.42,3.383-0.42,3.383s1-1.97,2.882-3.909c1.882-1.94,4.227-3.2,4.227-3.2S4.345-4.987,2.462-6.926z"/>
</g>
<g id="layer1-2-6-8" transform="matrix(2.5882908,0,0,2.5882908,110.12873,192.02194)">
	<path id="dl-6-8" inkscape:connector-curvature="0" sodipodi:nodetypes="ccccccccc" fill="#DF0000" d="M3.244-4.725
		C1.126-7.589,0-10.5,0-10.5s-1.127,2.91-3.244,5.775C-5.361-1.862-8,0-8,0s2.639,1.861,4.757,4.726C-1.126,7.589,0,10.5,0,10.5
		s1.126-2.91,3.243-5.773C5.361,1.861,8,0,8,0S5.361-1.862,3.244-4.725z"/>
</g>
<g id="layer1-2-6-8-2" transform="matrix(2.5882908,0,0,2.5882908,110.12873,50.819539)">
	<path id="dl-6-8-6" inkscape:connector-curvature="0" sodipodi:nodetypes="ccccccccc" fill="#DF0000" d="M3.244-4.725
		C1.126-7.589,0-10.5,0-10.5s-1.127,2.911-3.244,5.775C-5.361-1.862-8,0-8,0s2.639,1.861,4.757,4.726C-1.126,7.589,0,10.5,0,10.5
		s1.126-2.911,3.243-5.774C5.361,1.861,8,0,8,0S5.361-1.862,3.244-4.725z"/>
</g>
<g id="layer1-2-6-8-2-8" transform="matrix(2.5882908,0,0,2.5882908,110.12873,120.52034)">
	<path id="dl-6-8-6-8" inkscape:connector-curvature="0" sodipodi:nodetypes="ccccccccc" fill="#DF0000" d="M3.244-4.725
		C1.126-7.589,0-10.5,0-10.5s-1.127,2.911-3.244,5.775C-5.361-1.862-8,0-8,0s2.639,1.861,4.757,4.726C-1.126,7.589,0,10.5,0,10.5
		s1.126-2.91,3.243-5.773C5.361,1.861,8,0,8,0S5.361-1.862,3.244-4.725z"/>
</g>
<g id="layer1-2-6-8-8" transform="matrix(2.5882908,0,0,2.5882908,56.013391,192.14005)">
	<path id="dl-6-8-8" inkscape:connector-curvature="0" sodipodi:nodetypes="ccccccccc" fill="#DF0000" d="M3.243-4.725
		C1.126-7.589,0-10.5,0-10.5s-1.126,2.911-3.243,5.775C-5.361-1.862-8,0-8,0s2.639,1.861,4.757,4.726C-1.126,7.589,0,10.5,0,10.5
		s1.126-2.911,3.243-5.774C5.361,1.861,8,0,8,0S5.361-1.862,3.243-4.725z"/>
</g>
<g id="layer1-2-6-8-2-4" transform="matrix(2.5882908,0,0,2.5882908,56.013391,50.937663)">
	<path id="dl-6-8-6-3" inkscape:connector-curvature="0" sodipodi:nodetypes="ccccccccc" fill="#DF0000" d="M3.243-4.725
		C1.126-7.589,0-10.5,0-10.5s-1.126,2.911-3.243,5.775C-5.361-1.862-8,0-8,0s2.639,1.861,4.757,4.726C-1.126,7.589,0,10.5,0,10.5
		s1.126-2.911,3.243-5.774C5.361,1.861,8,0,8,0S5.361-1.862,3.243-4.725z"/>
</g>
<g id="layer1-2-6-8-2-8-1" transform="matrix(2.5882908,0,0,2.5882908,56.013391,120.63845)">
	<path id="dl-6-8-6-8-4" inkscape:connector-curvature="0" sodipodi:nodetypes="ccccccccc" fill="#DF0000" d="M3.243-4.725
		C1.126-7.589,0-10.5,0-10.5s-1.126,2.911-3.243,5.775C-5.361-1.862-8,0-8,0s2.639,1.861,4.757,4.726C-1.126,7.589,0,10.5,0,10.5
		s1.126-2.911,3.243-5.774C5.361,1.861,8,0,8,0S5.361-1.862,3.243-4.725z"/>
</g>
</svg>
