<?xml version="1.0" encoding="utf-8"?>
<!-- Generator: Adobe Illustrator 16.0.0, SVG Export Plug-In . SVG Version: 6.00 Build 0)  -->
<!DOCTYPE svg PUBLIC "-//W3C//DTD SVG 1.1//EN" "http://www.w3.org/Graphics/SVG/1.1/DTD/svg11.dtd">
<svg version="1.1"
	 id="svg2" xmlns:cc="http://creativecommons.org/ns#" xmlns:rdf="http://www.w3.org/1999/02/22-rdf-syntax-ns#" xmlns:svg="http://www.w3.org/2000/svg" xmlns:sodipodi="http://sodipodi.sourceforge.net/DTD/sodipodi-0.dtd" xmlns:inkscape="http://www.inkscape.org/namespaces/inkscape" xmlns:dc="http://purl.org/dc/elements/1.1/" inkscape:export-ydpi="215.44792" inkscape:export-xdpi="215.44792" sodipodi:docname="7_of_hearts.svg" inkscape:version="0.48.0 r9654" inkscape:export-filename="/home/byron/art/cards/final/PNGs/7_of_hearts.png"
	 xmlns="http://www.w3.org/2000/svg" xmlns:xlink="http://www.w3.org/1999/xlink" x="0px" y="0px" width="167.086px"
	 height="242.667px" viewBox="0 0 167.086 242.667" enable-background="new 0 0 167.086 242.667" xml:space="preserve">
<sodipodi:namedview  inkscape:cy="147.27218" inkscape:cx="-28.405554" guidetolerance="10" gridtolerance="10" inkscape:zoom="1.7208768" objecttolerance="10" borderopacity="1" showgrid="false" pagecolor="#ffffff" bordercolor="#666666" inkscape:window-maximized="1" id="namedview39" inkscape:current-layer="svg2" inkscape:window-y="25" inkscape:window-x="0" inkscape:window-height="977" inkscape:window-width="1680" inkscape:pageshadow="2" inkscape:pageopacity="0">
	</sodipodi:namedview>
<g id="Layer_x0020_1">
	<path id="path5" fill="#FFFFFF" stroke="#000000" stroke-width="0.5" d="M166.836,235.548c0,3.777-3.086,6.869-6.871,6.869H7.111
		c-3.775,0-6.861-3.092-6.861-6.869V7.12c0-3.777,3.086-6.87,6.861-6.87h152.854c3.785,0,6.871,3.093,6.871,6.87V235.548z"/>
	<g id="g7">
		<g id="g9">
		</g>
	</g>
	<g id="g15">
	</g>
	<g id="g19">
	</g>
	<g id="g23">
		<g id="g25">
		</g>
	</g>
	<g id="g31">
		<g id="g33">
		</g>
	</g>
</g>
<text transform="matrix(1.1816 0 0 1 4.5 35.147)" fill="#DF0000" font-family="'ArialMT'" font-size="38.0433">7</text>
<g id="layer1-9-6" transform="matrix(1.6743072,0,0,1.5669921,17.177511,46.385321)">
	<path id="hl-8" inkscape:connector-curvature="0" sodipodi:nodetypes="scsscss" fill="#DF0000" d="M2.776-3.117
		c-2.542,0-2.881,2.589-2.881,2.589s-0.339-2.589-2.882-2.589c-1.78,0-3.39,1.161-3.39,3.35c0,2.893,5.158,5.803,6.272,10.051
		C0.954,6.04,6.166,3.126,6.166,0.233C6.166-1.956,4.555-3.117,2.776-3.117z"/>
</g>
<text transform="matrix(-1.1816 0 0 -1 162.5 209.853)" fill="#DF0000" font-family="'ArialMT'" font-size="38.0433">7</text>
<g id="layer1-9-6-5" transform="matrix(-1.6743072,0,0,-1.5669921,150.15601,195.14313)">
	<path id="hl-8-1" inkscape:connector-curvature="0" sodipodi:nodetypes="scsscss" fill="#DF0000" d="M2.974-5.333
		c-2.541,0-2.881,2.588-2.881,2.588s-0.339-2.588-2.881-2.588c-1.78,0-3.39,1.159-3.39,3.35c0,2.894,5.157,5.804,6.271,10.052
		c1.06-4.244,6.271-7.158,6.271-10.052C6.364-4.174,4.755-5.333,2.974-5.333z"/>
</g>
<g id="layer1-9-6-8" transform="matrix(2.7790082,0,0,2.600887,54.512268,31.603768)">
	<path id="hl-8-8" inkscape:connector-curvature="0" sodipodi:nodetypes="scsscss" fill="#DF0000" d="M4.149,1.917
		c-3.014,0-3.417,3.315-3.417,3.315S0.33,1.917-2.685,1.917c-2.11,0-4.019,1.486-4.019,4.29c0,3.704,6.115,7.43,7.436,12.87
		c1.257-5.435,7.436-9.165,7.436-12.87C8.168,3.403,6.259,1.917,4.149,1.917z"/>
</g>
<g id="layer1-9-6-8-9" transform="matrix(-2.7790082,0,0,-2.600887,54.512268,208.00617)">
	<path id="hl-8-8-5" inkscape:connector-curvature="0" sodipodi:nodetypes="scsscss" fill="#DF0000" d="M2.685-2.714
		c-3.014,0-3.417,3.315-3.417,3.315s-0.403-3.315-3.417-3.315c-2.11,0-4.019,1.486-4.019,4.29c0,3.704,6.115,7.43,7.436,12.869
		C0.525,9.011,6.704,5.281,6.704,1.576C6.704-1.227,4.795-2.714,2.685-2.714z"/>
</g>
<g id="layer1-9-6-8-8" transform="matrix(2.7790082,0,0,2.600887,54.512268,125.30457)">
	<path id="hl-8-8-8" inkscape:connector-curvature="0" sodipodi:nodetypes="scsscss" fill="#DF0000" d="M4.149,0.234
		c-3.014,0-3.417,3.315-3.417,3.315S0.33,0.234-2.685,0.234c-2.11,0-4.019,1.486-4.019,4.29c0,3.704,6.115,7.43,7.436,12.869
		c1.257-5.435,7.436-9.165,7.436-12.869C8.168,1.72,6.259,0.234,4.149,0.234z"/>
</g>
<g id="layer1-9-6-8-88" transform="matrix(2.7790082,0,0,2.600887,112.2504,31.272778)">
	<path id="hl-8-8-4" inkscape:connector-curvature="0" sodipodi:nodetypes="scsscss" fill="#DF0000" d="M2.685,1.923
		c-3.014,0-3.417,3.315-3.417,3.315s-0.403-3.315-3.417-3.315c-2.11,0-4.019,1.486-4.019,4.29c0,3.704,6.116,7.43,7.436,12.869
		c1.257-5.435,7.436-9.165,7.436-12.869C6.704,3.409,4.795,1.923,2.685,1.923z"/>
</g>
<g id="layer1-9-6-8-9-3" transform="matrix(-2.7790082,0,0,-2.600887,112.2504,209.27518)">
	<path id="hl-8-8-5-1" inkscape:connector-curvature="0" sodipodi:nodetypes="scsscss" fill="#DF0000" d="M4.149-2.691
		c-3.014,0-3.417,3.315-3.417,3.315S0.33-2.691-2.685-2.691c-2.11,0-4.019,1.486-4.019,4.29c0,3.704,6.116,7.43,7.436,12.87
		c1.257-5.435,7.436-9.165,7.436-12.87C8.168-1.205,6.259-2.691,4.149-2.691z"/>
</g>
<g id="layer1-9-6-8-8-4" transform="matrix(2.7790082,0,0,2.600887,112.2504,124.97358)">
	<path id="hl-8-8-8-9" inkscape:connector-curvature="0" sodipodi:nodetypes="scsscss" fill="#DF0000" d="M2.685,0.241
		c-3.014,0-3.417,3.314-3.417,3.314s-0.403-3.314-3.417-3.314c-2.11,0-4.019,1.486-4.019,4.289c0,3.705,6.116,7.43,7.436,12.87
		c1.257-5.435,7.436-9.165,7.436-12.87C6.704,1.727,4.795,0.241,2.685,0.241z"/>
</g>
<g id="layer1-9-6-8-884" transform="matrix(2.7790082,0,0,2.600887,83.678269,76.705082)">
	<path id="hl-8-8-3" inkscape:connector-curvature="0" sodipodi:nodetypes="scsscss" fill="#DF0000" d="M3.409,1.107
		c-3.014,0-3.417,3.315-3.417,3.315S-0.41,1.107-3.424,1.107c-2.11,0-4.019,1.486-4.019,4.29c0,3.705,6.115,7.43,7.436,12.869
		C1.25,12.831,7.429,9.101,7.429,5.397C7.429,2.593,5.519,1.107,3.409,1.107z"/>
</g>
</svg>
