<?xml version="1.0" encoding="utf-8"?>
<!-- Generator: Adobe Illustrator 16.0.0, SVG Export Plug-In . SVG Version: 6.00 Build 0)  -->
<!DOCTYPE svg PUBLIC "-//W3C//DTD SVG 1.1//EN" "http://www.w3.org/Graphics/SVG/1.1/DTD/svg11.dtd">
<svg version="1.1"
	 id="svg2" inkscape:export-ydpi="215.44792" inkscape:export-xdpi="215.44792" sodipodi:docname="9_of_hearts.svg" inkscape:version="0.48.0 r9654" xmlns:dc="http://purl.org/dc/elements/1.1/" xmlns:cc="http://creativecommons.org/ns#" xmlns:rdf="http://www.w3.org/1999/02/22-rdf-syntax-ns#" xmlns:svg="http://www.w3.org/2000/svg" xmlns:sodipodi="http://sodipodi.sourceforge.net/DTD/sodipodi-0.dtd" xmlns:inkscape="http://www.inkscape.org/namespaces/inkscape" inkscape:export-filename="/home/byron/art/cards/final/PNGs/9_of_hearts.png"
	 xmlns="http://www.w3.org/2000/svg" xmlns:xlink="http://www.w3.org/1999/xlink" x="0px" y="0px" width="167.086px"
	 height="242.667px" viewBox="0 0 167.086 242.667" enable-background="new 0 0 167.086 242.667" xml:space="preserve">
<sodipodi:namedview  id="namedview39" inkscape:current-layer="svg2" inkscape:window-y="25" inkscape:window-x="0" inkscape:window-height="977" inkscape:window-width="1680" inkscape:pageshadow="2" inkscape:pageopacity="0" inkscape:cy="147.27218" inkscape:cx="-0.38353415" guidetolerance="10" gridtolerance="10" inkscape:zoom="1.7208768" objecttolerance="10" borderopacity="1" showgrid="false" bordercolor="#666666" pagecolor="#ffffff" inkscape:window-maximized="1">
	</sodipodi:namedview>
<g id="Layer_x0020_1">
	<path id="path5" fill="#FFFFFF" stroke="#000000" stroke-width="0.5" d="M166.836,235.548c0,3.777-3.086,6.869-6.871,6.869H7.111
		c-3.775,0-6.861-3.092-6.861-6.869V7.12c0-3.777,3.086-6.87,6.861-6.87h152.854c3.785,0,6.871,3.093,6.871,6.87V235.548z"/>
	<g id="g7">
		<g id="g9">
		</g>
	</g>
	<g id="g15">
	</g>
	<g id="g19">
	</g>
	<g id="g23">
		<g id="g25">
		</g>
	</g>
	<g id="g31">
		<g id="g33">
		</g>
	</g>
</g>
<g id="layer1-9-6" transform="matrix(1.6743072,0,0,1.5669921,17.177511,46.385321)">
	<path id="hl-8" inkscape:connector-curvature="0" sodipodi:nodetypes="scsscss" fill="#DF0000" d="M2.776-3.116
		c-2.542,0-2.881,2.588-2.881,2.588s-0.339-2.589-2.882-2.589c-1.78,0-3.39,1.161-3.39,3.35c0,2.893,5.158,5.803,6.272,10.051
		c1.06-4.244,6.271-7.157,6.271-10.05C6.166-1.955,4.555-3.116,2.776-3.116z"/>
</g>
<g id="layer1-9-6-5" transform="matrix(-1.6743072,0,0,-1.5669921,150.15601,195.14313)">
	<path id="hl-8-1" inkscape:connector-curvature="0" sodipodi:nodetypes="scsscss" fill="#DF0000" d="M2.881-5.333
		C0.34-5.333,0-2.745,0-2.745S-0.34-5.333-2.882-5.333c-1.78,0-3.39,1.16-3.39,3.35c0,2.894,5.157,5.803,6.271,10.051
		C1.06,3.825,6.271,0.912,6.271-1.981C6.271-4.171,4.661-5.333,2.881-5.333z"/>
</g>
<g id="layer1-9-6-8" transform="matrix(2.7790082,0,0,2.600887,54.512268,30.003768)">
	<path id="hl-8-8" inkscape:connector-curvature="0" sodipodi:nodetypes="scsscss" fill="#DF0000" d="M4.13,0.077
		c-3.022,0-3.426,3.174-3.426,3.174S0.301,0.077-2.721,0.077c-2.115,0-4.03,1.423-4.03,4.107c0,3.547,6.131,7.114,7.455,12.321
		c1.26-5.204,7.455-8.775,7.455-12.321C8.159,1.5,6.245,0.077,4.13,0.077z"/>
</g>
<g id="layer1-9-6-8-9" transform="matrix(-2.7790082,0,0,-2.600887,54.512268,212.80617)">
	<path id="hl-8-8-5" inkscape:connector-curvature="0" sodipodi:nodetypes="scsscss" fill="#DF0000" d="M2.721,1.211
		c-3.022,0-3.426,3.173-3.426,3.173S-1.108,1.211-4.13,1.211c-2.115,0-4.029,1.423-4.029,4.107c0,3.547,6.131,7.113,7.455,12.322
		c1.26-5.204,7.455-8.775,7.455-12.322C6.751,2.633,4.837,1.211,2.721,1.211z"/>
</g>
<g id="layer1-9-6-8-8" transform="matrix(2.7790082,0,0,2.600887,54.512268,95.238623)">
	<path id="hl-8-8-8" inkscape:connector-curvature="0" sodipodi:nodetypes="scsscss" fill="#DF0000" d="M4.13-7.376
		c-3.022,0-3.426,3.173-3.426,3.173S0.301-7.376-2.721-7.376c-2.115,0-4.03,1.423-4.03,4.107c0,3.547,6.131,7.114,7.455,12.322
		c1.26-5.204,7.455-8.775,7.455-12.322C8.159-5.953,6.245-7.376,4.13-7.376z"/>
</g>
<g id="layer1-9-6-8-884-8" transform="matrix(-2.7790082,0,0,-2.600887,54.512268,145.35601)">
	<path id="hl-8-8-3-8" inkscape:connector-curvature="0" sodipodi:nodetypes="scsscss" fill="#DF0000" d="M2.721-7.37
		c-3.022,0-3.426,3.174-3.426,3.174S-1.108-7.37-4.13-7.37c-2.115,0-4.029,1.423-4.029,4.107c0,3.547,6.131,7.114,7.455,12.321
		c1.26-5.203,7.455-8.774,7.455-12.321C6.751-5.947,4.837-7.37,2.721-7.37z"/>
</g>
<g id="layer1-9-6-8-7" transform="matrix(2.7790082,0,0,2.600887,111.99088,30.602538)">
	<path id="hl-8-8-1" inkscape:connector-curvature="0" sodipodi:nodetypes="scsscss" fill="#DF0000" d="M2.721,0.057
		c-3.022,0-3.426,3.174-3.426,3.174S-1.108,0.057-4.13,0.057c-2.115,0-4.03,1.423-4.03,4.107c0,3.547,6.131,7.114,7.455,12.322
		C0.555,11.282,6.75,7.711,6.75,4.164C6.751,1.48,4.836,0.057,2.721,0.057z"/>
</g>
<g id="layer1-9-6-8-9-7" transform="matrix(-2.7790082,0,0,-2.600887,111.99088,213.40494)">
	<path id="hl-8-8-5-2" inkscape:connector-curvature="0" sodipodi:nodetypes="scsscss" fill="#DF0000" d="M4.13,1.23
		c-3.022,0-3.426,3.174-3.426,3.174S0.301,1.23-2.721,1.23c-2.115,0-4.03,1.423-4.03,4.107c0,3.547,6.131,7.114,7.455,12.321
		c1.26-5.202,7.456-8.774,7.456-12.32C8.16,2.654,6.245,1.23,4.13,1.23z"/>
</g>
<g id="layer1-9-6-8-8-7" transform="matrix(2.7790082,0,0,2.600887,111.99088,95.837397)">
	<path id="hl-8-8-8-2" inkscape:connector-curvature="0" sodipodi:nodetypes="scsscss" fill="#DF0000" d="M2.721-7.396
		c-3.022,0-3.426,3.173-3.426,3.173S-1.108-7.396-4.13-7.396c-2.115,0-4.03,1.423-4.03,4.107c0,3.547,6.131,7.114,7.455,12.321
		C0.555,3.829,6.75,0.257,6.75-3.289C6.751-5.973,4.836-7.396,2.721-7.396z"/>
</g>
<g id="layer1-9-6-8-884-8-2" transform="matrix(-2.7790082,0,0,-2.600887,111.99088,145.95478)">
	<path id="hl-8-8-3-8-6" inkscape:connector-curvature="0" sodipodi:nodetypes="scsscss" fill="#DF0000" d="M4.13-7.35
		c-3.022,0-3.426,3.173-3.426,3.173S0.301-7.35-2.721-7.35c-2.115,0-4.03,1.423-4.03,4.107c0,3.547,6.131,7.113,7.455,12.322
		C1.964,3.875,8.16,0.304,8.16-3.243C8.16-5.927,6.245-7.35,4.13-7.35z"/>
</g>
<g id="layer1-9-6-8-91" transform="matrix(2.7790082,0,0,2.600887,83.213391,62.704546)">
	<path id="hl-8-8-7" inkscape:connector-curvature="0" sodipodi:nodetypes="scsscss" fill="#DF0000" d="M3.427,16.174
		c-3.022,0-3.426,3.173-3.426,3.173s-0.403-3.173-3.426-3.173c-2.115,0-4.029,1.423-4.029,4.107c0,3.547,6.131,7.113,7.455,12.322
		c1.26-5.204,7.455-8.775,7.455-12.322C7.456,17.597,5.542,16.174,3.427,16.174z"/>
</g>
<text transform="matrix(1.1816 0 0 1 4.5001 30.6948)" fill="#DF0000" font-family="'ArialMT'" font-size="38.0433">9</text>
<text transform="matrix(-1.1816 0 0 -1 162.418 209.853)" fill="#DF0000" font-family="'ArialMT'" font-size="38.0433">9</text>
</svg>
